<svg version="1.1" viewBox="0.0 0.0 891.0 551.0" fill="none" stroke="none" stroke-linecap="square" stroke-miterlimit="10" width="891" height="551" xmlns:xlink="http://www.w3.org/1999/xlink" xmlns="http://www.w3.org/2000/svg"><path fill="#ffffff" d="M0 0L891.0 0L891.0 551.0L0 551.0L0 0Z" fill-rule="nonzero"/><path stroke="#333333" stroke-width="1.0" stroke-linecap="butt" d="M103.5 453.5L863.5 453.5" fill-rule="nonzero"/><path stroke="#cccccc" stroke-width="1.0" stroke-linecap="butt" d="M103.5 359.5L863.5 359.5" fill-rule="nonzero"/><path stroke="#cccccc" stroke-width="1.0" stroke-linecap="butt" d="M103.5 265.5L863.5 265.5" fill-rule="nonzero"/><path stroke="#cccccc" stroke-width="1.0" stroke-linecap="butt" d="M103.5 171.5L863.5 171.5" fill-rule="nonzero"/><path stroke="#cccccc" stroke-width="1.0" stroke-linecap="butt" d="M103.5 77.5L863.5 77.5" fill-rule="nonzero"/><clipPath id="id_0"><path d="M103.55 77.416664L863.45 77.416664L863.45 453.45L103.55 453.45L103.55 77.416664Z" clip-rule="nonzero"/></clipPath><path stroke="#000000" stroke-width="0.0" stroke-linecap="butt" stroke-opacity="0.0" clip-path="url(#id_0)" d="M331.0 453.0L184.0 453.0L184.0 361.0C184.0 359.89542 184.89543 359.0 186.0 359.0L329.0 359.0C330.10458 359.0 331.0 359.89542 331.0 361.0Z" fill-rule="nonzero"/><path fill="#273138" clip-path="url(#id_0)" d="M331.0 453.0L184.0 453.0L184.0 361.0C184.0 359.89542 184.89543 359.0 186.0 359.0L329.0 359.0C330.10458 359.0 331.0 359.89542 331.0 361.0Z" fill-rule="nonzero"/><path stroke="#000000" stroke-width="0.0" stroke-linecap="butt" stroke-opacity="0.0" clip-path="url(#id_0)" d="M558.0 453.0L411.0 453.0L411.0 126.0C411.0 124.89543 411.89542 124.0 413.0 124.0L556.0 124.0C557.10455 124.0 558.0 124.89543 558.0 126.0Z" fill-rule="nonzero"/><path fill="#273138" clip-path="url(#id_0)" d="M558.0 453.0L411.0 453.0L411.0 126.0C411.0 124.89543 411.89542 124.0 413.0 124.0L556.0 124.0C557.10455 124.0 558.0 124.89543 558.0 126.0Z" fill-rule="nonzero"/><path stroke="#000000" stroke-width="0.0" stroke-linecap="butt" stroke-opacity="0.0" clip-path="url(#id_0)" d="M784.0 453.0L637.0 453.0L637.0 220.0C637.0 218.89543 637.89545 218.0 639.0 218.0L782.0 218.0C783.10455 218.0 784.0 218.89543 784.0 220.0Z" fill-rule="nonzero"/><path fill="#273138" clip-path="url(#id_0)" d="M784.0 453.0L637.0 453.0L637.0 220.0C637.0 218.89543 637.89545 218.0 639.0 218.0L782.0 218.0C783.10455 218.0 784.0 218.89543 784.0 220.0Z" fill-rule="nonzero"/><path fill="#273138" d="M407.82812 507.04376L403.71875 507.04376L403.71875 518.45L402.03125 518.45L402.03125 507.04376L397.9375 507.04376L397.9375 505.65314L407.82812 505.65314L407.82812 507.04376ZM412.84375 516.075L415.0625 508.9344L416.79688 508.9344L412.96875 519.91876Q412.09375 522.29376 410.15625 522.29376L409.84375 522.2625L409.23438 522.15314L409.23438 520.825L409.67188 520.8719Q410.5 520.8719 410.95312 520.52814Q411.42188 520.2 411.71875 519.3094L412.09375 518.34064L408.6875 508.9344L410.46875 508.9344L412.84375 516.075ZM426.76562 513.79376Q426.76562 515.96564 425.76562 517.29376Q424.78125 518.6219 423.07812 518.6219Q421.34375 518.6219 420.35938 517.52814L420.35938 522.10626L418.73438 522.10626L418.73438 508.9344L420.21875 508.9344L420.29688 509.9969Q421.28125 508.7625 423.0625 508.7625Q424.76562 508.7625 425.76562 510.0594Q426.76562 511.34064 426.76562 513.65314L426.76562 513.79376ZM425.14062 513.6219Q425.14062 512.0125 424.45312 511.075Q423.76562 510.1375 422.57812 510.1375Q421.09375 510.1375 420.35938 511.45L420.35938 515.9969Q421.09375 517.29376 422.59375 517.29376Q423.76562 517.29376 424.45312 516.3719Q425.14062 515.45 425.14062 513.6219ZM432.67188 518.6219Q430.75 518.6219 429.53125 517.35626Q428.3125 516.09064 428.3125 513.96564L428.3125 513.65314Q428.3125 512.2469 428.85938 511.1375Q429.40625 510.02814 430.375 509.40314Q431.34375 508.7625 432.46875 508.7625Q434.32812 508.7625 435.35938 509.98126Q436.39062 511.2 436.39062 513.48126L436.39062 514.15314L429.9375 514.15314Q429.98438 515.5594 430.76562 516.4344Q431.54688 517.29376 432.76562 517.29376Q433.625 517.29376 434.21875 516.95Q434.82812 516.59064 435.26562 516.0125L436.26562 516.79376Q435.0625 518.6219 432.67188 518.6219ZM432.46875 510.10626Q431.48438 510.10626 430.8125 510.825Q430.15625 511.52814 430.0 512.825L434.76562 512.825L434.76562 512.7Q434.6875 511.46564 434.09375 510.79376Q433.5 510.10626 432.46875 510.10626ZM442.29688 513.60626Q442.29688 512.21564 442.84375 511.10626Q443.40625 509.98126 444.375 509.3719Q445.35938 508.7625 446.60938 508.7625Q448.5625 508.7625 449.75 510.10626Q450.95312 511.45 450.95312 513.6844L450.95312 513.79376Q450.95312 515.1844 450.42188 516.29376Q449.89062 517.3875 448.90625 518.0125Q447.92188 518.6219 446.64062 518.6219Q444.70312 518.6219 443.5 517.27814Q442.29688 515.9344 442.29688 513.71564L442.29688 513.60626ZM443.9375 513.79376Q443.9375 515.3875 444.67188 516.34064Q445.40625 517.29376 446.64062 517.29376Q447.875 517.29376 448.59375 516.325Q449.32812 515.35626 449.32812 513.60626Q449.32812 512.04376 448.57812 511.075Q447.84375 510.10626 446.60938 510.10626Q445.40625 510.10626 444.67188 511.0594Q443.9375 512.0125 443.9375 513.79376ZM453.53125 518.45L453.53125 510.2L452.03125 510.2L452.03125 508.9344L453.53125 508.9344L453.53125 507.96564Q453.53125 506.4344 454.34375 505.60626Q455.17188 504.7625 456.65625 504.7625Q457.21875 504.7625 457.78125 504.91876L457.6875 506.23126Q457.28125 506.15314 456.8125 506.15314Q456.01562 506.15314 455.57812 506.6219Q455.15625 507.075 455.15625 507.9344L455.15625 508.9344L457.1875 508.9344L457.1875 510.2L455.15625 510.2L455.15625 518.45L453.53125 518.45ZM466.54688 517.29376Q467.42188 517.29376 468.0625 516.77814Q468.71875 516.2469 468.78125 515.45L470.32812 515.45Q470.28125 516.2625 469.76562 517.0125Q469.25 517.7469 468.375 518.1844Q467.51562 518.6219 466.54688 518.6219Q464.60938 518.6219 463.45312 517.325Q462.3125 516.02814 462.3125 513.77814L462.3125 513.5125Q462.3125 512.1219 462.8125 511.04376Q463.32812 509.96564 464.28125 509.3719Q465.23438 508.7625 466.53125 508.7625Q468.14062 508.7625 469.1875 509.73126Q470.25 510.6844 470.32812 512.21564L468.78125 512.21564Q468.71875 511.29376 468.07812 510.7Q467.45312 510.10626 466.53125 510.10626Q465.29688 510.10626 464.60938 510.9969Q463.9375 511.8875 463.9375 513.575L463.9375 513.8719Q463.9375 515.52814 464.60938 516.41876Q465.28125 517.29376 466.54688 517.29376ZM473.35938 510.09064Q474.4375 508.7625 476.17188 508.7625Q479.1875 508.7625 479.20312 512.16876L479.20312 518.45L477.57812 518.45L477.57812 512.15314Q477.57812 511.1219 477.10938 510.6375Q476.65625 510.1375 475.67188 510.1375Q474.89062 510.1375 474.28125 510.5594Q473.6875 510.98126 473.35938 511.66876L473.35938 518.45L471.73438 518.45L471.73438 504.95L473.35938 504.95L473.35938 510.09064ZM487.60938 518.45Q487.46875 518.16876 487.375 517.45Q486.23438 518.6219 484.67188 518.6219Q483.26562 518.6219 482.35938 517.825Q481.45312 517.02814 481.45312 515.8094Q481.45312 514.325 482.57812 513.5125Q483.71875 512.6844 485.76562 512.6844L487.34375 512.6844L487.34375 511.9344Q487.34375 511.09064 486.82812 510.59064Q486.32812 510.075 485.32812 510.075Q484.46875 510.075 483.875 510.5125Q483.28125 510.95 483.28125 511.575L481.65625 511.575Q481.65625 510.8719 482.15625 510.21564Q482.65625 509.54376 483.51562 509.15314Q484.39062 508.7625 485.4375 508.7625Q487.07812 508.7625 488.0 509.59064Q488.9375 510.40314 488.96875 511.85626L488.96875 516.23126Q488.96875 517.52814 489.3125 518.3094L489.3125 518.45L487.60938 518.45ZM484.90625 517.21564Q485.67188 517.21564 486.35938 516.825Q487.04688 516.41876 487.34375 515.79376L487.34375 513.84064L486.07812 513.84064Q483.07812 513.84064 483.07812 515.59064Q483.07812 516.35626 483.59375 516.79376Q484.10938 517.21564 484.90625 517.21564ZM496.32812 510.40314Q495.95312 510.34064 495.53125 510.34064Q493.92188 510.34064 493.35938 511.7L493.35938 518.45L491.73438 518.45L491.73438 508.9344L493.3125 508.9344L493.34375 510.04376Q494.14062 508.7625 495.60938 508.7625Q496.07812 508.7625 496.32812 508.8875L496.32812 510.40314ZM503.60938 518.45Q503.46875 518.16876 503.375 517.45Q502.23438 518.6219 500.67188 518.6219Q499.26562 518.6219 498.35938 517.825Q497.45312 517.02814 497.45312 515.8094Q497.45312 514.325 498.57812 513.5125Q499.71875 512.6844 501.76562 512.6844L503.34375 512.6844L503.34375 511.9344Q503.34375 511.09064 502.82812 510.59064Q502.32812 510.075 501.32812 510.075Q500.46875 510.075 499.875 510.5125Q499.28125 510.95 499.28125 511.575L497.65625 511.575Q497.65625 510.8719 498.15625 510.21564Q498.65625 509.54376 499.51562 509.15314Q500.39062 508.7625 501.4375 508.7625Q503.07812 508.7625 504.0 509.59064Q504.9375 510.40314 504.96875 511.85626L504.96875 516.23126Q504.96875 517.52814 505.3125 518.3094L505.3125 518.45L503.60938 518.45ZM500.90625 517.21564Q501.67188 517.21564 502.35938 516.825Q503.04688 516.41876 503.34375 515.79376L503.34375 513.84064L502.07812 513.84064Q499.07812 513.84064 499.07812 515.59064Q499.07812 516.35626 499.59375 516.79376Q500.10938 517.21564 500.90625 517.21564ZM511.54688 517.29376Q512.4219 517.29376 513.0625 516.77814Q513.71875 516.2469 513.78125 515.45L515.3281 515.45Q515.28125 516.2625 514.7656 517.0125Q514.25 517.7469 513.375 518.1844Q512.5156 518.6219 511.54688 518.6219Q509.60938 518.6219 508.45312 517.325Q507.3125 516.02814 507.3125 513.77814L507.3125 513.5125Q507.3125 512.1219 507.8125 511.04376Q508.32812 509.96564 509.28125 509.3719Q510.23438 508.7625 511.53125 508.7625Q513.1406 508.7625 514.1875 509.73126Q515.25 510.6844 515.3281 512.21564L513.78125 512.21564Q513.71875 511.29376 513.0781 510.7Q512.4531 510.10626 511.53125 510.10626Q510.29688 510.10626 509.60938 510.9969Q508.9375 511.8875 508.9375 513.575L508.9375 513.8719Q508.9375 515.52814 509.60938 516.41876Q510.28125 517.29376 511.54688 517.29376ZM518.9375 506.6375L518.9375 508.9344L520.71875 508.9344L520.71875 510.2L518.9375 510.2L518.9375 516.09064Q518.9375 516.66876 519.1719 516.95Q519.40625 517.23126 519.9844 517.23126Q520.2656 517.23126 520.75 517.1375L520.75 518.45Q520.1094 518.6219 519.5156 518.6219Q518.4219 518.6219 517.8594 517.96564Q517.3125 517.3094 517.3125 516.09064L517.3125 510.2L515.5781 510.2L515.5781 508.9344L517.3125 508.9344L517.3125 506.6375L518.9375 506.6375ZM526.6719 518.6219Q524.75 518.6219 523.53125 517.35626Q522.3125 516.09064 522.3125 513.96564L522.3125 513.65314Q522.3125 512.2469 522.8594 511.1375Q523.40625 510.02814 524.375 509.40314Q525.34375 508.7625 526.46875 508.7625Q528.3281 508.7625 529.3594 509.98126Q530.3906 511.2 530.3906 513.48126L530.3906 514.15314L523.9375 514.15314Q523.9844 515.5594 524.7656 516.4344Q525.5469 517.29376 526.7656 517.29376Q527.625 517.29376 528.21875 516.95Q528.8281 516.59064 529.2656 516.0125L530.2656 516.79376Q529.0625 518.6219 526.6719 518.6219ZM526.46875 510.10626Q525.4844 510.10626 524.8125 510.825Q524.15625 511.52814 524.0 512.825L528.7656 512.825L528.7656 512.7Q528.6875 511.46564 528.09375 510.79376Q527.5 510.10626 526.46875 510.10626ZM537.3281 510.40314Q536.9531 510.34064 536.53125 510.34064Q534.9219 510.34064 534.3594 511.7L534.3594 518.45L532.7344 518.45L532.7344 508.9344L534.3125 508.9344L534.34375 510.04376Q535.1406 508.7625 536.6094 508.7625Q537.0781 508.7625 537.3281 508.8875L537.3281 510.40314ZM540.5 518.45L538.875 518.45L538.875 508.9344L540.5 508.9344L540.5 518.45ZM538.7344 506.41876Q538.7344 506.02814 538.96875 505.7625Q539.21875 505.48126 539.6875 505.48126Q540.1719 505.48126 540.4219 505.7625Q540.6719 506.02814 540.6719 506.41876Q540.6719 506.8094 540.4219 507.075Q540.1719 507.34064 539.6875 507.34064Q539.21875 507.34064 538.96875 507.075Q538.7344 506.8094 538.7344 506.41876ZM548.2656 515.9344Q548.2656 515.2625 547.7656 514.90314Q547.28125 514.54376 546.0469 514.27814Q544.8125 514.0125 544.0781 513.65314Q543.3594 513.27814 543.0 512.7625Q542.65625 512.2469 542.65625 511.54376Q542.65625 510.3875 543.6406 509.575Q544.6406 508.7625 546.1719 508.7625Q547.7969 508.7625 548.7969 509.60626Q549.8125 510.4344 549.8125 511.73126L548.1719 511.73126Q548.1719 511.0594 547.59375 510.59064Q547.03125 510.10626 546.1719 510.10626Q545.28125 510.10626 544.78125 510.4969Q544.28125 510.8719 544.28125 511.4969Q544.28125 512.09064 544.75 512.3875Q545.21875 512.6844 546.4375 512.96564Q547.65625 513.23126 548.40625 513.60626Q549.1719 513.98126 549.53125 514.5125Q549.8906 515.04376 549.8906 515.8094Q549.8906 517.09064 548.875 517.85626Q547.8594 518.6219 546.2344 518.6219Q545.09375 518.6219 544.2031 518.21564Q543.3281 517.8094 542.8281 517.09064Q542.3281 516.3719 542.3281 515.52814L543.96875 515.52814Q544.0 516.34064 544.6094 516.825Q545.2344 517.29376 546.2344 517.29376Q547.15625 517.29376 547.7031 516.91876Q548.2656 516.54376 548.2656 515.9344ZM553.9375 506.6375L553.9375 508.9344L555.71875 508.9344L555.71875 510.2L553.9375 510.2L553.9375 516.09064Q553.9375 516.66876 554.1719 516.95Q554.40625 517.23126 554.9844 517.23126Q555.2656 517.23126 555.75 517.1375L555.75 518.45Q555.1094 518.6219 554.5156 518.6219Q553.4219 518.6219 552.8594 517.96564Q552.3125 517.3094 552.3125 516.09064L552.3125 510.2L550.5781 510.2L550.5781 508.9344L552.3125 508.9344L552.3125 506.6375L553.9375 506.6375ZM559.5 518.45L557.875 518.45L557.875 508.9344L559.5 508.9344L559.5 518.45ZM557.7344 506.41876Q557.7344 506.02814 557.96875 505.7625Q558.21875 505.48126 558.6875 505.48126Q559.1719 505.48126 559.4219 505.7625Q559.6719 506.02814 559.6719 506.41876Q559.6719 506.8094 559.4219 507.075Q559.1719 507.34064 558.6875 507.34064Q558.21875 507.34064 557.96875 507.075Q557.7344 506.8094 557.7344 506.41876ZM565.5469 517.29376Q566.4219 517.29376 567.0625 516.77814Q567.71875 516.2469 567.78125 515.45L569.3281 515.45Q569.28125 516.2625 568.7656 517.0125Q568.25 517.7469 567.375 518.1844Q566.5156 518.6219 565.5469 518.6219Q563.6094 518.6219 562.4531 517.325Q561.3125 516.02814 561.3125 513.77814L561.3125 513.5125Q561.3125 512.1219 561.8125 511.04376Q562.3281 509.96564 563.28125 509.3719Q564.2344 508.7625 565.53125 508.7625Q567.1406 508.7625 568.1875 509.73126Q569.25 510.6844 569.3281 512.21564L567.78125 512.21564Q567.71875 511.29376 567.0781 510.7Q566.4531 510.10626 565.53125 510.10626Q564.2969 510.10626 563.6094 510.9969Q562.9375 511.8875 562.9375 513.575L562.9375 513.8719Q562.9375 515.52814 563.6094 516.41876Q564.28125 517.29376 565.5469 517.29376Z" fill-rule="nonzero"/><path fill="#273138" d="M44.55001 339.35522L44.55001 341.05835L34.690636 347.49585L44.55001 347.49585L44.55001 349.19897L31.753138 349.19897L31.753138 347.49585L41.659386 341.04272L31.753138 341.04272L31.753138 339.35522L44.55001 339.35522ZM43.61251 330.57397Q44.721886 331.5271 44.721886 333.37085Q44.721886 334.88647 43.846886 335.68335Q42.95626 336.48022 41.221886 336.48022L35.034386 336.48022L35.034386 334.85522L41.190636 334.85522Q43.346886 334.85522 43.346886 333.10522Q43.346886 331.24585 41.95626 330.62085L35.034386 330.62085L35.034386 328.99585L44.55001 328.99585L44.55001 330.54272L43.61251 330.57397ZM35.034386 324.91772L36.096886 324.88647Q34.86251 323.8396 34.86251 322.05835Q34.86251 320.05835 36.39376 319.3396Q35.70626 318.87085 35.284386 318.10522Q34.86251 317.3396 34.86251 316.30835Q34.86251 313.18335 38.17501 313.12085L44.55001 313.12085L44.55001 314.76147L38.26876 314.76147Q37.253136 314.76147 36.753136 315.23022Q36.23751 315.68335 36.23751 316.7771Q36.23751 317.68335 36.784386 318.29272Q37.33126 318.88647 38.23751 318.98022L44.55001 318.98022L44.55001 320.62085L38.315636 320.62085Q36.23751 320.62085 36.23751 322.6521Q36.23751 324.24585 37.61251 324.8396L44.55001 324.8396L44.55001 326.4646L35.034386 326.4646L35.034386 324.91772ZM39.89376 302.4021Q42.08126 302.4021 43.409386 303.4021Q44.721886 304.4021 44.721886 306.0896Q44.721886 307.9021 43.45626 308.88647L44.55001 308.9646L44.55001 310.44897L31.050013 310.44897L31.050013 308.82397L36.08126 308.82397Q34.86251 307.8396 34.86251 306.12085Q34.86251 304.38647 36.17501 303.4021Q37.48751 302.4021 39.753136 302.4021L39.89376 302.4021ZM39.721886 304.0271Q38.05001 304.0271 37.14376 304.66772Q36.23751 305.30835 36.23751 306.51147Q36.23751 308.12085 37.73751 308.82397L41.846886 308.82397Q43.346886 308.07397 43.346886 306.49585Q43.346886 305.32397 42.440636 304.68335Q41.534386 304.0271 39.721886 304.0271ZM44.721886 296.51147Q44.721886 298.43335 43.45626 299.6521Q42.190636 300.87085 40.065636 300.87085L39.753136 300.87085Q38.346886 300.87085 37.23751 300.32397Q36.128136 299.7771 35.503136 298.80835Q34.86251 297.8396 34.86251 296.7146Q34.86251 294.85522 36.08126 293.82397Q37.30001 292.79272 39.58126 292.79272L40.253136 292.79272L40.253136 299.24585Q41.659386 299.19897 42.534386 298.41772Q43.39376 297.63647 43.39376 296.41772Q43.39376 295.55835 43.05001 294.9646Q42.690636 294.35522 42.11251 293.91772L42.89376 292.91772Q44.721886 294.12085 44.721886 296.51147ZM36.20626 296.7146Q36.20626 297.69897 36.92501 298.37085Q37.628136 299.0271 38.92501 299.18335L38.92501 294.41772L38.80001 294.41772Q37.565636 294.49585 36.89376 295.0896Q36.20626 295.68335 36.20626 296.7146ZM36.503136 285.85522Q36.440636 286.23022 36.440636 286.6521Q36.440636 288.26147 37.80001 288.82397L44.55001 288.82397L44.55001 290.44897L35.034386 290.44897L35.034386 288.87085L36.14376 288.8396Q34.86251 288.04272 34.86251 286.57397Q34.86251 286.10522 34.98751 285.85522L36.503136 285.85522ZM39.70626 280.88647Q38.315636 280.88647 37.20626 280.3396Q36.08126 279.7771 35.471886 278.80835Q34.86251 277.82397 34.86251 276.57397Q34.86251 274.62085 36.20626 273.43335Q37.55001 272.23022 39.784386 272.23022L39.89376 272.23022Q41.284386 272.23022 42.39376 272.76147Q43.48751 273.29272 44.11251 274.2771Q44.721886 275.26147 44.721886 276.54272Q44.721886 278.48022 43.378136 279.68335Q42.034386 280.88647 39.815636 280.88647L39.70626 280.88647ZM39.89376 279.24585Q41.48751 279.24585 42.440636 278.51147Q43.39376 277.7771 43.39376 276.54272Q43.39376 275.30835 42.42501 274.5896Q41.45626 273.85522 39.70626 273.85522Q38.14376 273.85522 37.17501 274.60522Q36.20626 275.3396 36.20626 276.57397Q36.20626 277.7771 37.159386 278.51147Q38.11251 279.24585 39.89376 279.24585ZM44.55001 269.6521L36.30001 269.6521L36.30001 271.1521L35.034386 271.1521L35.034386 269.6521L34.065636 269.6521Q32.534386 269.6521 31.706263 268.8396Q30.862513 268.01147 30.862513 266.5271Q30.862513 265.9646 31.018763 265.4021L32.33126 265.49585Q32.253136 265.9021 32.253136 266.37085Q32.253136 267.16772 32.721886 267.60522Q33.17501 268.0271 34.034386 268.0271L35.034386 268.0271L35.034386 265.99585L36.30001 265.99585L36.30001 268.0271L44.55001 268.0271L44.55001 269.6521ZM44.55001 254.57396Q44.26876 254.71458 43.55001 254.80833Q44.721886 255.94896 44.721886 257.51147Q44.721886 258.91772 43.92501 259.82397Q43.128136 260.73022 41.909386 260.73022Q40.42501 260.73022 39.61251 259.60522Q38.784386 258.4646 38.784386 256.41772L38.784386 254.83958L38.034386 254.83958Q37.190636 254.83958 36.690636 255.35521Q36.17501 255.85521 36.17501 256.85522Q36.17501 257.7146 36.61251 258.30835Q37.05001 258.9021 37.67501 258.9021L37.67501 260.5271Q36.971886 260.5271 36.315636 260.0271Q35.64376 259.5271 35.253136 258.66772Q34.86251 257.79272 34.86251 256.74585Q34.86251 255.10521 35.690636 254.18333Q36.503136 253.24583 37.95626 253.21458L42.33126 253.21458Q43.628136 253.21458 44.409386 252.87083L44.55001 252.87083L44.55001 254.57396ZM43.315636 257.2771Q43.315636 256.51147 42.92501 255.82396Q42.51876 255.13646 41.89376 254.83958L39.940636 254.83958L39.940636 256.10522Q39.940636 259.10522 41.690636 259.10522Q42.45626 259.10522 42.89376 258.5896Q43.315636 258.07397 43.315636 257.2771ZM35.034386 248.91771L36.23751 248.85521Q34.86251 247.77708 34.86251 246.01146Q34.86251 242.99585 38.26876 242.98022L44.55001 242.98022L44.55001 244.60522L38.253136 244.60522Q37.221886 244.60522 36.73751 245.07397Q36.23751 245.5271 36.23751 246.51146Q36.23751 247.29271 36.659386 247.90208Q37.08126 248.49583 37.76876 248.82396L44.55001 248.82396L44.55001 250.44896L35.034386 250.44896L35.034386 248.91771ZM42.034386 234.91772Q41.36251 234.91772 41.003136 235.41772Q40.64376 235.9021 40.378136 237.13647Q40.11251 238.37085 39.753136 239.10522Q39.378136 239.82397 38.86251 240.18335Q38.346886 240.5271 37.64376 240.5271Q36.48751 240.5271 35.67501 239.54272Q34.86251 238.54272 34.86251 237.01147Q34.86251 235.38647 35.70626 234.38647Q36.534386 233.37085 37.83126 233.37085L37.83126 235.01147Q37.159386 235.01147 36.690636 235.5896Q36.20626 236.1521 36.20626 237.01147Q36.20626 237.9021 36.596886 238.4021Q36.971886 238.9021 37.596886 238.9021Q38.190636 238.9021 38.48751 238.43335Q38.784386 237.9646 39.065636 236.74585Q39.33126 235.5271 39.70626 234.7771Q40.08126 234.01147 40.61251 233.6521Q41.14376 233.29272 41.909386 233.29272Q43.190636 233.29272 43.95626 234.30835Q44.721886 235.32397 44.721886 236.94897Q44.721886 238.0896 44.315636 238.98022Q43.909386 239.85522 43.190636 240.35522Q42.471886 240.85522 41.628136 240.85522L41.628136 239.2146Q42.440636 239.18335 42.92501 238.57397Q43.39376 237.94897 43.39376 236.94897Q43.39376 236.0271 43.01876 235.48022Q42.64376 234.91772 42.034386 234.91772ZM42.315636 223.0271L35.034386 221.19897L35.034386 219.57397L44.55001 222.3396L44.55001 223.66772L37.346886 225.98022L44.55001 228.23022L44.55001 229.54272L35.034386 232.30835L35.034386 230.68335L42.159386 228.80835L35.034386 226.60522L35.034386 225.29272L42.315636 223.0271ZM44.721886 213.51147Q44.721886 215.43335 43.45626 216.6521Q42.190636 217.87085 40.065636 217.87085L39.753136 217.87085Q38.346886 217.87085 37.23751 217.32397Q36.128136 216.7771 35.503136 215.80835Q34.86251 214.8396 34.86251 213.7146Q34.86251 211.85522 36.08126 210.82397Q37.30001 209.79272 39.58126 209.79272L40.253136 209.79272L40.253136 216.24585Q41.659386 216.19897 42.534386 215.41772Q43.39376 214.63647 43.39376 213.41772Q43.39376 212.55835 43.05001 211.9646Q42.690636 211.35522 42.11251 210.91772L42.89376 209.91772Q44.721886 211.12085 44.721886 213.51147ZM36.20626 213.7146Q36.20626 214.69897 36.92501 215.37085Q37.628136 216.0271 38.92501 216.18335L38.92501 211.41772L38.80001 211.41772Q37.565636 211.49585 36.89376 212.0896Q36.20626 212.68335 36.20626 213.7146ZM36.503136 202.85522Q36.440636 203.23022 36.440636 203.6521Q36.440636 205.26147 37.80001 205.82397L44.55001 205.82397L44.55001 207.44897L35.034386 207.44897L35.034386 205.87085L36.14376 205.8396Q34.86251 205.04272 34.86251 203.57397Q34.86251 203.10522 34.98751 202.85522L36.503136 202.85522ZM42.034386 195.91772Q41.36251 195.91772 41.003136 196.41772Q40.64376 196.9021 40.378136 198.13647Q40.11251 199.37085 39.753136 200.10522Q39.378136 200.82397 38.86251 201.18335Q38.346886 201.5271 37.64376 201.5271Q36.48751 201.5271 35.67501 200.54272Q34.86251 199.54272 34.86251 198.01147Q34.86251 196.38647 35.70626 195.38647Q36.534386 194.37085 37.83126 194.37085L37.83126 196.01147Q37.159386 196.01147 36.690636 196.5896Q36.20626 197.1521 36.20626 198.01147Q36.20626 198.9021 36.596886 199.4021Q36.971886 199.9021 37.596886 199.9021Q38.190636 199.9021 38.48751 199.43335Q38.784386 198.9646 39.065636 197.74585Q39.33126 196.5271 39.70626 195.7771Q40.08126 195.01147 40.61251 194.6521Q41.14376 194.29272 41.909386 194.29272Q43.190636 194.29272 43.95626 195.30835Q44.721886 196.32397 44.721886 197.94897Q44.721886 199.0896 44.315636 199.98022Q43.909386 200.85522 43.190636 201.35522Q42.471886 201.85522 41.628136 201.85522L41.628136 200.2146Q42.440636 200.18335 42.92501 199.57397Q43.39376 198.94897 43.39376 197.94897Q43.39376 197.0271 43.01876 196.48022Q42.64376 195.91772 42.034386 195.91772Z" fill-rule="nonzero"/><path fill="#000000" d="M96.6125 454.3094Q96.6125 456.21564 95.95625 457.15314Q95.31563 458.075 93.925 458.075Q92.56563 458.075 91.90938 457.16876Q91.25313 456.2625 91.22188 454.45L91.22188 453.0125Q91.22188 451.1219 91.8625 450.21564Q92.51875 449.29376 93.90938 449.29376Q95.28438 449.29376 95.94063 450.1844Q96.59688 451.0594 96.6125 452.90314L96.6125 454.3094ZM95.51875 452.825Q95.51875 451.45 95.12813 450.825Q94.75313 450.1844 93.90938 450.1844Q93.08125 450.1844 92.69063 450.825Q92.31563 451.45 92.31563 452.7469L92.31563 454.48126Q92.31563 455.85626 92.70625 456.52814Q93.1125 457.1844 93.925 457.1844Q94.72188 457.1844 95.1125 456.5594Q95.50313 455.9344 95.51875 454.60626L95.51875 452.825Z" fill-rule="nonzero"/><path fill="#000000" d="M96.84688 363.94168L91.25313 363.94168L91.25313 363.16043L94.20625 359.87918Q94.8625 359.12918 95.1125 358.67606Q95.3625 358.2073 95.3625 357.7073Q95.3625 357.03543 94.95625 356.61356Q94.56563 356.17606 93.87813 356.17606Q93.08125 356.17606 92.62813 356.6448Q92.175 357.09793 92.175 357.92606L91.09688 357.92606Q91.09688 356.73856 91.84688 356.0198Q92.6125 355.28543 93.87813 355.28543Q95.08125 355.28543 95.76875 355.91043Q96.45625 356.53543 96.45625 357.5823Q96.45625 358.8323 94.84688 360.5823L92.56563 363.05106L96.84688 363.05106L96.84688 363.94168Z" fill-rule="nonzero"/><path fill="#000000" d="M95.83125 267.07394L97.01875 267.07394L97.01875 267.94894L95.83125 267.94894L95.83125 269.93332L94.75313 269.93332L94.75313 267.94894L90.8625 267.94894L90.8625 267.30832L94.675 261.40207L95.83125 261.40207L95.83125 267.07394ZM92.09688 267.07394L94.75313 267.07394L94.75313 262.88644L94.6125 263.12082L92.09688 267.07394Z" fill-rule="nonzero"/><path fill="#000000" d="M95.51875 167.39375L95.51875 168.3L95.31563 168.3Q94.05 168.33125 93.3 169.06563Q92.55 169.78438 92.425 171.09688Q93.1125 170.33125 94.26875 170.33125Q95.37813 170.33125 96.05 171.1125Q96.72188 171.89375 96.72188 173.14375Q96.72188 174.45625 96.00313 175.25313Q95.28438 176.05 94.06563 176.05Q92.84688 176.05 92.08125 175.1125Q91.33125 174.15938 91.33125 172.675L91.33125 172.26875Q91.33125 169.90938 92.33125 168.65938Q93.33125 167.40938 95.31563 167.39375L95.51875 167.39375ZM94.09688 171.2375Q93.53438 171.2375 93.06563 171.56563Q92.59688 171.89375 92.40938 172.40938L92.40938 172.8Q92.40938 173.8625 92.87813 174.50313Q93.3625 175.14375 94.06563 175.14375Q94.8 175.14375 95.22188 174.6125Q95.64375 174.06563 95.64375 173.19063Q95.64375 172.31563 95.22188 171.78438Q94.8 171.2375 94.09688 171.2375Z" fill-rule="nonzero"/><path fill="#000000" d="M96.44063 75.604164Q96.44063 76.24479 96.09688 76.74479Q95.75313 77.24479 95.19063 77.52604Q95.84688 77.80729 96.2375 78.36979Q96.62813 78.916664 96.62813 79.61979Q96.62813 80.71354 95.87813 81.385414Q95.14375 82.041664 93.925 82.041664Q92.69063 82.041664 91.94063 81.385414Q91.20625 80.71354 91.20625 79.61979Q91.20625 78.916664 91.58125 78.36979Q91.95625 77.80729 92.62813 77.52604Q92.06563 77.24479 91.7375 76.74479Q91.40938 76.24479 91.40938 75.604164Q91.40938 74.52604 92.09688 73.90104Q92.78438 73.260414 93.925 73.260414Q95.05 73.260414 95.7375 73.90104Q96.44063 74.52604 96.44063 75.604164ZM95.55 79.58854Q95.55 78.86979 95.09688 78.43229Q94.64375 77.979164 93.90938 77.979164Q93.175 77.979164 92.72188 78.43229Q92.28438 78.86979 92.28438 79.604164Q92.28438 80.322914 92.72188 80.74479Q93.15938 81.15104 93.925 81.15104Q94.675 81.15104 95.1125 80.729164Q95.55 80.30729 95.55 79.58854ZM93.925 74.15104Q93.28438 74.15104 92.87813 74.55729Q92.4875 74.947914 92.4875 75.635414Q92.4875 76.27604 92.87813 76.68229Q93.26875 77.08854 93.90938 77.08854Q94.56563 77.08854 94.95625 76.68229Q95.34688 76.27604 95.34688 75.635414Q95.34688 74.979164 94.94063 74.572914Q94.53438 74.15104 93.925 74.15104Z" fill-rule="nonzero"/><path fill="#000000" d="M174.36731 467.6844L170.77356 467.6844L170.77356 471.45L169.64856 471.45L169.64856 462.91876L174.94543 462.91876L174.94543 463.84064L170.77356 463.84064L170.77356 466.7625L174.36731 466.7625L174.36731 467.6844ZM179.55481 466.075Q179.30481 466.04376 179.02356 466.04376Q177.94543 466.04376 177.57043 466.95L177.57043 471.45L176.49231 471.45L176.49231 465.10626L177.53918 465.10626L177.55481 465.84064Q178.08606 464.9969 179.07043 464.9969Q179.38293 464.9969 179.55481 465.075L179.55481 466.075ZM183.11731 471.575Q181.82043 471.575 181.00793 470.73126Q180.21106 469.8719 180.21106 468.45L180.21106 468.2625Q180.21106 467.3094 180.57043 466.575Q180.92981 465.825 181.57043 465.41876Q182.22668 464.9969 182.97668 464.9969Q184.21106 464.9969 184.89856 465.8094Q185.58606 466.6219 185.58606 468.1375L185.58606 468.59064L181.28918 468.59064Q181.32043 469.52814 181.83606 470.10626Q182.36731 470.6844 183.17981 470.6844Q183.74231 470.6844 184.13293 470.45Q184.53918 470.21564 184.85168 469.825L185.50793 470.34064Q184.71106 471.575 183.11731 471.575ZM182.97668 465.8875Q182.32043 465.8875 181.86731 466.3719Q181.42981 466.84064 181.33606 467.7L184.50793 467.7L184.50793 467.6219Q184.46106 466.79376 184.05481 466.34064Q183.66418 465.8875 182.97668 465.8875ZM186.22668 468.23126Q186.22668 466.73126 186.89856 465.8719Q187.58606 464.9969 188.74231 464.9969Q189.86731 464.9969 190.52356 465.7469L190.57043 465.10626L191.57043 465.10626L191.57043 473.8875L190.47668 473.8875L190.47668 470.85626Q189.82043 471.575 188.74231 471.575Q187.58606 471.575 186.89856 470.6844Q186.22668 469.77814 186.22668 468.3094L186.22668 468.23126ZM187.30481 468.35626Q187.30481 469.4344 187.75793 470.0594Q188.22668 470.6844 189.00793 470.6844Q189.97668 470.6844 190.47668 469.825L190.47668 466.71564Q189.96106 465.8875 189.02356 465.8875Q188.22668 465.8875 187.75793 466.5125Q187.30481 467.1375 187.30481 468.35626ZM197.39856 470.825Q196.77356 471.575 195.53918 471.575Q194.52356 471.575 193.99231 470.98126Q193.46106 470.3875 193.46106 469.23126L193.46106 465.10626L194.53918 465.10626L194.53918 469.2Q194.53918 470.65314 195.71106 470.65314Q196.96106 470.65314 197.36731 469.71564L197.36731 465.10626L198.46106 465.10626L198.46106 471.45L197.42981 471.45L197.39856 470.825ZM203.11731 471.575Q201.82043 471.575 201.00793 470.73126Q200.21106 469.8719 200.21106 468.45L200.21106 468.2625Q200.21106 467.3094 200.57043 466.575Q200.92981 465.825 201.57043 465.41876Q202.22668 464.9969 202.97668 464.9969Q204.21106 464.9969 204.89856 465.8094Q205.58606 466.6219 205.58606 468.1375L205.58606 468.59064L201.28918 468.59064Q201.32043 469.52814 201.83606 470.10626Q202.36731 470.6844 203.17981 470.6844Q203.74231 470.6844 204.13293 470.45Q204.53918 470.21564 204.85168 469.825L205.50793 470.34064Q204.71106 471.575 203.11731 471.575ZM202.97668 465.8875Q202.32043 465.8875 201.86731 466.3719Q201.42981 466.84064 201.33606 467.7L204.50793 467.7L204.50793 467.6219Q204.46106 466.79376 204.05481 466.34064Q203.66418 465.8875 202.97668 465.8875ZM207.50793 465.10626L207.53918 465.90314Q208.27356 464.9969 209.44543 464.9969Q211.46106 464.9969 211.47668 467.2625L211.47668 471.45L210.38293 471.45L210.38293 467.2469Q210.38293 466.575 210.07043 466.2469Q209.77356 465.91876 209.11731 465.91876Q208.58606 465.91876 208.17981 466.2Q207.78918 466.48126 207.57043 466.9344L207.57043 471.45L206.49231 471.45L206.49231 465.10626L207.50793 465.10626ZM216.02356 470.6844Q216.60168 470.6844 217.03918 470.34064Q217.47668 469.98126 217.52356 469.45L218.55481 469.45Q218.52356 469.9969 218.16418 470.4969Q217.82043 470.98126 217.24231 471.27814Q216.67981 471.575 216.02356 471.575Q214.72668 471.575 213.96106 470.71564Q213.21106 469.84064 213.21106 468.34064L213.21106 468.15314Q213.21106 467.23126 213.53918 466.5125Q213.88293 465.79376 214.50793 465.40314Q215.14856 464.9969 216.02356 464.9969Q217.08606 464.9969 217.78918 465.6375Q218.50793 466.2625 218.55481 467.29376L217.52356 467.29376Q217.47668 466.66876 217.05481 466.27814Q216.63293 465.8875 216.02356 465.8875Q215.19543 465.8875 214.74231 466.48126Q214.28918 467.075 214.28918 468.2L214.28918 468.40314Q214.28918 469.4969 214.74231 470.09064Q215.19543 470.6844 216.02356 470.6844ZM221.55481 469.85626L223.03918 465.10626L224.19543 465.10626L221.64856 472.4344Q221.05481 474.0125 219.77356 474.0125L219.55481 473.9969L219.16418 473.91876L219.16418 473.04376L219.44543 473.0594Q220.00793 473.0594 220.30481 472.84064Q220.61731 472.6219 220.82043 472.02814L221.05481 471.3719L218.78918 465.10626L219.97668 465.10626L221.55481 469.85626ZM228.44543 467.98126Q228.44543 466.66876 228.78918 465.45Q229.14856 464.23126 229.85168 463.23126Q230.55481 462.23126 231.32043 461.825L231.53918 462.54376Q230.67981 463.2 230.13293 464.54376Q229.58606 465.8875 229.53918 467.5594L229.52356 468.0594Q229.52356 470.325 230.35168 471.98126Q230.85168 472.98126 231.53918 473.54376L231.32043 474.2Q230.53918 473.77814 229.82043 472.7469Q228.44543 470.7625 228.44543 467.98126ZM238.10168 469.95L239.32043 465.10626L240.39856 465.10626L238.55481 471.45L237.67981 471.45L236.13293 466.6375L234.63293 471.45L233.75793 471.45L231.91418 465.10626L232.99231 465.10626L234.24231 469.85626L235.72668 465.10626L236.58606 465.10626L238.10168 469.95ZM242.57043 465.8719Q243.28918 464.9969 244.44543 464.9969Q246.46106 464.9969 246.47668 467.2625L246.47668 471.45L245.38293 471.45L245.38293 467.2469Q245.38293 466.575 245.07043 466.2469Q244.77356 465.91876 244.11731 465.91876Q243.58606 465.91876 243.17981 466.2Q242.78918 466.48126 242.57043 466.9344L242.57043 471.45L241.49231 471.45L241.49231 462.45L242.57043 462.45L242.57043 465.8719ZM252.39856 471.45Q252.30481 471.2625 252.24231 470.77814Q251.49231 471.575 250.44543 471.575Q249.50793 471.575 248.89856 471.04376Q248.30481 470.5125 248.30481 469.6844Q248.30481 468.7 249.05481 468.15314Q249.80481 467.60626 251.17981 467.60626L252.22668 467.60626L252.22668 467.10626Q252.22668 466.54376 251.88293 466.21564Q251.55481 465.8719 250.88293 465.8719Q250.30481 465.8719 249.91418 466.16876Q249.52356 466.45 249.52356 466.8719L248.42981 466.8719Q248.42981 466.3875 248.75793 465.95Q249.10168 465.5125 249.67981 465.2625Q250.25793 464.9969 250.94543 464.9969Q252.05481 464.9969 252.66418 465.54376Q253.28918 466.09064 253.32043 467.04376L253.32043 469.96564Q253.32043 470.84064 253.53918 471.35626L253.53918 471.45L252.39856 471.45ZM250.60168 470.6219Q251.11731 470.6219 251.57043 470.35626Q252.02356 470.09064 252.22668 469.66876L252.22668 468.3719L251.38293 468.3719Q249.38293 468.3719 249.38293 469.54376Q249.38293 470.04376 249.72668 470.34064Q250.07043 470.6219 250.60168 470.6219ZM256.96106 463.575L256.96106 465.10626L258.13293 465.10626L258.13293 465.95L256.96106 465.95L256.96106 469.8719Q256.96106 470.2625 257.1173 470.45Q257.27356 470.6375 257.64856 470.6375Q257.83606 470.6375 258.16418 470.575L258.16418 471.45Q257.7423 471.575 257.33606 471.575Q256.6173 471.575 256.2423 471.1375Q255.86731 470.6844 255.86731 469.8719L255.86731 465.95L254.71106 465.95L254.71106 465.10626L255.86731 465.10626L255.86731 463.575L256.96106 463.575ZM263.28918 463.2469L263.1173 465.34064L262.46106 465.34064L262.46106 462.45L263.28918 462.45L263.28918 463.2469ZM264.8673 463.2469L264.69543 465.34064L264.03918 465.34064L264.0548 462.45L264.8673 462.45L264.8673 463.2469ZM267.96106 463.575L267.96106 465.10626L269.13293 465.10626L269.13293 465.95L267.96106 465.95L267.96106 469.8719Q267.96106 470.2625 268.1173 470.45Q268.27356 470.6375 268.64856 470.6375Q268.83606 470.6375 269.16418 470.575L269.16418 471.45Q268.7423 471.575 268.33606 471.575Q267.6173 471.575 267.2423 471.1375Q266.8673 470.6844 266.8673 469.8719L266.8673 465.95L265.71106 465.95L265.71106 465.10626L266.8673 465.10626L266.8673 463.575L267.96106 463.575ZM272.5548 469.85626L274.03918 465.10626L275.19543 465.10626L272.64856 472.4344Q272.0548 474.0125 270.77356 474.0125L270.5548 473.9969L270.16418 473.91876L270.16418 473.04376L270.44543 473.0594Q271.00793 473.0594 271.3048 472.84064Q271.6173 472.6219 271.82043 472.02814L272.0548 471.3719L269.78918 465.10626L270.97668 465.10626L272.5548 469.85626ZM281.83606 468.35626Q281.83606 469.79376 281.1798 470.6844Q280.52356 471.575 279.38293 471.575Q278.22668 471.575 277.57043 470.84064L277.57043 473.8875L276.4923 473.8875L276.4923 465.10626L277.47668 465.10626L277.52356 465.8094Q278.19543 464.9969 279.3673 464.9969Q280.50793 464.9969 281.16418 465.85626Q281.83606 466.71564 281.83606 468.2469L281.83606 468.35626ZM280.75793 468.23126Q280.75793 467.15314 280.28918 466.54376Q279.83606 465.91876 279.03918 465.91876Q278.0548 465.91876 277.57043 466.77814L277.57043 469.8094Q278.0548 470.6844 279.0548 470.6844Q279.83606 470.6844 280.28918 470.075Q280.75793 469.45 280.75793 468.23126ZM284.28918 463.2469L284.1173 465.34064L283.46106 465.34064L283.46106 462.45L284.28918 462.45L284.28918 463.2469ZM285.8673 463.2469L285.69543 465.34064L285.03918 465.34064L285.0548 462.45L285.8673 462.45L285.8673 463.2469ZM290.19543 468.21564Q290.19543 467.29376 290.5548 466.54376Q290.9298 465.79376 291.58606 465.40314Q292.2423 464.9969 293.07043 464.9969Q294.3673 464.9969 295.16418 465.8875Q295.97668 466.77814 295.97668 468.27814L295.97668 468.35626Q295.97668 469.27814 295.6173 470.0125Q295.25793 470.7469 294.60168 471.16876Q293.94543 471.575 293.08606 471.575Q291.8048 471.575 290.9923 470.6844Q290.19543 469.77814 290.19543 468.29376L290.19543 468.21564ZM291.28918 468.35626Q291.28918 469.40314 291.77356 470.04376Q292.27356 470.6844 293.08606 470.6844Q293.91418 470.6844 294.39856 470.04376Q294.88293 469.3875 294.88293 468.21564Q294.88293 467.1844 294.38293 466.54376Q293.89856 465.8875 293.07043 465.8875Q292.27356 465.8875 291.77356 466.52814Q291.28918 467.15314 291.28918 468.35626ZM298.02356 471.45L298.02356 465.95L297.02356 465.95L297.02356 465.10626L298.02356 465.10626L298.02356 464.46564Q298.02356 463.4344 298.5548 462.8875Q299.10168 462.325 300.10168 462.325Q300.47668 462.325 300.85168 462.41876L300.78918 463.3094Q300.50793 463.2469 300.21106 463.2469Q299.6798 463.2469 299.38293 463.5594Q299.10168 463.8719 299.10168 464.4344L299.10168 465.10626L300.46106 465.10626L300.46106 465.95L299.10168 465.95L299.10168 471.45L298.02356 471.45ZM308.1798 469.7625Q308.1798 469.325 307.83606 469.09064Q307.50793 468.84064 306.6798 468.66876Q305.8673 468.4969 305.38293 468.2469Q304.89856 467.9969 304.66418 467.66876Q304.44543 467.325 304.44543 466.85626Q304.44543 466.075 305.10168 465.54376Q305.75793 464.9969 306.78918 464.9969Q307.8673 464.9969 308.52356 465.5594Q309.19543 466.10626 309.19543 466.96564L308.1173 466.96564Q308.1173 466.52814 307.72668 466.21564Q307.35168 465.8875 306.78918 465.8875Q306.19543 465.8875 305.85168 466.15314Q305.52356 466.40314 305.52356 466.8094Q305.52356 467.2 305.83606 467.40314Q306.14856 467.60626 306.96106 467.79376Q307.77356 467.96564 308.27356 468.21564Q308.77356 468.46564 309.00793 468.825Q309.25793 469.1844 309.25793 469.6844Q309.25793 470.54376 308.57043 471.0594Q307.89856 471.575 306.82043 471.575Q306.0548 471.575 305.46106 471.3094Q304.88293 471.02814 304.5548 470.54376Q304.22668 470.0594 304.22668 469.4969L305.3048 469.4969Q305.33606 470.04376 305.7423 470.3719Q306.14856 470.6844 306.82043 470.6844Q307.4298 470.6844 307.8048 470.4344Q308.1798 470.1844 308.1798 469.7625ZM310.19543 468.21564Q310.19543 467.29376 310.5548 466.54376Q310.9298 465.79376 311.58606 465.40314Q312.2423 464.9969 313.07043 464.9969Q314.3673 464.9969 315.16418 465.8875Q315.97668 466.77814 315.97668 468.27814L315.97668 468.35626Q315.97668 469.27814 315.6173 470.0125Q315.25793 470.7469 314.60168 471.16876Q313.94543 471.575 313.08606 471.575Q311.8048 471.575 310.9923 470.6844Q310.19543 469.77814 310.19543 468.29376L310.19543 468.21564ZM311.28918 468.35626Q311.28918 469.40314 311.77356 470.04376Q312.27356 470.6844 313.08606 470.6844Q313.91418 470.6844 314.39856 470.04376Q314.88293 469.3875 314.88293 468.21564Q314.88293 467.1844 314.38293 466.54376Q313.89856 465.8875 313.07043 465.8875Q312.27356 465.8875 311.77356 466.52814Q311.28918 467.15314 311.28918 468.35626ZM321.39856 470.825Q320.77356 471.575 319.53918 471.575Q318.52356 471.575 317.9923 470.98126Q317.46106 470.3875 317.46106 469.23126L317.46106 465.10626L318.53918 465.10626L318.53918 469.2Q318.53918 470.65314 319.71106 470.65314Q320.96106 470.65314 321.3673 469.71564L321.3673 465.10626L322.46106 465.10626L322.46106 471.45L321.4298 471.45L321.39856 470.825ZM325.50793 465.10626L325.53918 465.90314Q326.27356 464.9969 327.44543 464.9969Q329.46106 464.9969 329.47668 467.2625L329.47668 471.45L328.38293 471.45L328.38293 467.2469Q328.38293 466.575 328.07043 466.2469Q327.77356 465.91876 327.1173 465.91876Q326.58606 465.91876 326.1798 466.2Q325.78918 466.48126 325.57043 466.9344L325.57043 471.45L324.4923 471.45L324.4923 465.10626L325.50793 465.10626ZM331.22668 468.23126Q331.22668 466.7625 331.91418 465.8875Q332.60168 464.9969 333.72668 464.9969Q334.83606 464.9969 335.4923 465.7469L335.4923 462.45L336.57043 462.45L336.57043 471.45L335.57043 471.45L335.52356 470.7625Q334.8673 471.575 333.71106 471.575Q332.6173 471.575 331.91418 470.66876Q331.22668 469.7625 331.22668 468.3094L331.22668 468.23126ZM332.3048 468.35626Q332.3048 469.4344 332.7423 470.04376Q333.19543 470.65314 333.97668 470.65314Q335.00793 470.65314 335.4923 469.71564L335.4923 466.8094Q335.00793 465.91876 333.9923 465.91876Q333.19543 465.91876 332.7423 466.52814Q332.3048 467.1375 332.3048 468.35626ZM343.9923 468.04376Q343.9923 469.35626 343.64856 470.5594Q343.3048 471.7469 342.58606 472.7625Q341.88293 473.77814 341.1173 474.2L340.88293 473.54376Q341.78918 472.85626 342.33606 471.40314Q342.88293 469.9344 342.89856 468.16876L342.89856 467.98126Q342.89856 466.7469 342.63293 465.6844Q342.38293 464.6219 341.91418 463.79376Q341.46106 462.95 340.88293 462.48126L341.1173 461.825Q341.88293 462.2469 342.58606 463.2469Q343.28918 464.2469 343.63293 465.46564Q343.9923 466.66876 343.9923 468.04376Z" fill-rule="nonzero"/><path fill="#000000" d="M460.48438 471.45L460.48438 462.91876L462.90625 462.91876Q464.01562 462.91876 464.85938 463.41876Q465.71875 463.90314 466.1875 464.8094Q466.65625 465.71564 466.65625 466.90314L466.65625 467.4344Q466.65625 468.65314 466.1875 469.5594Q465.73438 470.46564 464.85938 470.95Q464.0 471.4344 462.85938 471.45L460.48438 471.45ZM461.60938 463.84064L461.60938 470.52814L462.79688 470.52814Q464.09375 470.52814 464.8125 469.73126Q465.54688 468.91876 465.54688 467.41876L465.54688 466.91876Q465.54688 465.46564 464.85938 464.66876Q464.1875 463.85626 462.92188 463.84064L461.60938 463.84064ZM469.5 471.45L468.42188 471.45L468.42188 465.10626L469.5 465.10626L469.5 471.45ZM468.32812 463.4344Q468.32812 463.16876 468.48438 462.98126Q468.65625 462.79376 468.96875 462.79376Q469.28125 462.79376 469.4375 462.98126Q469.60938 463.16876 469.60938 463.4344Q469.60938 463.6844 469.4375 463.8719Q469.28125 464.04376 468.96875 464.04376Q468.65625 464.04376 468.48438 463.8719Q468.32812 463.6844 468.32812 463.4344ZM474.39062 466.075Q474.14062 466.04376 473.85938 466.04376Q472.78125 466.04376 472.40625 466.95L472.40625 471.45L471.32812 471.45L471.32812 465.10626L472.375 465.10626L472.39062 465.84064Q472.92188 464.9969 473.90625 464.9969Q474.21875 464.9969 474.39062 465.075L474.39062 466.075ZM477.95312 471.575Q476.65625 471.575 475.84375 470.73126Q475.04688 469.8719 475.04688 468.45L475.04688 468.2625Q475.04688 467.3094 475.40625 466.575Q475.76562 465.825 476.40625 465.41876Q477.0625 464.9969 477.8125 464.9969Q479.04688 464.9969 479.73438 465.8094Q480.42188 466.6219 480.42188 468.1375L480.42188 468.59064L476.125 468.59064Q476.15625 469.52814 476.67188 470.10626Q477.20312 470.6844 478.01562 470.6844Q478.57812 470.6844 478.96875 470.45Q479.375 470.21564 479.6875 469.825L480.34375 470.34064Q479.54688 471.575 477.95312 471.575ZM477.8125 465.8875Q477.15625 465.8875 476.70312 466.3719Q476.26562 466.84064 476.17188 467.7L479.34375 467.7L479.34375 467.6219Q479.29688 466.79376 478.89062 466.34064Q478.5 465.8875 477.8125 465.8875ZM483.85938 470.6844Q484.4375 470.6844 484.875 470.34064Q485.3125 469.98126 485.35938 469.45L486.39062 469.45Q486.35938 469.9969 486.0 470.4969Q485.65625 470.98126 485.07812 471.27814Q484.51562 471.575 483.85938 471.575Q482.5625 471.575 481.79688 470.71564Q481.04688 469.84064 481.04688 468.34064L481.04688 468.15314Q481.04688 467.23126 481.375 466.5125Q481.71875 465.79376 482.34375 465.40314Q482.98438 464.9969 483.85938 464.9969Q484.92188 464.9969 485.625 465.6375Q486.34375 466.2625 486.39062 467.29376L485.35938 467.29376Q485.3125 466.66876 484.89062 466.27814Q484.46875 465.8875 483.85938 465.8875Q483.03125 465.8875 482.57812 466.48126Q482.125 467.075 482.125 468.2L482.125 468.40314Q482.125 469.4969 482.57812 470.09064Q483.03125 470.6844 483.85938 470.6844ZM488.79688 463.575L488.79688 465.10626L489.96875 465.10626L489.96875 465.95L488.79688 465.95L488.79688 469.8719Q488.79688 470.2625 488.95312 470.45Q489.10938 470.6375 489.48438 470.6375Q489.67188 470.6375 490.0 470.575L490.0 471.45Q489.57812 471.575 489.17188 471.575Q488.45312 471.575 488.07812 471.1375Q487.70312 470.6844 487.70312 469.8719L487.70312 465.95L486.54688 465.95L486.54688 465.10626L487.70312 465.10626L487.70312 463.575L488.79688 463.575ZM492.5 471.45L491.42188 471.45L491.42188 465.10626L492.5 465.10626L492.5 471.45ZM491.32812 463.4344Q491.32812 463.16876 491.48438 462.98126Q491.65625 462.79376 491.96875 462.79376Q492.28125 462.79376 492.4375 462.98126Q492.60938 463.16876 492.60938 463.4344Q492.60938 463.6844 492.4375 463.8719Q492.28125 464.04376 491.96875 464.04376Q491.65625 464.04376 491.48438 463.8719Q491.32812 463.6844 491.32812 463.4344ZM494.03125 468.21564Q494.03125 467.29376 494.39062 466.54376Q494.76562 465.79376 495.42188 465.40314Q496.07812 464.9969 496.90625 464.9969Q498.20312 464.9969 499.0 465.8875Q499.8125 466.77814 499.8125 468.27814L499.8125 468.35626Q499.8125 469.27814 499.45312 470.0125Q499.09375 470.7469 498.4375 471.16876Q497.78125 471.575 496.92188 471.575Q495.64062 471.575 494.82812 470.6844Q494.03125 469.77814 494.03125 468.29376L494.03125 468.21564ZM495.125 468.35626Q495.125 469.40314 495.60938 470.04376Q496.10938 470.6844 496.92188 470.6844Q497.75 470.6844 498.23438 470.04376Q498.71875 469.3875 498.71875 468.21564Q498.71875 467.1844 498.21875 466.54376Q497.73438 465.8875 496.90625 465.8875Q496.10938 465.8875 495.60938 466.52814Q495.125 467.15314 495.125 468.35626ZM502.34375 465.10626L502.375 465.90314Q503.10938 464.9969 504.28125 464.9969Q506.29688 464.9969 506.3125 467.2625L506.3125 471.45L505.21875 471.45L505.21875 467.2469Q505.21875 466.575 504.90625 466.2469Q504.60938 465.91876 503.95312 465.91876Q503.42188 465.91876 503.01562 466.2Q502.625 466.48126 502.40625 466.9344L502.40625 471.45L501.32812 471.45L501.32812 465.10626L502.34375 465.10626Z" fill-rule="nonzero"/><path fill="#000000" d="M693.1483 469.95L695.5858 462.91876L696.8202 462.91876L693.6483 471.45L692.66394 471.45L689.5077 462.91876L690.72644 462.91876L693.1483 469.95ZM697.86707 468.21564Q697.86707 467.29376 698.22644 466.54376Q698.60144 465.79376 699.2577 465.40314Q699.91394 464.9969 700.74207 464.9969Q702.03894 464.9969 702.8358 465.8875Q703.6483 466.77814 703.6483 468.27814L703.6483 468.35626Q703.6483 469.27814 703.28894 470.0125Q702.92957 470.7469 702.2733 471.16876Q701.61707 471.575 700.7577 471.575Q699.47644 471.575 698.66394 470.6844Q697.86707 469.77814 697.86707 468.29376L697.86707 468.21564ZM698.9608 468.35626Q698.9608 469.40314 699.4452 470.04376Q699.9452 470.6844 700.7577 470.6844Q701.5858 470.6844 702.0702 470.04376Q702.55457 469.3875 702.55457 468.21564Q702.55457 467.1844 702.05457 466.54376Q701.5702 465.8875 700.74207 465.8875Q699.9452 465.8875 699.4452 466.52814Q698.9608 467.15314 698.9608 468.35626ZM706.3358 471.45L705.2577 471.45L705.2577 462.45L706.3358 462.45L706.3358 471.45ZM712.0702 470.825Q711.4452 471.575 710.2108 471.575Q709.1952 471.575 708.66394 470.98126Q708.1327 470.3875 708.1327 469.23126L708.1327 465.10626L709.2108 465.10626L709.2108 469.2Q709.2108 470.65314 710.3827 470.65314Q711.6327 470.65314 712.03894 469.71564L712.03894 465.10626L713.1327 465.10626L713.1327 471.45L712.10144 471.45L712.0702 470.825ZM716.17957 465.10626L716.2108 465.8094Q716.8983 464.9969 718.0858 464.9969Q719.41394 464.9969 719.8983 466.0125Q720.2108 465.5594 720.7108 465.27814Q721.22644 464.9969 721.91394 464.9969Q724.0077 464.9969 724.03894 467.2L724.03894 471.45L722.9608 471.45L722.9608 467.2625Q722.9608 466.59064 722.6483 466.2625Q722.3358 465.91876 721.60144 465.91876Q720.99207 465.91876 720.5858 466.27814Q720.1952 466.6375 720.1327 467.2469L720.1327 471.45L719.05457 471.45L719.05457 467.29376Q719.05457 465.91876 717.6952 465.91876Q716.6327 465.91876 716.24207 466.825L716.24207 471.45L715.1483 471.45L715.1483 465.10626L716.17957 465.10626ZM728.78894 471.575Q727.49207 471.575 726.67957 470.73126Q725.8827 469.8719 725.8827 468.45L725.8827 468.2625Q725.8827 467.3094 726.24207 466.575Q726.60144 465.825 727.24207 465.41876Q727.8983 464.9969 728.6483 464.9969Q729.8827 464.9969 730.5702 465.8094Q731.2577 466.6219 731.2577 468.1375L731.2577 468.59064L726.9608 468.59064Q726.99207 469.52814 727.5077 470.10626Q728.03894 470.6844 728.85144 470.6844Q729.41394 470.6844 729.80457 470.45Q730.2108 470.21564 730.5233 469.825L731.17957 470.34064Q730.3827 471.575 728.78894 471.575ZM728.6483 465.8875Q727.99207 465.8875 727.53894 466.3719Q727.10144 466.84064 727.0077 467.7L730.17957 467.7L730.17957 467.6219Q730.1327 466.79376 729.72644 466.34064Q729.3358 465.8875 728.6483 465.8875Z" fill-rule="nonzero"/><path fill="#273138" d="M30.253124 32.878124L29.95625 36.378124L28.878124 36.378124L28.89375 31.55L30.253124 31.55L30.253124 32.878124ZM32.89375 32.878124L32.596874 36.378124L31.51875 36.378124L31.51875 31.55L32.89375 31.55L32.89375 32.878124ZM38.26875 42.065624L38.534374 43.940624L38.940624 42.253124L41.753124 32.33125L43.33125 32.33125L46.08125 42.253124L46.471874 43.971874L46.76875 42.05L48.9875 32.33125L50.8625 32.33125L47.425 46.55L45.70625 46.55L42.784374 36.190624L42.55 35.096874L42.33125 36.190624L39.3 46.55L37.58125 46.55L34.14375 32.33125L36.01875 32.33125L38.26875 42.065624ZM54.721874 37.26875Q55.925 35.784374 57.846874 35.784374Q61.20625 35.784374 61.221874 39.565624L61.221874 46.55L59.425 46.55L59.425 39.55Q59.409374 38.409374 58.89375 37.8625Q58.39375 37.315624 57.3 37.315624Q56.425 37.315624 55.753124 37.784374Q55.096874 38.253124 54.721874 39.01875L54.721874 46.55L52.925 46.55L52.925 31.55L54.721874 31.55L54.721874 37.26875ZM65.87813 46.55L64.08125 46.55L64.08125 35.9875L65.87813 35.9875L65.87813 46.55ZM63.925 33.175Q63.925 32.7375 64.19063 32.440624Q64.47188 32.128124 64.9875 32.128124Q65.51875 32.128124 65.78438 32.440624Q66.06563 32.7375 66.06563 33.175Q66.06563 33.6125 65.78438 33.909374Q65.51875 34.20625 64.9875 34.20625Q64.47188 34.20625 64.19063 33.909374Q63.925 33.6125 63.925 33.175ZM73.15938 45.26875Q74.12813 45.26875 74.84688 44.690624Q75.56563 44.096874 75.64375 43.221874L77.3625 43.221874Q77.3 44.128124 76.72188 44.95625Q76.15938 45.76875 75.19063 46.26875Q74.2375 46.753124 73.15938 46.753124Q71.00313 46.753124 69.72188 45.315624Q68.45625 43.8625 68.45625 41.3625L68.45625 41.065624Q68.45625 39.51875 69.01875 38.315624Q69.58125 37.1125 70.64375 36.45625Q71.70625 35.784374 73.14375 35.784374Q74.925 35.784374 76.09688 36.846874Q77.28438 37.909374 77.3625 39.6125L75.64375 39.6125Q75.56563 38.596874 74.8625 37.940624Q74.175 37.26875 73.14375 37.26875Q71.76875 37.26875 71.00313 38.26875Q70.25313 39.253124 70.25313 41.128124L70.25313 41.471874Q70.25313 43.3 71.00313 44.284374Q71.75313 45.26875 73.15938 45.26875ZM80.72188 37.26875Q81.925 35.784374 83.84688 35.784374Q87.20625 35.784374 87.22188 39.565624L87.22188 46.55L85.425 46.55L85.425 39.55Q85.40938 38.409374 84.89375 37.8625Q84.39375 37.315624 83.3 37.315624Q82.425 37.315624 81.75313 37.784374Q81.09688 38.253124 80.72188 39.01875L80.72188 46.55L78.925 46.55L78.925 31.55L80.72188 31.55L80.72188 37.26875ZM101.06563 43.753124Q101.06563 43.01875 100.51875 42.6125Q99.97188 42.20625 98.59688 41.909374Q97.22188 41.6125 96.40938 41.20625Q95.6125 40.8 95.22188 40.2375Q94.84688 39.659374 94.84688 38.878124Q94.84688 37.58125 95.94063 36.690624Q97.03438 35.784374 98.75313 35.784374Q100.55 35.784374 101.65938 36.721874Q102.78438 37.64375 102.78438 39.08125L100.95625 39.08125Q100.95625 38.346874 100.33125 37.815624Q99.70625 37.26875 98.75313 37.26875Q97.75313 37.26875 97.19063 37.70625Q96.64375 38.128124 96.64375 38.83125Q96.64375 39.471874 97.15938 39.815624Q97.675 40.14375 99.03438 40.45625Q100.39375 40.753124 101.22188 41.175Q102.06563 41.58125 102.47188 42.175Q102.87813 42.76875 102.87813 43.6125Q102.87813 45.034374 101.7375 45.89375Q100.6125 46.753124 98.8 46.753124Q97.53438 46.753124 96.55 46.3Q95.58125 45.846874 95.01875 45.05Q94.47188 44.2375 94.47188 43.3L96.28438 43.3Q96.33125 44.20625 97.00313 44.7375Q97.69063 45.26875 98.8 45.26875Q99.83125 45.26875 100.44063 44.8625Q101.06563 44.440624 101.06563 43.753124ZM104.44063 41.175Q104.44063 39.6125 105.05 38.378124Q105.65938 37.128124 106.7375 36.45625Q107.83125 35.784374 109.2375 35.784374Q111.39375 35.784374 112.72188 37.284374Q114.06563 38.76875 114.06563 41.253124L114.06563 41.378124Q114.06563 42.925 113.47188 44.159374Q112.87813 45.378124 111.76875 46.065624Q110.675 46.753124 109.25313 46.753124Q107.1125 46.753124 105.76875 45.253124Q104.44063 43.753124 104.44063 41.3L104.44063 41.175ZM106.25313 41.378124Q106.25313 43.14375 107.06563 44.20625Q107.89375 45.26875 109.25313 45.26875Q110.62813 45.26875 111.44063 44.190624Q112.25313 43.1125 112.25313 41.175Q112.25313 39.425 111.425 38.346874Q110.59688 37.26875 109.2375 37.26875Q107.89375 37.26875 107.06563 38.33125Q106.25313 39.39375 106.25313 41.378124ZM122.44063 45.503124Q121.39375 46.753124 119.34688 46.753124Q117.65938 46.753124 116.76875 45.76875Q115.89375 44.784374 115.87813 42.8625L115.87813 35.9875L117.69063 35.9875L117.69063 42.815624Q117.69063 45.20625 119.64375 45.20625Q121.70625 45.20625 122.39375 43.675L122.39375 35.9875L124.20625 35.9875L124.20625 46.55L122.4875 46.55L122.44063 45.503124ZM128.62813 35.9875L128.69063 37.315624Q129.89375 35.784374 131.84688 35.784374Q135.20625 35.784374 135.22188 39.565624L135.22188 46.55L133.425 46.55L133.425 39.55Q133.40938 38.409374 132.89375 37.8625Q132.39375 37.315624 131.3 37.315624Q130.425 37.315624 129.75313 37.784374Q129.09688 38.253124 128.72188 39.01875L128.72188 46.55L126.925 46.55L126.925 35.9875L128.62813 35.9875ZM137.47188 41.175Q137.47188 38.753124 138.62813 37.26875Q139.78438 35.784374 141.64375 35.784374Q143.50313 35.784374 144.58125 37.05L144.58125 31.55L146.39375 31.55L146.39375 46.55L144.7375 46.55L144.64375 45.409374Q143.56563 46.753124 141.62813 46.753124Q139.8 46.753124 138.62813 45.253124Q137.47188 43.7375 137.47188 41.315624L137.47188 41.175ZM139.28438 41.378124Q139.28438 43.175 140.01875 44.190624Q140.76875 45.20625 142.08125 45.20625Q143.8 45.20625 144.58125 43.675L144.58125 38.815624Q143.78438 37.315624 142.09688 37.315624Q140.76875 37.315624 140.01875 38.346874Q139.28438 39.378124 139.28438 41.378124ZM158.15938 45.26875Q159.12813 45.26875 159.84688 44.690624Q160.56563 44.096874 160.64375 43.221874L162.3625 43.221874Q162.3 44.128124 161.72188 44.95625Q161.15938 45.76875 160.19063 46.26875Q159.2375 46.753124 158.15938 46.753124Q156.00313 46.753124 154.72188 45.315624Q153.45625 43.8625 153.45625 41.3625L153.45625 41.065624Q153.45625 39.51875 154.01875 38.315624Q154.58125 37.1125 155.64375 36.45625Q156.70625 35.784374 158.14375 35.784374Q159.925 35.784374 161.09688 36.846874Q162.28438 37.909374 162.3625 39.6125L160.64375 39.6125Q160.56563 38.596874 159.8625 37.940624Q159.175 37.26875 158.14375 37.26875Q156.76875 37.26875 156.00313 38.26875Q155.25313 39.253124 155.25313 41.128124L155.25313 41.471874Q155.25313 43.3 156.00313 44.284374Q156.75313 45.26875 158.15938 45.26875ZM165.72188 37.26875Q166.925 35.784374 168.84688 35.784374Q172.20625 35.784374 172.22188 39.565624L172.22188 46.55L170.425 46.55L170.425 39.55Q170.40938 38.409374 169.89375 37.8625Q169.39375 37.315624 168.3 37.315624Q167.425 37.315624 166.75313 37.784374Q166.09688 38.253124 165.72188 39.01875L165.72188 46.55L163.925 46.55L163.925 31.55L165.72188 31.55L165.72188 37.26875ZM181.44063 46.55Q181.28438 46.2375 181.19063 45.440624Q179.925 46.753124 178.175 46.753124Q176.6125 46.753124 175.6125 45.8625Q174.6125 44.971874 174.6125 43.6125Q174.6125 41.971874 175.8625 41.065624Q177.12813 40.14375 179.39375 40.14375L181.15938 40.14375L181.15938 39.315624Q181.15938 38.3625 180.58125 37.8Q180.01875 37.2375 178.925 37.2375Q177.95625 37.2375 177.3 37.7375Q176.64375 38.221874 176.64375 38.909374L174.83125 38.909374Q174.83125 38.128124 175.39375 37.39375Q175.95625 36.64375 176.90938 36.221874Q177.87813 35.784374 179.03438 35.784374Q180.8625 35.784374 181.89375 36.70625Q182.925 37.6125 182.97188 39.221874L182.97188 44.08125Q182.97188 45.534374 183.33125 46.39375L183.33125 46.55L181.44063 46.55ZM178.44063 45.175Q179.3 45.175 180.05 44.7375Q180.81563 44.3 181.15938 43.596874L181.15938 41.425L179.7375 41.425Q176.425 41.425 176.425 43.3625Q176.425 44.221874 176.9875 44.70625Q177.55 45.175 178.44063 45.175ZM191.01875 37.596874Q190.6125 37.534374 190.14375 37.534374Q188.3625 37.534374 187.72188 39.05L187.72188 46.55L185.925 46.55L185.925 35.9875L187.675 35.9875L187.70625 37.20625Q188.59688 35.784374 190.22188 35.784374Q190.75313 35.784374 191.01875 35.925L191.01875 37.596874ZM199.44063 46.55Q199.28438 46.2375 199.19063 45.440624Q197.925 46.753124 196.175 46.753124Q194.6125 46.753124 193.6125 45.8625Q192.6125 44.971874 192.6125 43.6125Q192.6125 41.971874 193.8625 41.065624Q195.12813 40.14375 197.39375 40.14375L199.15938 40.14375L199.15938 39.315624Q199.15938 38.3625 198.58125 37.8Q198.01875 37.2375 196.925 37.2375Q195.95625 37.2375 195.3 37.7375Q194.64375 38.221874 194.64375 38.909374L192.83125 38.909374Q192.83125 38.128124 193.39375 37.39375Q193.95625 36.64375 194.90938 36.221874Q195.87813 35.784374 197.03438 35.784374Q198.8625 35.784374 199.89375 36.70625Q200.925 37.6125 200.97188 39.221874L200.97188 44.08125Q200.97188 45.534374 201.33125 46.39375L201.33125 46.55L199.44063 46.55ZM196.44063 45.175Q197.3 45.175 198.05 44.7375Q198.81563 44.3 199.15938 43.596874L199.15938 41.425L197.7375 41.425Q194.425 41.425 194.425 43.3625Q194.425 44.221874 194.9875 44.70625Q195.55 45.175 196.44063 45.175ZM208.15938 45.26875Q209.12813 45.26875 209.84688 44.690624Q210.56563 44.096874 210.64375 43.221874L212.3625 43.221874Q212.3 44.128124 211.72188 44.95625Q211.15938 45.76875 210.19063 46.26875Q209.2375 46.753124 208.15938 46.753124Q206.00313 46.753124 204.72188 45.315624Q203.45625 43.8625 203.45625 41.3625L203.45625 41.065624Q203.45625 39.51875 204.01875 38.315624Q204.58125 37.1125 205.64375 36.45625Q206.70625 35.784374 208.14375 35.784374Q209.925 35.784374 211.09688 36.846874Q212.28438 37.909374 212.3625 39.6125L210.64375 39.6125Q210.56563 38.596874 209.8625 37.940624Q209.175 37.26875 208.14375 37.26875Q206.76875 37.26875 206.00313 38.26875Q205.25313 39.253124 205.25313 41.128124L205.25313 41.471874Q205.25313 43.3 206.00313 44.284374Q206.75313 45.26875 208.15938 45.26875ZM216.3625 33.425L216.3625 35.9875L218.34688 35.9875L218.34688 37.378124L216.3625 37.378124L216.3625 43.925Q216.3625 44.565624 216.62813 44.89375Q216.89375 45.20625 217.53438 45.20625Q217.84688 45.20625 218.39375 45.08125L218.39375 46.55Q217.675 46.753124 217.00313 46.753124Q215.8 46.753124 215.175 46.01875Q214.56563 45.284374 214.56563 43.925L214.56563 37.378124L212.64375 37.378124L212.64375 35.9875L214.56563 35.9875L214.56563 33.425L216.3625 33.425ZM225.3 46.753124Q223.15938 46.753124 221.8 45.346874Q220.45625 43.925 220.45625 41.565624L220.45625 41.221874Q220.45625 39.659374 221.05 38.425Q221.65938 37.190624 222.7375 36.4875Q223.81563 35.784374 225.08125 35.784374Q227.14375 35.784374 228.28438 37.14375Q229.425 38.503124 229.425 41.034374L229.425 41.784374L222.26875 41.784374Q222.3 43.346874 223.175 44.315624Q224.05 45.26875 225.39375 45.26875Q226.3625 45.26875 227.01875 44.878124Q227.69063 44.4875 228.19063 43.846874L229.28438 44.70625Q227.95625 46.753124 225.3 46.753124ZM225.08125 37.26875Q223.9875 37.26875 223.2375 38.065624Q222.50313 38.8625 222.33125 40.3L227.6125 40.3L227.6125 40.159374Q227.53438 38.784374 226.8625 38.034374Q226.20625 37.26875 225.08125 37.26875ZM237.01875 37.596874Q236.6125 37.534374 236.14375 37.534374Q234.3625 37.534374 233.72188 39.05L233.72188 46.55L231.925 46.55L231.925 35.9875L233.675 35.9875L233.70625 37.20625Q234.59688 35.784374 236.22188 35.784374Q236.75313 35.784374 237.01875 35.925L237.01875 37.596874ZM240.87813 46.55L239.08125 46.55L239.08125 35.9875L240.87813 35.9875L240.87813 46.55ZM238.925 33.175Q238.925 32.7375 239.19063 32.440624Q239.47188 32.128124 239.9875 32.128124Q240.51875 32.128124 240.78438 32.440624Q241.06563 32.7375 241.06563 33.175Q241.06563 33.6125 240.78438 33.909374Q240.51875 34.20625 239.9875 34.20625Q239.47188 34.20625 239.19063 33.909374Q238.925 33.6125 238.925 33.175ZM250.06563 43.753124Q250.06563 43.01875 249.51875 42.6125Q248.97188 42.20625 247.59688 41.909374Q246.22188 41.6125 245.40938 41.20625Q244.6125 40.8 244.22188 40.2375Q243.84688 39.659374 243.84688 38.878124Q243.84688 37.58125 244.94063 36.690624Q246.03438 35.784374 247.75313 35.784374Q249.55 35.784374 250.65938 36.721874Q251.78438 37.64375 251.78438 39.08125L249.95625 39.08125Q249.95625 38.346874 249.33125 37.815624Q248.70625 37.26875 247.75313 37.26875Q246.75313 37.26875 246.19063 37.70625Q245.64375 38.128124 245.64375 38.83125Q245.64375 39.471874 246.15938 39.815624Q246.675 40.14375 248.03438 40.45625Q249.39375 40.753124 250.22188 41.175Q251.06563 41.58125 251.47188 42.175Q251.87813 42.76875 251.87813 43.6125Q251.87813 45.034374 250.7375 45.89375Q249.6125 46.753124 247.8 46.753124Q246.53438 46.753124 245.55 46.3Q244.58125 45.846874 244.01875 45.05Q243.47188 44.2375 243.47188 43.3L245.28438 43.3Q245.33125 44.20625 246.00313 44.7375Q246.69063 45.26875 247.8 45.26875Q248.83125 45.26875 249.44063 44.8625Q250.06563 44.440624 250.06563 43.753124ZM256.3625 33.425L256.3625 35.9875L258.34686 35.9875L258.34686 37.378124L256.3625 37.378124L256.3625 43.925Q256.3625 44.565624 256.6281 44.89375Q256.89374 45.20625 257.53436 45.20625Q257.84686 45.20625 258.39374 45.08125L258.39374 46.55Q257.675 46.753124 257.0031 46.753124Q255.8 46.753124 255.175 46.01875Q254.56563 45.284374 254.56563 43.925L254.56563 37.378124L252.64375 37.378124L252.64375 35.9875L254.56563 35.9875L254.56563 33.425L256.3625 33.425ZM262.8781 46.55L261.08124 46.55L261.08124 35.9875L262.8781 35.9875L262.8781 46.55ZM260.925 33.175Q260.925 32.7375 261.1906 32.440624Q261.47186 32.128124 261.9875 32.128124Q262.51874 32.128124 262.78436 32.440624Q263.0656 32.7375 263.0656 33.175Q263.0656 33.6125 262.78436 33.909374Q262.51874 34.20625 261.9875 34.20625Q261.47186 34.20625 261.1906 33.909374Q260.925 33.6125 260.925 33.175ZM270.15936 45.26875Q271.1281 45.26875 271.84686 44.690624Q272.5656 44.096874 272.64374 43.221874L274.3625 43.221874Q274.3 44.128124 273.72186 44.95625Q273.15936 45.76875 272.1906 46.26875Q271.2375 46.753124 270.15936 46.753124Q268.0031 46.753124 266.72186 45.315624Q265.45624 43.8625 265.45624 41.3625L265.45624 41.065624Q265.45624 39.51875 266.01874 38.315624Q266.58124 37.1125 267.64374 36.45625Q268.70624 35.784374 270.14374 35.784374Q271.925 35.784374 273.09686 36.846874Q274.28436 37.909374 274.3625 39.6125L272.64374 39.6125Q272.5656 38.596874 271.8625 37.940624Q271.175 37.26875 270.14374 37.26875Q268.76874 37.26875 268.0031 38.26875Q267.2531 39.253124 267.2531 41.128124L267.2531 41.471874Q267.2531 43.3 268.0031 44.284374Q268.7531 45.26875 270.15936 45.26875ZM282.0656 43.753124Q282.0656 43.01875 281.51874 42.6125Q280.97186 42.20625 279.59686 41.909374Q278.22186 41.6125 277.40936 41.20625Q276.6125 40.8 276.22186 40.2375Q275.84686 39.659374 275.84686 38.878124Q275.84686 37.58125 276.9406 36.690624Q278.03436 35.784374 279.7531 35.784374Q281.55 35.784374 282.65936 36.721874Q283.78436 37.64375 283.78436 39.08125L281.95624 39.08125Q281.95624 38.346874 281.33124 37.815624Q280.70624 37.26875 279.7531 37.26875Q278.7531 37.26875 278.1906 37.70625Q277.64374 38.128124 277.64374 38.83125Q277.64374 39.471874 278.15936 39.815624Q278.675 40.14375 280.03436 40.45625Q281.39374 40.753124 282.22186 41.175Q283.0656 41.58125 283.47186 42.175Q283.8781 42.76875 283.8781 43.6125Q283.8781 45.034374 282.7375 45.89375Q281.6125 46.753124 279.8 46.753124Q278.53436 46.753124 277.55 46.3Q276.58124 45.846874 276.01874 45.05Q275.47186 44.2375 275.47186 43.3L277.28436 43.3Q277.33124 44.20625 278.0031 44.7375Q278.6906 45.26875 279.8 45.26875Q280.83124 45.26875 281.4406 44.8625Q282.0656 44.440624 282.0656 43.753124ZM290.47186 41.175Q290.47186 38.753124 291.6281 37.26875Q292.78436 35.784374 294.64374 35.784374Q296.5031 35.784374 297.58124 37.05L297.58124 31.55L299.39374 31.55L299.39374 46.55L297.7375 46.55L297.64374 45.409374Q296.5656 46.753124 294.6281 46.753124Q292.8 46.753124 291.6281 45.253124Q290.47186 43.7375 290.47186 41.315624L290.47186 41.175ZM292.28436 41.378124Q292.28436 43.175 293.01874 44.190624Q293.76874 45.20625 295.08124 45.20625Q296.8 45.20625 297.58124 43.675L297.58124 38.815624Q296.78436 37.315624 295.09686 37.315624Q293.76874 37.315624 293.01874 38.346874Q292.28436 39.378124 292.28436 41.378124ZM301.4406 41.175Q301.4406 39.6125 302.05 38.378124Q302.65936 37.128124 303.7375 36.45625Q304.83124 35.784374 306.2375 35.784374Q308.39374 35.784374 309.72186 37.284374Q311.0656 38.76875 311.0656 41.253124L311.0656 41.378124Q311.0656 42.925 310.47186 44.159374Q309.8781 45.378124 308.76874 46.065624Q307.675 46.753124 306.2531 46.753124Q304.1125 46.753124 302.76874 45.253124Q301.4406 43.753124 301.4406 41.3L301.4406 41.175ZM303.2531 41.378124Q303.2531 43.14375 304.0656 44.20625Q304.89374 45.26875 306.2531 45.26875Q307.6281 45.26875 308.4406 44.190624Q309.2531 43.1125 309.2531 41.175Q309.2531 39.425 308.425 38.346874Q307.59686 37.26875 306.2375 37.26875Q304.89374 37.26875 304.0656 38.33125Q303.2531 39.39375 303.2531 41.378124ZM321.3781 43.909374L323.83124 35.9875L325.76874 35.9875L321.51874 48.175Q320.53436 50.815624 318.39374 50.815624L318.05 50.784374L317.3781 50.659374L317.3781 49.190624L317.8625 49.2375Q318.78436 49.2375 319.28436 48.8625Q319.8 48.4875 320.1281 47.503124L320.53436 46.425L316.76874 35.9875L318.7375 35.9875L321.3781 43.909374ZM326.4406 41.175Q326.4406 39.6125 327.05 38.378124Q327.65936 37.128124 328.7375 36.45625Q329.83124 35.784374 331.2375 35.784374Q333.39374 35.784374 334.72186 37.284374Q336.0656 38.76875 336.0656 41.253124L336.0656 41.378124Q336.0656 42.925 335.47186 44.159374Q334.8781 45.378124 333.76874 46.065624Q332.675 46.753124 331.2531 46.753124Q329.1125 46.753124 327.76874 45.253124Q326.4406 43.753124 326.4406 41.3L326.4406 41.175ZM328.2531 41.378124Q328.2531 43.14375 329.0656 44.20625Q329.89374 45.26875 331.2531 45.26875Q332.6281 45.26875 333.4406 44.190624Q334.2531 43.1125 334.2531 41.175Q334.2531 39.425 333.425 38.346874Q332.59686 37.26875 331.2375 37.26875Q329.89374 37.26875 329.0656 38.33125Q328.2531 39.39375 328.2531 41.378124ZM344.4406 45.503124Q343.39374 46.753124 341.34686 46.753124Q339.65936 46.753124 338.76874 45.76875Q337.89374 44.784374 337.8781 42.8625L337.8781 35.9875L339.6906 35.9875L339.6906 42.815624Q339.6906 45.20625 341.64374 45.20625Q343.70624 45.20625 344.39374 43.675L344.39374 35.9875L346.20624 35.9875L346.20624 46.55L344.4875 46.55L344.4406 45.503124ZM354.8 46.55L354.8 37.378124L353.14374 37.378124L353.14374 35.9875L354.8 35.9875L354.8 34.89375Q354.8 33.20625 355.70624 32.284374Q356.6281 31.346874 358.28436 31.346874Q358.90936 31.346874 359.51874 31.503124L359.425 32.971874Q358.97186 32.89375 358.45624 32.89375Q357.5656 32.89375 357.08124 33.409374Q356.6125 33.909374 356.6125 34.8625L356.6125 35.9875L358.8625 35.9875L358.8625 37.378124L356.6125 37.378124L356.6125 46.55L354.8 46.55ZM365.3 46.753124Q363.15936 46.753124 361.8 45.346874Q360.45624 43.925 360.45624 41.565624L360.45624 41.221874Q360.45624 39.659374 361.05 38.425Q361.65936 37.190624 362.7375 36.4875Q363.8156 35.784374 365.08124 35.784374Q367.14374 35.784374 368.28436 37.14375Q369.425 38.503124 369.425 41.034374L369.425 41.784374L362.26874 41.784374Q362.3 43.346874 363.175 44.315624Q364.05 45.26875 365.39374 45.26875Q366.3625 45.26875 367.01874 44.878124Q367.6906 44.4875 368.1906 43.846874L369.28436 44.70625Q367.95624 46.753124 365.3 46.753124ZM365.08124 37.26875Q363.9875 37.26875 363.2375 38.065624Q362.5031 38.8625 362.33124 40.3L367.6125 40.3L367.6125 40.159374Q367.53436 38.784374 366.8625 38.034374Q366.20624 37.26875 365.08124 37.26875ZM376.3 46.753124Q374.15936 46.753124 372.8 45.346874Q371.45624 43.925 371.45624 41.565624L371.45624 41.221874Q371.45624 39.659374 372.05 38.425Q372.65936 37.190624 373.7375 36.4875Q374.8156 35.784374 376.08124 35.784374Q378.14374 35.784374 379.28436 37.14375Q380.425 38.503124 380.425 41.034374L380.425 41.784374L373.26874 41.784374Q373.3 43.346874 374.175 44.315624Q375.05 45.26875 376.39374 45.26875Q377.3625 45.26875 378.01874 44.878124Q378.6906 44.4875 379.1906 43.846874L380.28436 44.70625Q378.95624 46.753124 376.3 46.753124ZM376.08124 37.26875Q374.9875 37.26875 374.2375 38.065624Q373.5031 38.8625 373.33124 40.3L378.6125 40.3L378.6125 40.159374Q378.53436 38.784374 377.8625 38.034374Q377.20624 37.26875 376.08124 37.26875ZM384.8781 46.55L383.08124 46.55L383.08124 31.55L384.8781 31.55L384.8781 46.55ZM395.3625 33.425L395.3625 35.9875L397.34686 35.9875L397.34686 37.378124L395.3625 37.378124L395.3625 43.925Q395.3625 44.565624 395.6281 44.89375Q395.89374 45.20625 396.53436 45.20625Q396.84686 45.20625 397.39374 45.08125L397.39374 46.55Q396.675 46.753124 396.0031 46.753124Q394.8 46.753124 394.175 46.01875Q393.5656 45.284374 393.5656 43.925L393.5656 37.378124L391.64374 37.378124L391.64374 35.9875L393.5656 35.9875L393.5656 33.425L395.3625 33.425ZM401.72186 37.26875Q402.925 35.784374 404.84686 35.784374Q408.20624 35.784374 408.22186 39.565624L408.22186 46.55L406.425 46.55L406.425 39.55Q406.40936 38.409374 405.89374 37.8625Q405.39374 37.315624 404.3 37.315624Q403.425 37.315624 402.7531 37.784374Q402.09686 38.253124 401.72186 39.01875L401.72186 46.55L399.925 46.55L399.925 31.55L401.72186 31.55L401.72186 37.26875ZM417.4406 46.55Q417.28436 46.2375 417.1906 45.440624Q415.925 46.753124 414.175 46.753124Q412.6125 46.753124 411.6125 45.8625Q410.6125 44.971874 410.6125 43.6125Q410.6125 41.971874 411.8625 41.065624Q413.1281 40.14375 415.39374 40.14375L417.15936 40.14375L417.15936 39.315624Q417.15936 38.3625 416.58124 37.8Q416.01874 37.2375 414.925 37.2375Q413.95624 37.2375 413.3 37.7375Q412.64374 38.221874 412.64374 38.909374L410.83124 38.909374Q410.83124 38.128124 411.39374 37.39375Q411.95624 36.64375 412.90936 36.221874Q413.8781 35.784374 415.03436 35.784374Q416.8625 35.784374 417.89374 36.70625Q418.925 37.6125 418.97186 39.221874L418.97186 44.08125Q418.97186 45.534374 419.33124 46.39375L419.33124 46.55L417.4406 46.55ZM414.4406 45.175Q415.3 45.175 416.05 44.7375Q416.8156 44.3 417.15936 43.596874L417.15936 41.425L415.7375 41.425Q412.425 41.425 412.425 43.3625Q412.425 44.221874 412.9875 44.70625Q413.55 45.175 414.4406 45.175ZM424.3625 33.425L424.3625 35.9875L426.34686 35.9875L426.34686 37.378124L424.3625 37.378124L424.3625 43.925Q424.3625 44.565624 424.6281 44.89375Q424.89374 45.20625 425.53436 45.20625Q425.84686 45.20625 426.39374 45.08125L426.39374 46.55Q425.675 46.753124 425.0031 46.753124Q423.8 46.753124 423.175 46.01875Q422.5656 45.284374 422.5656 43.925L422.5656 37.378124L420.64374 37.378124L420.64374 35.9875L422.5656 35.9875L422.5656 33.425L424.3625 33.425ZM440.4406 46.55Q440.28436 46.2375 440.1906 45.440624Q438.925 46.753124 437.175 46.753124Q435.6125 46.753124 434.6125 45.8625Q433.6125 44.971874 433.6125 43.6125Q433.6125 41.971874 434.8625 41.065624Q436.1281 40.14375 438.39374 40.14375L440.15936 40.14375L440.15936 39.315624Q440.15936 38.3625 439.58124 37.8Q439.01874 37.2375 437.925 37.2375Q436.95624 37.2375 436.3 37.7375Q435.64374 38.221874 435.64374 38.909374L433.83124 38.909374Q433.83124 38.128124 434.39374 37.39375Q434.95624 36.64375 435.90936 36.221874Q436.8781 35.784374 438.03436 35.784374Q439.8625 35.784374 440.89374 36.70625Q441.925 37.6125 441.97186 39.221874L441.97186 44.08125Q441.97186 45.534374 442.33124 46.39375L442.33124 46.55L440.4406 46.55ZM437.4406 45.175Q438.3 45.175 439.05 44.7375Q439.8156 44.3 440.15936 43.596874L440.15936 41.425L438.7375 41.425Q435.425 41.425 435.425 43.3625Q435.425 44.221874 435.9875 44.70625Q436.55 45.175 437.4406 45.175ZM450.01874 37.596874Q449.6125 37.534374 449.14374 37.534374Q447.3625 37.534374 446.72186 39.05L446.72186 46.55L444.925 46.55L444.925 35.9875L446.675 35.9875L446.70624 37.20625Q447.59686 35.784374 449.22186 35.784374Q449.7531 35.784374 450.01874 35.925L450.01874 37.596874ZM456.3 46.753124Q454.15936 46.753124 452.8 45.346874Q451.45624 43.925 451.45624 41.565624L451.45624 41.221874Q451.45624 39.659374 452.05 38.425Q452.65936 37.190624 453.7375 36.4875Q454.8156 35.784374 456.08124 35.784374Q458.14374 35.784374 459.28436 37.14375Q460.425 38.503124 460.425 41.034374L460.425 41.784374L453.26874 41.784374Q453.3 43.346874 454.175 44.315624Q455.05 45.26875 456.39374 45.26875Q457.3625 45.26875 458.01874 44.878124Q458.6906 44.4875 459.1906 43.846874L460.28436 44.70625Q458.95624 46.753124 456.3 46.753124ZM456.08124 37.26875Q454.9875 37.26875 454.2375 38.065624Q453.5031 38.8625 453.33124 40.3L458.6125 40.3L458.6125 40.159374Q458.53436 38.784374 457.8625 38.034374Q457.20624 37.26875 456.08124 37.26875ZM473.01874 37.596874Q472.6125 37.534374 472.14374 37.534374Q470.3625 37.534374 469.72186 39.05L469.72186 46.55L467.925 46.55L467.925 35.9875L469.675 35.9875L469.70624 37.20625Q470.59686 35.784374 472.22186 35.784374Q472.7531 35.784374 473.01874 35.925L473.01874 37.596874ZM479.3 46.753124Q477.15936 46.753124 475.8 45.346874Q474.45624 43.925 474.45624 41.565624L474.45624 41.221874Q474.45624 39.659374 475.05 38.425Q475.65936 37.190624 476.7375 36.4875Q477.8156 35.784374 479.08124 35.784374Q481.14374 35.784374 482.28436 37.14375Q483.425 38.503124 483.425 41.034374L483.425 41.784374L476.26874 41.784374Q476.3 43.346874 477.175 44.315624Q478.05 45.26875 479.39374 45.26875Q480.3625 45.26875 481.01874 44.878124Q481.6906 44.4875 482.1906 43.846874L483.28436 44.70625Q481.95624 46.753124 479.3 46.753124ZM479.08124 37.26875Q477.9875 37.26875 477.2375 38.065624Q476.5031 38.8625 476.33124 40.3L481.6125 40.3L481.6125 40.159374Q481.53436 38.784374 480.8625 38.034374Q480.20624 37.26875 479.08124 37.26875ZM487.8781 46.55L486.08124 46.55L486.08124 31.55L487.8781 31.55L487.8781 46.55ZM495.3 46.753124Q493.15936 46.753124 491.8 45.346874Q490.45624 43.925 490.45624 41.565624L490.45624 41.221874Q490.45624 39.659374 491.05 38.425Q491.65936 37.190624 492.7375 36.4875Q493.8156 35.784374 495.08124 35.784374Q497.14374 35.784374 498.28436 37.14375Q499.425 38.503124 499.425 41.034374L499.425 41.784374L492.26874 41.784374Q492.3 43.346874 493.175 44.315624Q494.05 45.26875 495.39374 45.26875Q496.3625 45.26875 497.01874 44.878124Q497.6906 44.4875 498.1906 43.846874L499.28436 44.70625Q497.95624 46.753124 495.3 46.753124ZM495.08124 37.26875Q493.9875 37.26875 493.2375 38.065624Q492.5031 38.8625 492.33124 40.3L497.6125 40.3L497.6125 40.159374Q497.53436 38.784374 496.8625 38.034374Q496.20624 37.26875 495.08124 37.26875ZM505.40936 44.096874L508.01874 35.9875L509.8625 35.9875L506.08124 46.55L504.70624 46.55L500.8781 35.9875L502.72186 35.9875L505.40936 44.096874ZM518.4406 46.55Q518.28436 46.2375 518.1906 45.440624Q516.925 46.753124 515.175 46.753124Q513.6125 46.753124 512.6125 45.8625Q511.6125 44.971874 511.6125 43.6125Q511.6125 41.971874 512.8625 41.065624Q514.1281 40.14375 516.39374 40.14375L518.15936 40.14375L518.15936 39.315624Q518.15936 38.3625 517.58124 37.8Q517.01874 37.2375 515.925 37.2375Q514.95624 37.2375 514.3 37.7375Q513.64374 38.221874 513.64374 38.909374L511.83124 38.909374Q511.83124 38.128124 512.39374 37.39375Q512.95624 36.64375 513.90936 36.221874Q514.8781 35.784374 516.03436 35.784374Q517.8625 35.784374 518.89374 36.70625Q519.925 37.6125 519.97186 39.221874L519.97186 44.08125Q519.97186 45.534374 520.33124 46.39375L520.33124 46.55L518.4406 46.55ZM515.4406 45.175Q516.3 45.175 517.05 44.7375Q517.8156 44.3 518.15936 43.596874L518.15936 41.425L516.7375 41.425Q513.425 41.425 513.425 43.3625Q513.425 44.221874 513.9875 44.70625Q514.55 45.175 515.4406 45.175ZM524.6281 35.9875L524.6906 37.315624Q525.89374 35.784374 527.84686 35.784374Q531.20624 35.784374 531.22186 39.565624L531.22186 46.55L529.425 46.55L529.425 39.55Q529.40936 38.409374 528.89374 37.8625Q528.39374 37.315624 527.3 37.315624Q526.425 37.315624 525.7531 37.784374Q525.09686 38.253124 524.72186 39.01875L524.72186 46.55L522.925 46.55L522.925 35.9875L524.6281 35.9875ZM536.3625 33.425L536.3625 35.9875L538.34686 35.9875L538.34686 37.378124L536.3625 37.378124L536.3625 43.925Q536.3625 44.565624 536.6281 44.89375Q536.89374 45.20625 537.53436 45.20625Q537.84686 45.20625 538.39374 45.08125L538.39374 46.55Q537.675 46.753124 537.0031 46.753124Q535.8 46.753124 535.175 46.01875Q534.5656 45.284374 534.5656 43.925L534.5656 37.378124L532.64374 37.378124L532.64374 35.9875L534.5656 35.9875L534.5656 33.425L536.3625 33.425ZM546.8 46.55L546.8 37.378124L545.14374 37.378124L545.14374 35.9875L546.8 35.9875L546.8 34.89375Q546.8 33.20625 547.70624 32.284374Q548.6281 31.346874 550.28436 31.346874Q550.90936 31.346874 551.51874 31.503124L551.425 32.971874Q550.97186 32.89375 550.45624 32.89375Q549.5656 32.89375 549.08124 33.409374Q548.6125 33.909374 548.6125 34.8625L548.6125 35.9875L550.8625 35.9875L550.8625 37.378124L548.6125 37.378124L548.6125 46.55L546.8 46.55ZM552.4406 41.175Q552.4406 39.6125 553.05 38.378124Q553.65936 37.128124 554.7375 36.45625Q555.83124 35.784374 557.2375 35.784374Q559.39374 35.784374 560.72186 37.284374Q562.0656 38.76875 562.0656 41.253124L562.0656 41.378124Q562.0656 42.925 561.47186 44.159374Q560.8781 45.378124 559.76874 46.065624Q558.675 46.753124 557.2531 46.753124Q555.1125 46.753124 553.76874 45.253124Q552.4406 43.753124 552.4406 41.3L552.4406 41.175ZM554.2531 41.378124Q554.2531 43.14375 555.0656 44.20625Q555.89374 45.26875 557.2531 45.26875Q558.6281 45.26875 559.4406 44.190624Q560.2531 43.1125 560.2531 41.175Q560.2531 39.425 559.425 38.346874Q558.59686 37.26875 557.2375 37.26875Q555.89374 37.26875 555.0656 38.33125Q554.2531 39.39375 554.2531 41.378124ZM569.01874 37.596874Q568.6125 37.534374 568.14374 37.534374Q566.3625 37.534374 565.72186 39.05L565.72186 46.55L563.925 46.55L563.925 35.9875L565.675 35.9875L565.70624 37.20625Q566.59686 35.784374 568.22186 35.784374Q568.7531 35.784374 569.01874 35.925L569.01874 37.596874ZM582.4406 46.55Q582.28436 46.2375 582.1906 45.440624Q580.925 46.753124 579.175 46.753124Q577.6125 46.753124 576.6125 45.8625Q575.6125 44.971874 575.6125 43.6125Q575.6125 41.971874 576.8625 41.065624Q578.1281 40.14375 580.39374 40.14375L582.15936 40.14375L582.15936 39.315624Q582.15936 38.3625 581.58124 37.8Q581.01874 37.2375 579.925 37.2375Q578.95624 37.2375 578.3 37.7375Q577.64374 38.221874 577.64374 38.909374L575.83124 38.909374Q575.83124 38.128124 576.39374 37.39375Q576.95624 36.64375 577.90936 36.221874Q578.8781 35.784374 580.03436 35.784374Q581.8625 35.784374 582.89374 36.70625Q583.925 37.6125 583.97186 39.221874L583.97186 44.08125Q583.97186 45.534374 584.33124 46.39375L584.33124 46.55L582.4406 46.55ZM579.4406 45.175Q580.3 45.175 581.05 44.7375Q581.8156 44.3 582.15936 43.596874L582.15936 41.425L580.7375 41.425Q577.425 41.425 577.425 43.3625Q577.425 44.221874 577.9875 44.70625Q578.55 45.175 579.4406 45.175ZM598.4406 45.503124Q597.39374 46.753124 595.34686 46.753124Q593.65936 46.753124 592.76874 45.76875Q591.89374 44.784374 591.8781 42.8625L591.8781 35.9875L593.6906 35.9875L593.6906 42.815624Q593.6906 45.20625 595.64374 45.20625Q597.70624 45.20625 598.39374 43.675L598.39374 35.9875L600.20624 35.9875L600.20624 46.55L598.4875 46.55L598.4406 45.503124ZM609.0656 43.753124Q609.0656 43.01875 608.51874 42.6125Q607.97186 42.20625 606.59686 41.909374Q605.22186 41.6125 604.40936 41.20625Q603.6125 40.8 603.22186 40.2375Q602.84686 39.659374 602.84686 38.878124Q602.84686 37.58125 603.9406 36.690624Q605.03436 35.784374 606.7531 35.784374Q608.55 35.784374 609.65936 36.721874Q610.78436 37.64375 610.78436 39.08125L608.95624 39.08125Q608.95624 38.346874 608.33124 37.815624Q607.70624 37.26875 606.7531 37.26875Q605.7531 37.26875 605.1906 37.70625Q604.64374 38.128124 604.64374 38.83125Q604.64374 39.471874 605.15936 39.815624Q605.675 40.14375 607.03436 40.45625Q608.39374 40.753124 609.22186 41.175Q610.0656 41.58125 610.47186 42.175Q610.8781 42.76875 610.8781 43.6125Q610.8781 45.034374 609.7375 45.89375Q608.6125 46.753124 606.8 46.753124Q605.53436 46.753124 604.55 46.3Q603.58124 45.846874 603.01874 45.05Q602.47186 44.2375 602.47186 43.3L604.28436 43.3Q604.33124 44.20625 605.0031 44.7375Q605.6906 45.26875 606.8 45.26875Q607.83124 45.26875 608.4406 44.8625Q609.0656 44.440624 609.0656 43.753124ZM617.3 46.753124Q615.15936 46.753124 613.8 45.346874Q612.45624 43.925 612.45624 41.565624L612.45624 41.221874Q612.45624 39.659374 613.05 38.425Q613.65936 37.190624 614.7375 36.4875Q615.8156 35.784374 617.08124 35.784374Q619.14374 35.784374 620.28436 37.14375Q621.425 38.503124 621.425 41.034374L621.425 41.784374L614.26874 41.784374Q614.3 43.346874 615.175 44.315624Q616.05 45.26875 617.39374 45.26875Q618.3625 45.26875 619.01874 44.878124Q619.6906 44.4875 620.1906 43.846874L621.28436 44.70625Q619.95624 46.753124 617.3 46.753124ZM617.08124 37.26875Q615.9875 37.26875 615.2375 38.065624Q614.5031 38.8625 614.33124 40.3L619.6125 40.3L619.6125 40.159374Q619.53436 38.784374 618.8625 38.034374Q618.20624 37.26875 617.08124 37.26875ZM629.01874 37.596874Q628.6125 37.534374 628.14374 37.534374Q626.3625 37.534374 625.72186 39.05L625.72186 46.55L623.925 46.55L623.925 35.9875L625.675 35.9875L625.70624 37.20625Q626.59686 35.784374 628.22186 35.784374Q628.7531 35.784374 629.01874 35.925L629.01874 37.596874ZM635.4406 41.175Q635.4406 39.6125 636.05 38.378124Q636.65936 37.128124 637.7375 36.45625Q638.83124 35.784374 640.2375 35.784374Q642.39374 35.784374 643.72186 37.284374Q645.0656 38.76875 645.0656 41.253124L645.0656 41.378124Q645.0656 42.925 644.47186 44.159374Q643.8781 45.378124 642.76874 46.065624Q641.675 46.753124 640.2531 46.753124Q638.1125 46.753124 636.76874 45.253124Q635.4406 43.753124 635.4406 41.3L635.4406 41.175ZM637.2531 41.378124Q637.2531 43.14375 638.0656 44.20625Q638.89374 45.26875 640.2531 45.26875Q641.6281 45.26875 642.4406 44.190624Q643.2531 43.1125 643.2531 41.175Q643.2531 39.425 642.425 38.346874Q641.59686 37.26875 640.2375 37.26875Q638.89374 37.26875 638.0656 38.33125Q637.2531 39.39375 637.2531 41.378124ZM647.8 46.55L647.8 37.378124L646.14374 37.378124L646.14374 35.9875L647.8 35.9875L647.8 34.89375Q647.8 33.20625 648.70624 32.284374Q649.6281 31.346874 651.28436 31.346874Q651.90936 31.346874 652.51874 31.503124L652.425 32.971874Q651.97186 32.89375 651.45624 32.89375Q650.5656 32.89375 650.08124 33.409374Q649.6125 33.909374 649.6125 34.8625L649.6125 35.9875L651.8625 35.9875L651.8625 37.378124L649.6125 37.378124L649.6125 46.55L647.8 46.55ZM661.3625 33.425L661.3625 35.9875L663.34686 35.9875L663.34686 37.378124L661.3625 37.378124L661.3625 43.925Q661.3625 44.565624 661.6281 44.89375Q661.89374 45.20625 662.53436 45.20625Q662.84686 45.20625 663.39374 45.08125L663.39374 46.55Q662.675 46.753124 662.0031 46.753124Q660.8 46.753124 660.175 46.01875Q659.5656 45.284374 659.5656 43.925L659.5656 37.378124L657.64374 37.378124L657.64374 35.9875L659.5656 35.9875L659.5656 33.425L661.3625 33.425ZM667.72186 37.26875Q668.925 35.784374 670.84686 35.784374Q674.20624 35.784374 674.22186 39.565624L674.22186 46.55L672.425 46.55L672.425 39.55Q672.40936 38.409374 671.89374 37.8625Q671.39374 37.315624 670.3 37.315624Q669.425 37.315624 668.7531 37.784374Q668.09686 38.253124 667.72186 39.01875L667.72186 46.55L665.925 46.55L665.925 31.55L667.72186 31.55L667.72186 37.26875ZM678.8781 46.55L677.08124 46.55L677.08124 35.9875L678.8781 35.9875L678.8781 46.55ZM676.925 33.175Q676.925 32.7375 677.1906 32.440624Q677.47186 32.128124 677.9875 32.128124Q678.51874 32.128124 678.78436 32.440624Q679.0656 32.7375 679.0656 33.175Q679.0656 33.6125 678.78436 33.909374Q678.51874 34.20625 677.9875 34.20625Q677.47186 34.20625 677.1906 33.909374Q676.925 33.6125 676.925 33.175ZM688.0656 43.753124Q688.0656 43.01875 687.51874 42.6125Q686.97186 42.20625 685.59686 41.909374Q684.22186 41.6125 683.40936 41.20625Q682.6125 40.8 682.22186 40.2375Q681.84686 39.659374 681.84686 38.878124Q681.84686 37.58125 682.9406 36.690624Q684.03436 35.784374 685.7531 35.784374Q687.55 35.784374 688.65936 36.721874Q689.78436 37.64375 689.78436 39.08125L687.95624 39.08125Q687.95624 38.346874 687.33124 37.815624Q686.70624 37.26875 685.7531 37.26875Q684.7531 37.26875 684.1906 37.70625Q683.64374 38.128124 683.64374 38.83125Q683.64374 39.471874 684.15936 39.815624Q684.675 40.14375 686.03436 40.45625Q687.39374 40.753124 688.22186 41.175Q689.0656 41.58125 689.47186 42.175Q689.8781 42.76875 689.8781 43.6125Q689.8781 45.034374 688.7375 45.89375Q687.6125 46.753124 685.8 46.753124Q684.53436 46.753124 683.55 46.3Q682.58124 45.846874 682.01874 45.05Q681.47186 44.2375 681.47186 43.3L683.28436 43.3Q683.33124 44.20625 684.0031 44.7375Q684.6906 45.26875 685.8 45.26875Q686.83124 45.26875 687.4406 44.8625Q688.0656 44.440624 688.0656 43.753124ZM703.0656 43.753124Q703.0656 43.01875 702.51874 42.6125Q701.97186 42.20625 700.59686 41.909374Q699.22186 41.6125 698.40936 41.20625Q697.6125 40.8 697.22186 40.2375Q696.84686 39.659374 696.84686 38.878124Q696.84686 37.58125 697.9406 36.690624Q699.03436 35.784374 700.7531 35.784374Q702.55 35.784374 703.65936 36.721874Q704.78436 37.64375 704.78436 39.08125L702.95624 39.08125Q702.95624 38.346874 702.33124 37.815624Q701.70624 37.26875 700.7531 37.26875Q699.7531 37.26875 699.1906 37.70625Q698.64374 38.128124 698.64374 38.83125Q698.64374 39.471874 699.15936 39.815624Q699.675 40.14375 701.03436 40.45625Q702.39374 40.753124 703.22186 41.175Q704.0656 41.58125 704.47186 42.175Q704.8781 42.76875 704.8781 43.6125Q704.8781 45.034374 703.7375 45.89375Q702.6125 46.753124 700.8 46.753124Q699.53436 46.753124 698.55 46.3Q697.58124 45.846874 697.01874 45.05Q696.47186 44.2375 696.47186 43.3L698.28436 43.3Q698.33124 44.20625 699.0031 44.7375Q699.6906 45.26875 700.8 45.26875Q701.83124 45.26875 702.4406 44.8625Q703.0656 44.440624 703.0656 43.753124ZM711.3 46.753124Q709.15936 46.753124 707.8 45.346874Q706.45624 43.925 706.45624 41.565624L706.45624 41.221874Q706.45624 39.659374 707.05 38.425Q707.65936 37.190624 708.7375 36.4875Q709.8156 35.784374 711.08124 35.784374Q713.14374 35.784374 714.28436 37.14375Q715.425 38.503124 715.425 41.034374L715.425 41.784374L708.26874 41.784374Q708.3 43.346874 709.175 44.315624Q710.05 45.26875 711.39374 45.26875Q712.3625 45.26875 713.01874 44.878124Q713.6906 44.4875 714.1906 43.846874L715.28436 44.70625Q713.95624 46.753124 711.3 46.753124ZM711.08124 37.26875Q709.9875 37.26875 709.2375 38.065624Q708.5031 38.8625 708.33124 40.3L713.6125 40.3L713.6125 40.159374Q713.53436 38.784374 712.8625 38.034374Q712.20624 37.26875 711.08124 37.26875ZM719.6281 35.9875L719.6906 37.315624Q720.89374 35.784374 722.84686 35.784374Q726.20624 35.784374 726.22186 39.565624L726.22186 46.55L724.425 46.55L724.425 39.55Q724.40936 38.409374 723.89374 37.8625Q723.39374 37.315624 722.3 37.315624Q721.425 37.315624 720.7531 37.784374Q720.09686 38.253124 719.72186 39.01875L719.72186 46.55L717.925 46.55L717.925 35.9875L719.6281 35.9875ZM735.0656 43.753124Q735.0656 43.01875 734.51874 42.6125Q733.97186 42.20625 732.59686 41.909374Q731.22186 41.6125 730.40936 41.20625Q729.6125 40.8 729.22186 40.2375Q728.84686 39.659374 728.84686 38.878124Q728.84686 37.58125 729.9406 36.690624Q731.03436 35.784374 732.7531 35.784374Q734.55 35.784374 735.65936 36.721874Q736.78436 37.64375 736.78436 39.08125L734.95624 39.08125Q734.95624 38.346874 734.33124 37.815624Q733.70624 37.26875 732.7531 37.26875Q731.7531 37.26875 731.1906 37.70625Q730.64374 38.128124 730.64374 38.83125Q730.64374 39.471874 731.15936 39.815624Q731.675 40.14375 733.03436 40.45625Q734.39374 40.753124 735.22186 41.175Q736.0656 41.58125 736.47186 42.175Q736.8781 42.76875 736.8781 43.6125Q736.8781 45.034374 735.7375 45.89375Q734.6125 46.753124 732.8 46.753124Q731.53436 46.753124 730.55 46.3Q729.58124 45.846874 729.01874 45.05Q728.47186 44.2375 728.47186 43.3L730.28436 43.3Q730.33124 44.20625 731.0031 44.7375Q731.6906 45.26875 732.8 45.26875Q733.83124 45.26875 734.4406 44.8625Q735.0656 44.440624 735.0656 43.753124ZM738.4406 41.175Q738.4406 39.6125 739.05 38.378124Q739.65936 37.128124 740.7375 36.45625Q741.83124 35.784374 743.2375 35.784374Q745.39374 35.784374 746.72186 37.284374Q748.0656 38.76875 748.0656 41.253124L748.0656 41.378124Q748.0656 42.925 747.47186 44.159374Q746.8781 45.378124 745.76874 46.065624Q744.675 46.753124 743.2531 46.753124Q741.1125 46.753124 739.76874 45.253124Q738.4406 43.753124 738.4406 41.3L738.4406 41.175ZM740.2531 41.378124Q740.2531 43.14375 741.0656 44.20625Q741.89374 45.26875 743.2531 45.26875Q744.6281 45.26875 745.4406 44.190624Q746.2531 43.1125 746.2531 41.175Q746.2531 39.425 745.425 38.346874Q744.59686 37.26875 743.2375 37.26875Q741.89374 37.26875 741.0656 38.33125Q740.2531 39.39375 740.2531 41.378124ZM755.01874 37.596874Q754.6125 37.534374 754.14374 37.534374Q752.3625 37.534374 751.72186 39.05L751.72186 46.55L749.925 46.55L749.925 35.9875L751.675 35.9875L751.70624 37.20625Q752.59686 35.784374 754.22186 35.784374Q754.7531 35.784374 755.01874 35.925L755.01874 37.596874ZM759.03436 42.55Q759.05 41.378124 759.3 40.70625Q759.55 40.034374 760.3 39.221874L761.58124 37.89375Q762.39374 36.971874 762.39374 35.909374Q762.39374 34.878124 761.84686 34.3Q761.3156 33.721874 760.3 33.721874Q759.3 33.721874 758.6906 34.253124Q758.09686 34.76875 758.09686 35.659374L756.28436 35.659374Q756.3 34.08125 757.40936 33.1125Q758.51874 32.128124 760.3 32.128124Q762.14374 32.128124 763.175 33.128124Q764.20624 34.1125 764.20624 35.846874Q764.20624 37.55 762.6281 39.221874L761.55 40.26875Q760.84686 41.065624 760.84686 42.55L759.03436 42.55ZM758.95624 45.64375Q758.95624 45.20625 759.22186 44.909374Q759.5031 44.6125 760.01874 44.6125Q760.55 44.6125 760.8156 44.909374Q761.09686 45.20625 761.09686 45.64375Q761.09686 46.08125 760.8156 46.378124Q760.55 46.659374 760.01874 46.659374Q759.5031 46.659374 759.22186 46.378124Q758.95624 46.08125 758.95624 45.64375ZM767.2531 32.878124L766.95624 36.378124L765.8781 36.378124L765.89374 31.55L767.2531 31.55L767.2531 32.878124ZM769.89374 32.878124L769.59686 36.378124L768.51874 36.378124L768.51874 31.55L769.89374 31.55L769.89374 32.878124Z" fill-rule="nonzero"/></svg>