<svg version="1.1" viewBox="0.0 0.0 882.0 545.0" fill="none" stroke="none" stroke-linecap="square" stroke-miterlimit="10" width="882" height="545" xmlns:xlink="http://www.w3.org/1999/xlink" xmlns="http://www.w3.org/2000/svg"><path fill="#ffffff" d="M0 0L882.0 0L882.0 545.0L0 545.0L0 0Z" fill-rule="nonzero"/><path stroke="#333333" stroke-width="1.0" stroke-linecap="butt" d="M103.5 447.5L854.5 447.5" fill-rule="nonzero"/><path stroke="#cccccc" stroke-width="1.0" stroke-linecap="butt" d="M103.5 373.5L854.5 373.5" fill-rule="nonzero"/><path stroke="#cccccc" stroke-width="1.0" stroke-linecap="butt" d="M103.5 299.5L854.5 299.5" fill-rule="nonzero"/><path stroke="#cccccc" stroke-width="1.0" stroke-linecap="butt" d="M103.5 225.5L854.5 225.5" fill-rule="nonzero"/><path stroke="#cccccc" stroke-width="1.0" stroke-linecap="butt" d="M103.5 151.5L854.5 151.5" fill-rule="nonzero"/><path stroke="#cccccc" stroke-width="1.0" stroke-linecap="butt" d="M103.5 76.5L854.5 76.5" fill-rule="nonzero"/><clipPath id="id_0"><path d="M103.25 76.916664L854.75 76.916664L854.75 447.75L103.25 447.75L103.25 76.916664Z" clip-rule="nonzero"/></clipPath><path stroke="#000000" stroke-width="0.0" stroke-linecap="butt" stroke-opacity="0.0" clip-path="url(#id_0)" d="M244.0 448.0L153.0 448.0L153.0 138.0C153.0 136.89543 153.89543 136.0 155.0 136.0L242.0 136.0C243.10457 136.0 244.0 136.89543 244.0 138.0Z" fill-rule="nonzero"/><path fill="#273138" clip-path="url(#id_0)" d="M244.0 448.0L153.0 448.0L153.0 138.0C153.0 136.89543 153.89543 136.0 155.0 136.0L242.0 136.0C243.10457 136.0 244.0 136.89543 244.0 138.0Z" fill-rule="nonzero"/><path stroke="#000000" stroke-width="0.0" stroke-linecap="butt" stroke-opacity="0.0" clip-path="url(#id_0)" d="M385.0 448.0L294.0 448.0L294.0 331.0C294.0 329.89542 294.89542 329.0 296.0 329.0L383.0 329.0C384.10458 329.0 385.0 329.89542 385.0 331.0Z" fill-rule="nonzero"/><path fill="#273138" clip-path="url(#id_0)" d="M385.0 448.0L294.0 448.0L294.0 331.0C294.0 329.89542 294.89542 329.0 296.0 329.0L383.0 329.0C384.10458 329.0 385.0 329.89542 385.0 331.0Z" fill-rule="nonzero"/><path stroke="#000000" stroke-width="0.0" stroke-linecap="butt" stroke-opacity="0.0" clip-path="url(#id_0)" d="M525.0 448.0L434.0 448.0L434.0 435.0C434.0 433.89542 434.89542 433.0 436.0 433.0L523.0 433.0C524.10455 433.0 525.0 433.89542 525.0 435.0Z" fill-rule="nonzero"/><path fill="#273138" clip-path="url(#id_0)" d="M525.0 448.0L434.0 448.0L434.0 435.0C434.0 433.89542 434.89542 433.0 436.0 433.0L523.0 433.0C524.10455 433.0 525.0 433.89542 525.0 435.0Z" fill-rule="nonzero"/><path stroke="#000000" stroke-width="0.0" stroke-linecap="butt" stroke-opacity="0.0" clip-path="url(#id_0)" d="M665.0 448.0L574.0 448.0L574.0 435.0C574.0 433.89542 574.89545 433.0 576.0 433.0L663.0 433.0C664.10455 433.0 665.0 433.89542 665.0 435.0Z" fill-rule="nonzero"/><path fill="#273138" clip-path="url(#id_0)" d="M665.0 448.0L574.0 448.0L574.0 435.0C574.0 433.89542 574.89545 433.0 576.0 433.0L663.0 433.0C664.10455 433.0 665.0 433.89542 665.0 435.0Z" fill-rule="nonzero"/><path stroke="#000000" stroke-width="0.0" stroke-linecap="butt" stroke-opacity="0.0" clip-path="url(#id_0)" d="M806.0 448.0L715.0 448.0L715.0 435.0C715.0 433.89542 715.89545 433.0 717.0 433.0L804.0 433.0C805.10455 433.0 806.0 433.89542 806.0 435.0Z" fill-rule="nonzero"/><path fill="#273138" clip-path="url(#id_0)" d="M806.0 448.0L715.0 448.0L715.0 435.0C715.0 433.89542 715.89545 433.0 717.0 433.0L804.0 433.0C805.10455 433.0 806.0 433.89542 806.0 435.0Z" fill-rule="nonzero"/><path fill="#273138" d="M417.23438 506.79688L415.67188 508.42188L415.67188 512.75L413.98438 512.75L413.98438 499.95312L415.67188 499.95312L415.67188 506.28125L421.35938 499.95312L423.40625 499.95312L418.35938 505.60938L423.79688 512.75L421.76562 512.75L417.23438 506.79688ZM426.5 512.75L424.875 512.75L424.875 503.23438L426.5 503.23438L426.5 512.75ZM424.73438 500.71875Q424.73438 500.32812 424.96875 500.0625Q425.21875 499.78125 425.6875 499.78125Q426.17188 499.78125 426.42188 500.0625Q426.67188 500.32812 426.67188 500.71875Q426.67188 501.10938 426.42188 501.375Q426.17188 501.64062 425.6875 501.64062Q425.21875 501.64062 424.96875 501.375Q424.73438 501.10938 424.73438 500.71875ZM430.26562 503.23438L430.32812 504.4375Q431.40625 503.0625 433.17188 503.0625Q436.1875 503.0625 436.20312 506.46875L436.20312 512.75L434.57812 512.75L434.57812 506.45312Q434.57812 505.42188 434.10938 504.9375Q433.65625 504.4375 432.67188 504.4375Q431.89062 504.4375 431.28125 504.85938Q430.6875 505.28125 430.35938 505.96875L430.35938 512.75L428.73438 512.75L428.73438 503.23438L430.26562 503.23438ZM438.32812 507.92188Q438.32812 505.73438 439.35938 504.40625Q440.40625 503.0625 442.09375 503.0625Q443.76562 503.0625 444.73438 504.20312L444.73438 499.25L446.35938 499.25L446.35938 512.75L444.85938 512.75L444.78125 511.73438Q443.8125 512.9219 442.07812 512.9219Q440.42188 512.9219 439.375 511.57812Q438.32812 510.21875 438.32812 508.03125L438.32812 507.92188ZM439.96875 508.09375Q439.96875 509.71875 440.625 510.64062Q441.29688 511.54688 442.46875 511.54688Q444.01562 511.54688 444.73438 510.15625L444.73438 505.78125Q444.0 504.4375 442.5 504.4375Q441.29688 504.4375 440.625 505.375Q439.96875 506.29688 439.96875 508.09375ZM452.29688 507.90625Q452.29688 506.51562 452.84375 505.40625Q453.40625 504.28125 454.375 503.67188Q455.35938 503.0625 456.60938 503.0625Q458.5625 503.0625 459.75 504.40625Q460.95312 505.75 460.95312 507.98438L460.95312 508.09375Q460.95312 509.48438 460.42188 510.59375Q459.89062 511.6875 458.90625 512.3125Q457.92188 512.9219 456.64062 512.9219Q454.70312 512.9219 453.5 511.57812Q452.29688 510.23438 452.29688 508.01562L452.29688 507.90625ZM453.9375 508.09375Q453.9375 509.6875 454.67188 510.64062Q455.40625 511.59375 456.64062 511.59375Q457.875 511.59375 458.59375 510.625Q459.32812 509.65625 459.32812 507.90625Q459.32812 506.34375 458.57812 505.375Q457.84375 504.40625 456.60938 504.40625Q455.40625 504.40625 454.67188 505.35938Q453.9375 506.3125 453.9375 508.09375ZM463.53125 512.75L463.53125 504.5L462.03125 504.5L462.03125 503.23438L463.53125 503.23438L463.53125 502.26562Q463.53125 500.73438 464.34375 499.90625Q465.17188 499.0625 466.65625 499.0625Q467.21875 499.0625 467.78125 499.21875L467.6875 500.53125Q467.28125 500.45312 466.8125 500.45312Q466.01562 500.45312 465.57812 500.92188Q465.15625 501.375 465.15625 502.23438L465.15625 503.23438L467.1875 503.23438L467.1875 504.5L465.15625 504.5L465.15625 512.75L463.53125 512.75ZM473.53125 512.75L473.53125 504.5L472.03125 504.5L472.03125 503.23438L473.53125 503.23438L473.53125 502.26562Q473.53125 500.73438 474.34375 499.90625Q475.17188 499.0625 476.65625 499.0625Q477.21875 499.0625 477.78125 499.21875L477.6875 500.53125Q477.28125 500.45312 476.8125 500.45312Q476.01562 500.45312 475.57812 500.92188Q475.15625 501.375 475.15625 502.23438L475.15625 503.23438L477.1875 503.23438L477.1875 504.5L475.15625 504.5L475.15625 512.75L473.53125 512.75ZM482.67188 512.9219Q480.75 512.9219 479.53125 511.65625Q478.3125 510.39062 478.3125 508.26562L478.3125 507.95312Q478.3125 506.54688 478.85938 505.4375Q479.40625 504.32812 480.375 503.70312Q481.34375 503.0625 482.46875 503.0625Q484.32812 503.0625 485.35938 504.28125Q486.39062 505.5 486.39062 507.78125L486.39062 508.45312L479.9375 508.45312Q479.98438 509.85938 480.76562 510.73438Q481.54688 511.59375 482.76562 511.59375Q483.625 511.59375 484.21875 511.25Q484.82812 510.89062 485.26562 510.3125L486.26562 511.09375Q485.0625 512.9219 482.67188 512.9219ZM482.46875 504.40625Q481.48438 504.40625 480.8125 505.125Q480.15625 505.82812 480.0 507.125L484.76562 507.125L484.76562 507.0Q484.6875 505.76562 484.09375 505.09375Q483.5 504.40625 482.46875 504.40625ZM492.67188 512.9219Q490.75 512.9219 489.53125 511.65625Q488.3125 510.39062 488.3125 508.26562L488.3125 507.95312Q488.3125 506.54688 488.85938 505.4375Q489.40625 504.32812 490.375 503.70312Q491.34375 503.0625 492.46875 503.0625Q494.32812 503.0625 495.35938 504.28125Q496.39062 505.5 496.39062 507.78125L496.39062 508.45312L489.9375 508.45312Q489.98438 509.85938 490.76562 510.73438Q491.54688 511.59375 492.76562 511.59375Q493.625 511.59375 494.21875 511.25Q494.82812 510.89062 495.26562 510.3125L496.26562 511.09375Q495.0625 512.9219 492.67188 512.9219ZM492.46875 504.40625Q491.48438 504.40625 490.8125 505.125Q490.15625 505.82812 490.0 507.125L494.76562 507.125L494.76562 507.0Q494.6875 505.76562 494.09375 505.09375Q493.5 504.40625 492.46875 504.40625ZM498.32812 507.92188Q498.32812 505.73438 499.35938 504.40625Q500.40625 503.0625 502.09375 503.0625Q503.76562 503.0625 504.73438 504.20312L504.73438 499.25L506.35938 499.25L506.35938 512.75L504.85938 512.75L504.78125 511.73438Q503.8125 512.9219 502.07812 512.9219Q500.42188 512.9219 499.375 511.57812Q498.32812 510.21875 498.32812 508.03125L498.32812 507.92188ZM499.96875 508.09375Q499.96875 509.71875 500.625 510.64062Q501.29688 511.54688 502.46875 511.54688Q504.01562 511.54688 504.73438 510.15625L504.73438 505.78125Q504.0 504.4375 502.5 504.4375Q501.29688 504.4375 500.625 505.375Q499.96875 506.29688 499.96875 508.09375ZM516.78125 508.09375Q516.78125 510.28125 515.78125 511.60938Q514.78125 512.9219 513.09375 512.9219Q511.28125 512.9219 510.29688 511.65625L510.21875 512.75L508.73438 512.75L508.73438 499.25L510.35938 499.25L510.35938 504.28125Q511.34375 503.0625 513.0625 503.0625Q514.7969 503.0625 515.78125 504.375Q516.78125 505.6875 516.78125 507.95312L516.78125 508.09375ZM515.15625 507.92188Q515.15625 506.25 514.5156 505.34375Q513.875 504.4375 512.6719 504.4375Q511.0625 504.4375 510.35938 505.9375L510.35938 510.04688Q511.10938 511.54688 512.6875 511.54688Q513.8594 511.54688 514.5 510.64062Q515.15625 509.73438 515.15625 507.92188ZM524.6094 512.75Q524.46875 512.46875 524.375 511.75Q523.2344 512.9219 521.6719 512.9219Q520.2656 512.9219 519.3594 512.125Q518.4531 511.32812 518.4531 510.10938Q518.4531 508.625 519.5781 507.8125Q520.71875 506.98438 522.7656 506.98438L524.34375 506.98438L524.34375 506.23438Q524.34375 505.39062 523.8281 504.89062Q523.3281 504.375 522.3281 504.375Q521.46875 504.375 520.875 504.8125Q520.28125 505.25 520.28125 505.875L518.65625 505.875Q518.65625 505.17188 519.15625 504.51562Q519.65625 503.84375 520.5156 503.45312Q521.3906 503.0625 522.4375 503.0625Q524.0781 503.0625 525.0 503.89062Q525.9375 504.70312 525.96875 506.15625L525.96875 510.53125Q525.96875 511.82812 526.3125 512.6094L526.3125 512.75L524.6094 512.75ZM521.90625 511.51562Q522.6719 511.51562 523.3594 511.125Q524.0469 510.71875 524.34375 510.09375L524.34375 508.14062L523.0781 508.14062Q520.0781 508.14062 520.0781 509.89062Q520.0781 510.65625 520.59375 511.09375Q521.1094 511.51562 521.90625 511.51562ZM532.5469 511.59375Q533.4219 511.59375 534.0625 511.07812Q534.71875 510.54688 534.78125 509.75L536.3281 509.75Q536.28125 510.5625 535.7656 511.3125Q535.25 512.0469 534.375 512.4844Q533.5156 512.9219 532.5469 512.9219Q530.6094 512.9219 529.4531 511.625Q528.3125 510.32812 528.3125 508.07812L528.3125 507.8125Q528.3125 506.42188 528.8125 505.34375Q529.3281 504.26562 530.28125 503.67188Q531.2344 503.0625 532.53125 503.0625Q534.1406 503.0625 535.1875 504.03125Q536.25 504.98438 536.3281 506.51562L534.78125 506.51562Q534.71875 505.59375 534.0781 505.0Q533.4531 504.40625 532.53125 504.40625Q531.2969 504.40625 530.6094 505.29688Q529.9375 506.1875 529.9375 507.875L529.9375 508.17188Q529.9375 509.82812 530.6094 510.71875Q531.28125 511.59375 532.5469 511.59375ZM540.3906 508.34375L539.3594 509.40625L539.3594 512.75L537.7344 512.75L537.7344 499.25L539.3594 499.25L539.3594 507.42188L540.2344 506.375L543.2031 503.23438L545.1719 503.23438L541.46875 507.21875L545.6094 512.75L543.7031 512.75L540.3906 508.34375Z" fill-rule="nonzero"/><path fill="#273138" d="M44.25 336.2552L44.25 337.9583L34.390625 344.3958L44.25 344.3958L44.25 346.09894L31.453125 346.09894L31.453125 344.3958L41.359375 337.9427L31.453125 337.9427L31.453125 336.2552L44.25 336.2552ZM43.3125 327.47394Q44.421875 328.42706 44.421875 330.2708Q44.421875 331.78644 43.546875 332.5833Q42.65625 333.3802 40.921875 333.3802L34.734375 333.3802L34.734375 331.7552L40.890625 331.7552Q43.046875 331.7552 43.046875 330.0052Q43.046875 328.1458 41.65625 327.5208L34.734375 327.5208L34.734375 325.8958L44.25 325.8958L44.25 327.4427L43.3125 327.47394ZM34.734375 321.8177L35.796875 321.78644Q34.5625 320.73956 34.5625 318.9583Q34.5625 316.9583 36.09375 316.23956Q35.40625 315.7708 34.984375 315.0052Q34.5625 314.23956 34.5625 313.2083Q34.5625 310.0833 37.875 310.0208L44.25 310.0208L44.25 311.66144L37.96875 311.66144Q36.953125 311.66144 36.453125 312.1302Q35.9375 312.5833 35.9375 313.67706Q35.9375 314.5833 36.484375 315.1927Q37.03125 315.78644 37.9375 315.8802L44.25 315.8802L44.25 317.5208L38.015625 317.5208Q35.9375 317.5208 35.9375 319.55206Q35.9375 321.1458 37.3125 321.73956L44.25 321.73956L44.25 323.36456L34.734375 323.36456L34.734375 321.8177ZM39.59375 299.30206Q41.78125 299.30206 43.109375 300.30206Q44.421875 301.30206 44.421875 302.98956Q44.421875 304.80206 43.15625 305.78644L44.25 305.86456L44.25 307.34894L30.75 307.34894L30.75 305.72394L35.78125 305.72394Q34.5625 304.73956 34.5625 303.0208Q34.5625 301.28644 35.875 300.30206Q37.1875 299.30206 39.453125 299.30206L39.59375 299.30206ZM39.421875 300.92706Q37.75 300.92706 36.84375 301.5677Q35.9375 302.2083 35.9375 303.41144Q35.9375 305.0208 37.4375 305.72394L41.546875 305.72394Q43.046875 304.97394 43.046875 303.3958Q43.046875 302.22394 42.140625 301.5833Q41.234375 300.92706 39.421875 300.92706ZM44.421875 293.41144Q44.421875 295.3333 43.15625 296.55206Q41.890625 297.7708 39.765625 297.7708L39.453125 297.7708Q38.046875 297.7708 36.9375 297.22394Q35.828125 296.67706 35.203125 295.7083Q34.5625 294.73956 34.5625 293.61456Q34.5625 291.7552 35.78125 290.72394Q37.0 289.6927 39.28125 289.6927L39.953125 289.6927L39.953125 296.1458Q41.359375 296.09894 42.234375 295.3177Q43.09375 294.53644 43.09375 293.3177Q43.09375 292.4583 42.75 291.86456Q42.390625 291.2552 41.8125 290.8177L42.59375 289.8177Q44.421875 291.0208 44.421875 293.41144ZM35.90625 293.61456Q35.90625 294.59894 36.625 295.2708Q37.328125 295.92706 38.625 296.0833L38.625 291.3177L38.5 291.3177Q37.265625 291.3958 36.59375 291.98956Q35.90625 292.5833 35.90625 293.61456ZM36.203125 282.7552Q36.140625 283.1302 36.140625 283.55206Q36.140625 285.16144 37.5 285.72394L44.25 285.72394L44.25 287.34894L34.734375 287.34894L34.734375 285.7708L35.84375 285.73956Q34.5625 284.9427 34.5625 283.47394Q34.5625 283.0052 34.6875 282.7552L36.203125 282.7552ZM39.40625 277.78644Q38.015625 277.78644 36.90625 277.23956Q35.78125 276.67706 35.171875 275.7083Q34.5625 274.72394 34.5625 273.47394Q34.5625 271.5208 35.90625 270.3333Q37.25 269.1302 39.484375 269.1302L39.59375 269.1302Q40.984375 269.1302 42.09375 269.66144Q43.1875 270.1927 43.8125 271.17706Q44.421875 272.16144 44.421875 273.4427Q44.421875 275.3802 43.078125 276.5833Q41.734375 277.78644 39.515625 277.78644L39.40625 277.78644ZM39.59375 276.1458Q41.1875 276.1458 42.140625 275.41144Q43.09375 274.67706 43.09375 273.4427Q43.09375 272.2083 42.125 271.48956Q41.15625 270.7552 39.40625 270.7552Q37.84375 270.7552 36.875 271.5052Q35.90625 272.23956 35.90625 273.47394Q35.90625 274.67706 36.859375 275.41144Q37.8125 276.1458 39.59375 276.1458ZM44.25 266.55206L36.0 266.55206L36.0 268.05206L34.734375 268.05206L34.734375 266.55206L33.765625 266.55206Q32.234375 266.55206 31.40625 265.73956Q30.5625 264.91144 30.5625 263.42706Q30.5625 262.86456 30.71875 262.30206L32.03125 262.3958Q31.953125 262.80206 31.953125 263.2708Q31.953125 264.0677 32.421875 264.5052Q32.875 264.92706 33.734375 264.92706L34.734375 264.92706L34.734375 262.8958L36.0 262.8958L36.0 264.92706L44.25 264.92706L44.25 266.55206ZM44.25 251.47395Q43.96875 251.61458 43.25 251.70833Q44.421875 252.84895 44.421875 254.41145Q44.421875 255.8177 43.625 256.72394Q42.828125 257.6302 41.609375 257.6302Q40.125 257.6302 39.3125 256.5052Q38.484375 255.36458 38.484375 253.3177L38.484375 251.73958L37.734375 251.73958Q36.890625 251.73958 36.390625 252.2552Q35.875 252.7552 35.875 253.7552Q35.875 254.61458 36.3125 255.20833Q36.75 255.80208 37.375 255.80208L37.375 257.42706Q36.671875 257.42706 36.015625 256.92706Q35.34375 256.42706 34.953125 255.5677Q34.5625 254.6927 34.5625 253.64583Q34.5625 252.0052 35.390625 251.08333Q36.203125 250.14583 37.65625 250.11458L42.03125 250.11458Q43.328125 250.11458 44.109375 249.77083L44.25 249.77083L44.25 251.47395ZM43.015625 254.17708Q43.015625 253.41145 42.625 252.72395Q42.21875 252.03645 41.59375 251.73958L39.640625 251.73958L39.640625 253.0052Q39.640625 256.0052 41.390625 256.0052Q42.15625 256.0052 42.59375 255.48958Q43.015625 254.97395 43.015625 254.17708ZM34.734375 245.8177L35.9375 245.7552Q34.5625 244.67708 34.5625 242.91145Q34.5625 239.89581 37.96875 239.88019L44.25 239.88019L44.25 241.5052L37.953125 241.5052Q36.921875 241.5052 36.4375 241.97395Q35.9375 242.42708 35.9375 243.41145Q35.9375 244.1927 36.359375 244.80208Q36.78125 245.39583 37.46875 245.72395L44.25 245.72395L44.25 247.34895L34.734375 247.34895L34.734375 245.8177ZM41.734375 231.81769Q41.0625 231.81769 40.703125 232.31769Q40.34375 232.80206 40.078125 234.03644Q39.8125 235.27081 39.453125 236.00519Q39.078125 236.72394 38.5625 237.08331Q38.046875 237.42706 37.34375 237.42706Q36.1875 237.42706 35.375 236.44269Q34.5625 235.44269 34.5625 233.91144Q34.5625 232.28644 35.40625 231.28644Q36.234375 230.27081 37.53125 230.27081L37.53125 231.91144Q36.859375 231.91144 36.390625 232.48956Q35.90625 233.05206 35.90625 233.91144Q35.90625 234.80206 36.296875 235.30206Q36.671875 235.80206 37.296875 235.80206Q37.890625 235.80206 38.1875 235.33331Q38.484375 234.86456 38.765625 233.64581Q39.03125 232.42706 39.40625 231.67706Q39.78125 230.91144 40.3125 230.55206Q40.84375 230.19269 41.609375 230.19269Q42.890625 230.19269 43.65625 231.20831Q44.421875 232.22394 44.421875 233.84894Q44.421875 234.98956 44.015625 235.88019Q43.609375 236.75519 42.890625 237.25519Q42.171875 237.75519 41.328125 237.75519L41.328125 236.11456Q42.140625 236.08331 42.625 235.47394Q43.09375 234.84894 43.09375 233.84894Q43.09375 232.92706 42.71875 232.38019Q42.34375 231.81769 41.734375 231.81769ZM42.015625 219.92706L34.734375 218.09894L34.734375 216.47394L44.25 219.23956L44.25 220.56769L37.046875 222.88019L44.25 225.13019L44.25 226.44269L34.734375 229.20831L34.734375 227.58331L41.859375 225.70831L34.734375 223.50519L34.734375 222.19269L42.015625 219.92706ZM44.421875 210.41144Q44.421875 212.33331 43.15625 213.55206Q41.890625 214.77081 39.765625 214.77081L39.453125 214.77081Q38.046875 214.77081 36.9375 214.22394Q35.828125 213.67706 35.203125 212.70831Q34.5625 211.73956 34.5625 210.61456Q34.5625 208.75519 35.78125 207.72394Q37.0 206.69269 39.28125 206.69269L39.953125 206.69269L39.953125 213.14581Q41.359375 213.09894 42.234375 212.31769Q43.09375 211.53644 43.09375 210.31769Q43.09375 209.45831 42.75 208.86456Q42.390625 208.25519 41.8125 207.81769L42.59375 206.81769Q44.421875 208.02081 44.421875 210.41144ZM35.90625 210.61456Q35.90625 211.59894 36.625 212.27081Q37.328125 212.92706 38.625 213.08331L38.625 208.31769L38.5 208.31769Q37.265625 208.39581 36.59375 208.98956Q35.90625 209.58331 35.90625 210.61456ZM36.203125 199.75519Q36.140625 200.13019 36.140625 200.55206Q36.140625 202.16144 37.5 202.72394L44.25 202.72394L44.25 204.34894L34.734375 204.34894L34.734375 202.77081L35.84375 202.73956Q34.5625 201.94269 34.5625 200.47394Q34.5625 200.00519 34.6875 199.75519L36.203125 199.75519ZM41.734375 192.81769Q41.0625 192.81769 40.703125 193.31769Q40.34375 193.80206 40.078125 195.03644Q39.8125 196.27081 39.453125 197.00519Q39.078125 197.72394 38.5625 198.08331Q38.046875 198.42706 37.34375 198.42706Q36.1875 198.42706 35.375 197.44269Q34.5625 196.44269 34.5625 194.91144Q34.5625 193.28644 35.40625 192.28644Q36.234375 191.27081 37.53125 191.27081L37.53125 192.91144Q36.859375 192.91144 36.390625 193.48956Q35.90625 194.05206 35.90625 194.91144Q35.90625 195.80206 36.296875 196.30206Q36.671875 196.80206 37.296875 196.80206Q37.890625 196.80206 38.1875 196.33331Q38.484375 195.86456 38.765625 194.64581Q39.03125 193.42706 39.40625 192.67706Q39.78125 191.91144 40.3125 191.55206Q40.84375 191.19269 41.609375 191.19269Q42.890625 191.19269 43.65625 192.20831Q44.421875 193.22394 44.421875 194.84894Q44.421875 195.98956 44.015625 196.88019Q43.609375 197.75519 42.890625 198.25519Q42.171875 198.75519 41.328125 198.75519L41.328125 197.11456Q42.140625 197.08331 42.625 196.47394Q43.09375 195.84894 43.09375 194.84894Q43.09375 193.92706 42.71875 193.38019Q42.34375 192.81769 41.734375 192.81769Z" fill-rule="nonzero"/><path fill="#273138" d="M96.3125 448.60938Q96.3125 450.51562 95.65625 451.45312Q95.015625 452.375 93.625 452.375Q92.265625 452.375 91.609375 451.46875Q90.953125 450.5625 90.921875 448.75L90.921875 447.3125Q90.921875 445.42188 91.5625 444.51562Q92.21875 443.59375 93.609375 443.59375Q94.984375 443.59375 95.640625 444.48438Q96.296875 445.35938 96.3125 447.20312L96.3125 448.60938ZM95.21875 447.125Q95.21875 445.75 94.828125 445.125Q94.453125 444.48438 93.609375 444.48438Q92.78125 444.48438 92.390625 445.125Q92.015625 445.75 92.015625 447.04688L92.015625 448.78125Q92.015625 450.15625 92.40625 450.82812Q92.8125 451.48438 93.625 451.48438Q94.421875 451.48438 94.8125 450.85938Q95.203125 450.23438 95.21875 448.90625L95.21875 447.125Z" fill-rule="nonzero"/><path fill="#273138" d="M91.453125 373.8021L91.890625 369.5521L96.265625 369.5521L96.265625 370.5521L92.8125 370.5521L92.546875 372.88022Q93.1875 372.50522 93.984375 372.50522Q95.140625 372.50522 95.828125 373.28647Q96.515625 374.0521 96.515625 375.3646Q96.515625 376.6771 95.796875 377.44272Q95.09375 378.20834 93.8125 378.20834Q92.6875 378.20834 91.96875 377.58334Q91.25 376.94272 91.15625 375.83334L92.171875 375.83334Q92.28125 376.56772 92.703125 376.94272Q93.125 377.31772 93.8125 377.31772Q94.5625 377.31772 95.0 376.8021Q95.4375 376.28647 95.4375 375.38022Q95.4375 374.52084 94.96875 374.00522Q94.5 373.4896 93.71875 373.4896Q93.015625 373.4896 92.609375 373.78647L92.328125 374.02084L91.453125 373.8021Z" fill-rule="nonzero"/><path fill="#273138" d="M87.515625 303.91666L86.4375 303.91666L86.4375 296.6979L84.25 297.49478L84.25 296.5104L87.359375 295.33853L87.515625 295.33853L87.515625 303.91666ZM96.3125 300.27603Q96.3125 302.18228 95.65625 303.11978Q95.015625 304.04166 93.625 304.04166Q92.265625 304.04166 91.609375 303.1354Q90.953125 302.22916 90.921875 300.41666L90.921875 298.97916Q90.921875 297.08853 91.5625 296.18228Q92.21875 295.2604 93.609375 295.2604Q94.984375 295.2604 95.640625 296.15103Q96.296875 297.02603 96.3125 298.86978L96.3125 300.27603ZM95.21875 298.79166Q95.21875 297.41666 94.828125 296.79166Q94.453125 296.15103 93.609375 296.15103Q92.78125 296.15103 92.390625 296.79166Q92.015625 297.41666 92.015625 298.71353L92.015625 300.4479Q92.015625 301.8229 92.40625 302.49478Q92.8125 303.15103 93.625 303.15103Q94.421875 303.15103 94.8125 302.52603Q95.203125 301.90103 95.21875 300.5729L95.21875 298.79166Z" fill-rule="nonzero"/><path fill="#273138" d="M87.515625 229.75L86.4375 229.75L86.4375 222.53125L84.25 223.32812L84.25 222.34375L87.359375 221.17188L87.515625 221.17188L87.515625 229.75ZM91.453125 225.46875L91.890625 221.21875L96.265625 221.21875L96.265625 222.21875L92.8125 222.21875L92.546875 224.54688Q93.1875 224.17188 93.984375 224.17188Q95.140625 224.17188 95.828125 224.95312Q96.515625 225.71875 96.515625 227.03125Q96.515625 228.34375 95.796875 229.10938Q95.09375 229.875 93.8125 229.875Q92.6875 229.875 91.96875 229.25Q91.25 228.60938 91.15625 227.5L92.171875 227.5Q92.28125 228.23438 92.703125 228.60938Q93.125 228.98438 93.8125 228.98438Q94.5625 228.98438 95.0 228.46875Q95.4375 227.95312 95.4375 227.04688Q95.4375 226.1875 94.96875 225.67188Q94.5 225.15625 93.71875 225.15625Q93.015625 225.15625 92.609375 225.45312L92.328125 225.6875L91.453125 225.46875Z" fill-rule="nonzero"/><path fill="#273138" d="M89.546875 155.58333L83.953125 155.58333L83.953125 154.80208L86.90625 151.52083Q87.5625 150.77083 87.8125 150.3177Q88.0625 149.84895 88.0625 149.34895Q88.0625 148.67708 87.65625 148.2552Q87.265625 147.8177 86.578125 147.8177Q85.78125 147.8177 85.328125 148.28645Q84.875 148.73958 84.875 149.5677L83.796875 149.5677Q83.796875 148.3802 84.546875 147.66145Q85.3125 146.92708 86.578125 146.92708Q87.78125 146.92708 88.46875 147.55208Q89.15625 148.17708 89.15625 149.22395Q89.15625 150.47395 87.546875 152.22395L85.265625 154.6927L89.546875 154.6927L89.546875 155.58333ZM96.3125 151.9427Q96.3125 153.84895 95.65625 154.78645Q95.015625 155.70833 93.625 155.70833Q92.265625 155.70833 91.609375 154.80208Q90.953125 153.89583 90.921875 152.08333L90.921875 150.64583Q90.921875 148.7552 91.5625 147.84895Q92.21875 146.92708 93.609375 146.92708Q94.984375 146.92708 95.640625 147.8177Q96.296875 148.6927 96.3125 150.53645L96.3125 151.9427ZM95.21875 150.45833Q95.21875 149.08333 94.828125 148.45833Q94.453125 147.8177 93.609375 147.8177Q92.78125 147.8177 92.390625 148.45833Q92.015625 149.08333 92.015625 150.3802L92.015625 152.11458Q92.015625 153.48958 92.40625 154.16145Q92.8125 154.8177 93.625 154.8177Q94.421875 154.8177 94.8125 154.1927Q95.203125 153.5677 95.21875 152.23958L95.21875 150.45833Z" fill-rule="nonzero"/><path fill="#273138" d="M89.546875 81.416664L83.953125 81.416664L83.953125 80.635414L86.90625 77.354164Q87.5625 76.604164 87.8125 76.15104Q88.0625 75.68229 88.0625 75.18229Q88.0625 74.510414 87.65625 74.08854Q87.265625 73.65104 86.578125 73.65104Q85.78125 73.65104 85.328125 74.11979Q84.875 74.572914 84.875 75.40104L83.796875 75.40104Q83.796875 74.21354 84.546875 73.49479Q85.3125 72.760414 86.578125 72.760414Q87.78125 72.760414 88.46875 73.385414Q89.15625 74.010414 89.15625 75.05729Q89.15625 76.30729 87.546875 78.05729L85.265625 80.52604L89.546875 80.52604L89.546875 81.416664ZM91.453125 77.135414L91.890625 72.885414L96.265625 72.885414L96.265625 73.885414L92.8125 73.885414L92.546875 76.21354Q93.1875 75.83854 93.984375 75.83854Q95.140625 75.83854 95.828125 76.61979Q96.515625 77.385414 96.515625 78.697914Q96.515625 80.010414 95.796875 80.77604Q95.09375 81.541664 93.8125 81.541664Q92.6875 81.541664 91.96875 80.916664Q91.25 80.27604 91.15625 79.166664L92.171875 79.166664Q92.28125 79.90104 92.703125 80.27604Q93.125 80.65104 93.8125 80.65104Q94.5625 80.65104 95.0 80.135414Q95.4375 79.61979 95.4375 78.71354Q95.4375 77.854164 94.96875 77.33854Q94.5 76.822914 93.71875 76.822914Q93.015625 76.822914 92.609375 77.11979L92.328125 77.354164L91.453125 77.135414Z" fill-rule="nonzero"/><path fill="#273138" d="M160.95604 458.14062L158.20604 458.14062L158.20604 465.75L157.09666 465.75L157.09666 458.14062L154.34666 458.14062L154.34666 457.21875L160.95604 457.21875L160.95604 458.14062ZM165.79979 465.75Q165.70604 465.5625 165.64354 465.07812Q164.89354 465.875 163.84666 465.875Q162.90916 465.875 162.29979 465.34375Q161.70604 464.8125 161.70604 463.98438Q161.70604 463.0 162.45604 462.45312Q163.20604 461.90625 164.58104 461.90625L165.62791 461.90625L165.62791 461.40625Q165.62791 460.84375 165.28416 460.51562Q164.95604 460.17188 164.28416 460.17188Q163.70604 460.17188 163.31541 460.46875Q162.92479 460.75 162.92479 461.17188L161.83104 461.17188Q161.83104 460.6875 162.15916 460.25Q162.50291 459.8125 163.08104 459.5625Q163.65916 459.29688 164.34666 459.29688Q165.45604 459.29688 166.06541 459.84375Q166.69041 460.39062 166.72166 461.34375L166.72166 464.26562Q166.72166 465.14062 166.94041 465.65625L166.94041 465.75L165.79979 465.75ZM164.00291 464.92188Q164.51854 464.92188 164.97166 464.65625Q165.42479 464.39062 165.62791 463.96875L165.62791 462.67188L164.78416 462.67188Q162.78416 462.67188 162.78416 463.84375Q162.78416 464.34375 163.12791 464.64062Q163.47166 464.92188 164.00291 464.92188ZM171.42479 464.98438Q172.00291 464.98438 172.44041 464.64062Q172.87791 464.28125 172.92479 463.75L173.95604 463.75Q173.92479 464.29688 173.56541 464.79688Q173.22166 465.28125 172.64354 465.57812Q172.08104 465.875 171.42479 465.875Q170.12791 465.875 169.36229 465.01562Q168.61229 464.14062 168.61229 462.64062L168.61229 462.45312Q168.61229 461.53125 168.94041 460.8125Q169.28416 460.09375 169.90916 459.70312Q170.54979 459.29688 171.42479 459.29688Q172.48729 459.29688 173.19041 459.9375Q173.90916 460.5625 173.95604 461.59375L172.92479 461.59375Q172.87791 460.96875 172.45604 460.57812Q172.03416 460.1875 171.42479 460.1875Q170.59666 460.1875 170.14354 460.78125Q169.69041 461.375 169.69041 462.5L169.69041 462.70312Q169.69041 463.79688 170.14354 464.39062Q170.59666 464.98438 171.42479 464.98438ZM176.36229 457.875L176.36229 459.40625L177.53416 459.40625L177.53416 460.25L176.36229 460.25L176.36229 464.17188Q176.36229 464.5625 176.51854 464.75Q176.67479 464.9375 177.04979 464.9375Q177.23729 464.9375 177.56541 464.875L177.56541 465.75Q177.14354 465.875 176.73729 465.875Q176.01854 465.875 175.64354 465.4375Q175.26854 464.98438 175.26854 464.17188L175.26854 460.25L174.11229 460.25L174.11229 459.40625L175.26854 459.40625L175.26854 457.875L176.36229 457.875ZM180.06541 465.75L178.98729 465.75L178.98729 459.40625L180.06541 459.40625L180.06541 465.75ZM178.89354 457.73438Q178.89354 457.46875 179.04979 457.28125Q179.22166 457.09375 179.53416 457.09375Q179.84666 457.09375 180.00291 457.28125Q180.17479 457.46875 180.17479 457.73438Q180.17479 457.98438 180.00291 458.17188Q179.84666 458.34375 179.53416 458.34375Q179.22166 458.34375 179.04979 458.17188Q178.89354 457.98438 178.89354 457.73438ZM183.06541 465.75L181.98729 465.75L181.98729 456.75L183.06541 456.75L183.06541 465.75ZM187.51854 465.875Q186.22166 465.875 185.40916 465.03125Q184.61229 464.17188 184.61229 462.75L184.61229 462.5625Q184.61229 461.60938 184.97166 460.875Q185.33104 460.125 185.97166 459.71875Q186.62791 459.29688 187.37791 459.29688Q188.61229 459.29688 189.29979 460.10938Q189.98729 460.92188 189.98729 462.4375L189.98729 462.89062L185.69041 462.89062Q185.72166 463.82812 186.23729 464.40625Q186.76854 464.98438 187.58104 464.98438Q188.14354 464.98438 188.53416 464.75Q188.94041 464.51562 189.25291 464.125L189.90916 464.64062Q189.11229 465.875 187.51854 465.875ZM187.37791 460.1875Q186.72166 460.1875 186.26854 460.67188Q185.83104 461.14062 185.73729 462.0L188.90916 462.0L188.90916 461.92188Q188.86229 461.09375 188.45604 460.64062Q188.06541 460.1875 187.37791 460.1875ZM194.42479 465.75L194.42479 460.25L193.42479 460.25L193.42479 459.40625L194.42479 459.40625L194.42479 458.76562Q194.42479 457.73438 194.95604 457.1875Q195.50291 456.625 196.50291 456.625Q196.87791 456.625 197.25291 456.71875L197.19041 457.60938Q196.90916 457.54688 196.61229 457.54688Q196.08104 457.54688 195.78416 457.85938Q195.50291 458.17188 195.50291 458.73438L195.50291 459.40625L196.86229 459.40625L196.86229 460.25L195.50291 460.25L195.50291 465.75L194.42479 465.75ZM200.51854 465.875Q199.22166 465.875 198.40916 465.03125Q197.61229 464.17188 197.61229 462.75L197.61229 462.5625Q197.61229 461.60938 197.97166 460.875Q198.33104 460.125 198.97166 459.71875Q199.62791 459.29688 200.37791 459.29688Q201.61229 459.29688 202.29979 460.10938Q202.98729 460.92188 202.98729 462.4375L202.98729 462.89062L198.69041 462.89062Q198.72166 463.82812 199.23729 464.40625Q199.76854 464.98438 200.58104 464.98438Q201.14354 464.98438 201.53416 464.75Q201.94041 464.51562 202.25291 464.125L202.90916 464.64062Q202.11229 465.875 200.51854 465.875ZM200.37791 460.1875Q199.72166 460.1875 199.26854 460.67188Q198.83104 461.14062 198.73729 462.0L201.90916 462.0L201.90916 461.92188Q201.86229 461.09375 201.45604 460.64062Q201.06541 460.1875 200.37791 460.1875ZM206.51854 465.875Q205.22166 465.875 204.40916 465.03125Q203.61229 464.17188 203.61229 462.75L203.61229 462.5625Q203.61229 461.60938 203.97166 460.875Q204.33104 460.125 204.97166 459.71875Q205.62791 459.29688 206.37791 459.29688Q207.61229 459.29688 208.29979 460.10938Q208.98729 460.92188 208.98729 462.4375L208.98729 462.89062L204.69041 462.89062Q204.72166 463.82812 205.23729 464.40625Q205.76854 464.98438 206.58104 464.98438Q207.14354 464.98438 207.53416 464.75Q207.94041 464.51562 208.25291 464.125L208.90916 464.64062Q208.11229 465.875 206.51854 465.875ZM206.37791 460.1875Q205.72166 460.1875 205.26854 460.67188Q204.83104 461.14062 204.73729 462.0L207.90916 462.0L207.90916 461.92188Q207.86229 461.09375 207.45604 460.64062Q207.06541 460.1875 206.37791 460.1875ZM209.62791 462.53125Q209.62791 461.0625 210.31541 460.1875Q211.00291 459.29688 212.12791 459.29688Q213.23729 459.29688 213.89354 460.04688L213.89354 456.75L214.97166 456.75L214.97166 465.75L213.97166 465.75L213.92479 465.0625Q213.26854 465.875 212.11229 465.875Q211.01854 465.875 210.31541 464.96875Q209.62791 464.0625 209.62791 462.60938L209.62791 462.53125ZM210.70604 462.65625Q210.70604 463.73438 211.14354 464.34375Q211.59666 464.95312 212.37791 464.95312Q213.40916 464.95312 213.89354 464.01562L213.89354 461.10938Q213.40916 460.21875 212.39354 460.21875Q211.59666 460.21875 211.14354 460.82812Q210.70604 461.4375 210.70604 462.65625ZM222.25291 462.65625Q222.25291 464.10938 221.58104 465.0Q220.92479 465.875 219.79979 465.875Q218.59666 465.875 217.94041 465.01562L217.87791 465.75L216.89354 465.75L216.89354 456.75L217.97166 456.75L217.97166 460.10938Q218.62791 459.29688 219.78416 459.29688Q220.94041 459.29688 221.59666 460.17188Q222.25291 461.03125 222.25291 462.5625L222.25291 462.65625ZM221.17479 462.53125Q221.17479 461.42188 220.73729 460.82812Q220.31541 460.21875 219.51854 460.21875Q218.44041 460.21875 217.97166 461.20312L217.97166 463.95312Q218.47166 464.95312 219.51854 464.95312Q220.29979 464.95312 220.73729 464.34375Q221.17479 463.73438 221.17479 462.53125ZM227.79979 465.75Q227.70604 465.5625 227.64354 465.07812Q226.89354 465.875 225.84666 465.875Q224.90916 465.875 224.29979 465.34375Q223.70604 464.8125 223.70604 463.98438Q223.70604 463.0 224.45604 462.45312Q225.20604 461.90625 226.58104 461.90625L227.62791 461.90625L227.62791 461.40625Q227.62791 460.84375 227.28416 460.51562Q226.95604 460.17188 226.28416 460.17188Q225.70604 460.17188 225.31541 460.46875Q224.92479 460.75 224.92479 461.17188L223.83104 461.17188Q223.83104 460.6875 224.15916 460.25Q224.50291 459.8125 225.08104 459.5625Q225.65916 459.29688 226.34666 459.29688Q227.45604 459.29688 228.06541 459.84375Q228.69041 460.39062 228.72166 461.34375L228.72166 464.26562Q228.72166 465.14062 228.94041 465.65625L228.94041 465.75L227.79979 465.75ZM226.00291 464.92188Q226.51854 464.92188 226.97166 464.65625Q227.42479 464.39062 227.62791 463.96875L227.62791 462.67188L226.78416 462.67188Q224.78416 462.67188 224.78416 463.84375Q224.78416 464.34375 225.12791 464.64062Q225.47166 464.92188 226.00291 464.92188ZM233.42479 464.98438Q234.00291 464.98438 234.44041 464.64062Q234.87791 464.28125 234.92479 463.75L235.95604 463.75Q235.92479 464.29688 235.56541 464.79688Q235.22166 465.28125 234.64354 465.57812Q234.08104 465.875 233.42479 465.875Q232.12791 465.875 231.36229 465.01562Q230.61229 464.14062 230.61229 462.64062L230.61229 462.45312Q230.61229 461.53125 230.94041 460.8125Q231.28416 460.09375 231.90916 459.70312Q232.54979 459.29688 233.42479 459.29688Q234.48729 459.29688 235.19041 459.9375Q235.90916 460.5625 235.95604 461.59375L234.92479 461.59375Q234.87791 460.96875 234.45604 460.57812Q234.03416 460.1875 233.42479 460.1875Q232.59666 460.1875 232.14354 460.78125Q231.69041 461.375 231.69041 462.5L231.69041 462.70312Q231.69041 463.79688 232.14354 464.39062Q232.59666 464.98438 233.42479 464.98438ZM238.65916 462.8125L237.97166 463.51562L237.97166 465.75L236.89354 465.75L236.89354 456.75L237.97166 456.75L237.97166 462.1875L238.54979 461.5L240.53416 459.40625L241.84666 459.40625L239.37791 462.0625L242.14354 465.75L240.86229 465.75L238.65916 462.8125Z" fill-rule="nonzero"/><path fill="#273138" d="M324.1577 464.82812L328.2046 464.82812L328.2046 465.75L323.0171 465.75L323.0171 457.21875L324.1577 457.21875L324.1577 464.82812ZM330.0327 465.75L328.9546 465.75L328.9546 459.40625L330.0327 459.40625L330.0327 465.75ZM328.86084 457.73438Q328.86084 457.46875 329.0171 457.28125Q329.18896 457.09375 329.50146 457.09375Q329.81396 457.09375 329.9702 457.28125Q330.1421 457.46875 330.1421 457.73438Q330.1421 457.98438 329.9702 458.17188Q329.81396 458.34375 329.50146 458.34375Q329.18896 458.34375 329.0171 458.17188Q328.86084 457.98438 328.86084 457.73438ZM331.5952 462.53125Q331.5952 461.04688 332.2827 460.17188Q332.9702 459.29688 334.0952 459.29688Q335.25146 459.29688 335.9077 460.10938L335.9546 459.40625L336.9546 459.40625L336.9546 465.59375Q336.9546 466.82812 336.2202 467.53125Q335.48584 468.25 334.2671 468.25Q333.5796 468.25 332.92334 467.95312Q332.2671 467.65625 331.92334 467.15625L332.48584 466.5Q333.17334 467.35938 334.18896 467.35938Q334.9702 467.35938 335.4077 466.90625Q335.86084 466.46875 335.86084 465.65625L335.86084 465.10938Q335.2046 465.875 334.0796 465.875Q332.9702 465.875 332.2827 464.98438Q331.5952 464.07812 331.5952 462.53125ZM332.68896 462.65625Q332.68896 463.71875 333.12646 464.34375Q333.56396 464.95312 334.36084 464.95312Q335.37646 464.95312 335.86084 464.01562L335.86084 461.125Q335.36084 460.21875 334.36084 460.21875Q333.5796 460.21875 333.12646 460.82812Q332.68896 461.4375 332.68896 462.65625ZM339.93896 460.17188Q340.6577 459.29688 341.81396 459.29688Q343.8296 459.29688 343.8452 461.5625L343.8452 465.75L342.75146 465.75L342.75146 461.54688Q342.75146 460.875 342.43896 460.54688Q342.1421 460.21875 341.48584 460.21875Q340.9546 460.21875 340.54834 460.5Q340.1577 460.78125 339.93896 461.23438L339.93896 465.75L338.86084 465.75L338.86084 456.75L339.93896 456.75L339.93896 460.17188ZM347.3296 457.875L347.3296 459.40625L348.50146 459.40625L348.50146 460.25L347.3296 460.25L347.3296 464.17188Q347.3296 464.5625 347.48584 464.75Q347.6421 464.9375 348.0171 464.9375Q348.2046 464.9375 348.5327 464.875L348.5327 465.75Q348.11084 465.875 347.7046 465.875Q346.98584 465.875 346.61084 465.4375Q346.23584 464.98438 346.23584 464.17188L346.23584 460.25L345.0796 460.25L345.0796 459.40625L346.23584 459.40625L346.23584 457.875L347.3296 457.875ZM353.54834 464.0625Q353.54834 463.625 353.2046 463.39062Q352.87646 463.14062 352.04834 462.96875Q351.23584 462.79688 350.75146 462.54688Q350.2671 462.29688 350.0327 461.96875Q349.81396 461.625 349.81396 461.15625Q349.81396 460.375 350.4702 459.84375Q351.12646 459.29688 352.1577 459.29688Q353.23584 459.29688 353.8921 459.85938Q354.56396 460.40625 354.56396 461.26562L353.48584 461.26562Q353.48584 460.82812 353.0952 460.51562Q352.7202 460.1875 352.1577 460.1875Q351.56396 460.1875 351.2202 460.45312Q350.8921 460.70312 350.8921 461.10938Q350.8921 461.5 351.2046 461.70312Q351.5171 461.90625 352.3296 462.09375Q353.1421 462.26562 353.6421 462.51562Q354.1421 462.76562 354.37646 463.125Q354.62646 463.48438 354.62646 463.98438Q354.62646 464.84375 353.93896 465.35938Q353.2671 465.875 352.18896 465.875Q351.42334 465.875 350.8296 465.60938Q350.25146 465.32812 349.92334 464.84375Q349.5952 464.35938 349.5952 463.79688L350.67334 463.79688Q350.7046 464.34375 351.11084 464.67188Q351.5171 464.98438 352.18896 464.98438Q352.79834 464.98438 353.17334 464.73438Q353.54834 464.48438 353.54834 464.0625Z" fill-rule="nonzero"/><path fill="#273138" d="M429.89062 458.14062L427.14062 458.14062L427.14062 465.75L426.03125 465.75L426.03125 458.14062L423.28125 458.14062L423.28125 457.21875L429.89062 457.21875L429.89062 458.14062ZM433.45312 465.875Q432.15625 465.875 431.34375 465.03125Q430.54688 464.17188 430.54688 462.75L430.54688 462.5625Q430.54688 461.60938 430.90625 460.875Q431.26562 460.125 431.90625 459.71875Q432.5625 459.29688 433.3125 459.29688Q434.54688 459.29688 435.23438 460.10938Q435.92188 460.92188 435.92188 462.4375L435.92188 462.89062L431.625 462.89062Q431.65625 463.82812 432.17188 464.40625Q432.70312 464.98438 433.51562 464.98438Q434.07812 464.98438 434.46875 464.75Q434.875 464.51562 435.1875 464.125L435.84375 464.64062Q435.04688 465.875 433.45312 465.875ZM433.3125 460.1875Q432.65625 460.1875 432.20312 460.67188Q431.76562 461.14062 431.67188 462.0L434.84375 462.0L434.84375 461.92188Q434.79688 461.09375 434.39062 460.64062Q434.0 460.1875 433.3125 460.1875ZM437.84375 459.40625L437.875 460.10938Q438.5625 459.29688 439.75 459.29688Q441.07812 459.29688 441.5625 460.3125Q441.875 459.85938 442.375 459.57812Q442.89062 459.29688 443.57812 459.29688Q445.67188 459.29688 445.70312 461.5L445.70312 465.75L444.625 465.75L444.625 461.5625Q444.625 460.89062 444.3125 460.5625Q444.0 460.21875 443.26562 460.21875Q442.65625 460.21875 442.25 460.57812Q441.85938 460.9375 441.79688 461.54688L441.79688 465.75L440.71875 465.75L440.71875 461.59375Q440.71875 460.21875 439.35938 460.21875Q438.29688 460.21875 437.90625 461.125L437.90625 465.75L436.8125 465.75L436.8125 459.40625L437.84375 459.40625ZM453.17188 462.65625Q453.17188 464.09375 452.51562 464.98438Q451.85938 465.875 450.71875 465.875Q449.5625 465.875 448.90625 465.14062L448.90625 468.1875L447.82812 468.1875L447.82812 459.40625L448.8125 459.40625L448.85938 460.10938Q449.53125 459.29688 450.70312 459.29688Q451.84375 459.29688 452.5 460.15625Q453.17188 461.01562 453.17188 462.54688L453.17188 462.65625ZM452.09375 462.53125Q452.09375 461.45312 451.625 460.84375Q451.17188 460.21875 450.375 460.21875Q449.39062 460.21875 448.90625 461.07812L448.90625 464.10938Q449.39062 464.98438 450.39062 464.98438Q451.17188 464.98438 451.625 464.375Q452.09375 463.75 452.09375 462.53125ZM457.45312 465.875Q456.15625 465.875 455.34375 465.03125Q454.54688 464.17188 454.54688 462.75L454.54688 462.5625Q454.54688 461.60938 454.90625 460.875Q455.26562 460.125 455.90625 459.71875Q456.5625 459.29688 457.3125 459.29688Q458.54688 459.29688 459.23438 460.10938Q459.92188 460.92188 459.92188 462.4375L459.92188 462.89062L455.625 462.89062Q455.65625 463.82812 456.17188 464.40625Q456.70312 464.98438 457.51562 464.98438Q458.07812 464.98438 458.46875 464.75Q458.875 464.51562 459.1875 464.125L459.84375 464.64062Q459.04688 465.875 457.45312 465.875ZM457.3125 460.1875Q456.65625 460.1875 456.20312 460.67188Q455.76562 461.14062 455.67188 462.0L458.84375 462.0L458.84375 461.92188Q458.79688 461.09375 458.39062 460.64062Q458.0 460.1875 457.3125 460.1875ZM463.89062 460.375Q463.64062 460.34375 463.35938 460.34375Q462.28125 460.34375 461.90625 461.25L461.90625 465.75L460.82812 465.75L460.82812 459.40625L461.875 459.40625L461.89062 460.14062Q462.42188 459.29688 463.40625 459.29688Q463.71875 459.29688 463.89062 459.375L463.89062 460.375ZM468.73438 465.75Q468.64062 465.5625 468.57812 465.07812Q467.82812 465.875 466.78125 465.875Q465.84375 465.875 465.23438 465.34375Q464.64062 464.8125 464.64062 463.98438Q464.64062 463.0 465.39062 462.45312Q466.14062 461.90625 467.51562 461.90625L468.5625 461.90625L468.5625 461.40625Q468.5625 460.84375 468.21875 460.51562Q467.89062 460.17188 467.21875 460.17188Q466.64062 460.17188 466.25 460.46875Q465.85938 460.75 465.85938 461.17188L464.76562 461.17188Q464.76562 460.6875 465.09375 460.25Q465.4375 459.8125 466.01562 459.5625Q466.59375 459.29688 467.28125 459.29688Q468.39062 459.29688 469.0 459.84375Q469.625 460.39062 469.65625 461.34375L469.65625 464.26562Q469.65625 465.14062 469.875 465.65625L469.875 465.75L468.73438 465.75ZM466.9375 464.92188Q467.45312 464.92188 467.90625 464.65625Q468.35938 464.39062 468.5625 463.96875L468.5625 462.67188L467.71875 462.67188Q465.71875 462.67188 465.71875 463.84375Q465.71875 464.34375 466.0625 464.64062Q466.40625 464.92188 466.9375 464.92188ZM473.29688 457.875L473.29688 459.40625L474.46875 459.40625L474.46875 460.25L473.29688 460.25L473.29688 464.17188Q473.29688 464.5625 473.45312 464.75Q473.60938 464.9375 473.98438 464.9375Q474.17188 464.9375 474.5 464.875L474.5 465.75Q474.07812 465.875 473.67188 465.875Q472.95312 465.875 472.57812 465.4375Q472.20312 464.98438 472.20312 464.17188L472.20312 460.25L471.04688 460.25L471.04688 459.40625L472.20312 459.40625L472.20312 457.875L473.29688 457.875ZM479.73438 465.125Q479.10938 465.875 477.875 465.875Q476.85938 465.875 476.32812 465.28125Q475.79688 464.6875 475.79688 463.53125L475.79688 459.40625L476.875 459.40625L476.875 463.5Q476.875 464.95312 478.04688 464.95312Q479.29688 464.95312 479.70312 464.01562L479.70312 459.40625L480.79688 459.40625L480.79688 465.75L479.76562 465.75L479.73438 465.125ZM485.89062 460.375Q485.64062 460.34375 485.35938 460.34375Q484.28125 460.34375 483.90625 461.25L483.90625 465.75L482.82812 465.75L482.82812 459.40625L483.875 459.40625L483.89062 460.14062Q484.42188 459.29688 485.40625 459.29688Q485.71875 459.29688 485.89062 459.375L485.89062 460.375ZM489.45312 465.875Q488.15625 465.875 487.34375 465.03125Q486.54688 464.17188 486.54688 462.75L486.54688 462.5625Q486.54688 461.60938 486.90625 460.875Q487.26562 460.125 487.90625 459.71875Q488.5625 459.29688 489.3125 459.29688Q490.54688 459.29688 491.23438 460.10938Q491.92188 460.92188 491.92188 462.4375L491.92188 462.89062L487.625 462.89062Q487.65625 463.82812 488.17188 464.40625Q488.70312 464.98438 489.51562 464.98438Q490.07812 464.98438 490.46875 464.75Q490.875 464.51562 491.1875 464.125L491.84375 464.64062Q491.04688 465.875 489.45312 465.875ZM489.3125 460.1875Q488.65625 460.1875 488.20312 460.67188Q487.76562 461.14062 487.67188 462.0L490.84375 462.0L490.84375 461.92188Q490.79688 461.09375 490.39062 460.64062Q490.0 460.1875 489.3125 460.1875ZM498.35938 464.98438Q498.9375 464.98438 499.375 464.64062Q499.8125 464.28125 499.85938 463.75L500.89062 463.75Q500.85938 464.29688 500.5 464.79688Q500.15625 465.28125 499.57812 465.57812Q499.01562 465.875 498.35938 465.875Q497.0625 465.875 496.29688 465.01562Q495.54688 464.14062 495.54688 462.64062L495.54688 462.45312Q495.54688 461.53125 495.875 460.8125Q496.21875 460.09375 496.84375 459.70312Q497.48438 459.29688 498.35938 459.29688Q499.42188 459.29688 500.125 459.9375Q500.84375 460.5625 500.89062 461.59375L499.85938 461.59375Q499.8125 460.96875 499.39062 460.57812Q498.96875 460.1875 498.35938 460.1875Q497.53125 460.1875 497.07812 460.78125Q496.625 461.375 496.625 462.5L496.625 462.70312Q496.625 463.79688 497.07812 464.39062Q497.53125 464.98438 498.35938 464.98438ZM502.90625 460.17188Q503.625 459.29688 504.78125 459.29688Q506.79688 459.29688 506.8125 461.5625L506.8125 465.75L505.71875 465.75L505.71875 461.54688Q505.71875 460.875 505.40625 460.54688Q505.10938 460.21875 504.45312 460.21875Q503.92188 460.21875 503.51562 460.5Q503.125 460.78125 502.90625 461.23438L502.90625 465.75L501.82812 465.75L501.82812 456.75L502.90625 456.75L502.90625 460.17188ZM512.7344 465.75Q512.6406 465.5625 512.5781 465.07812Q511.82812 465.875 510.78125 465.875Q509.84375 465.875 509.23438 465.34375Q508.64062 464.8125 508.64062 463.98438Q508.64062 463.0 509.39062 462.45312Q510.14062 461.90625 511.51562 461.90625L512.5625 461.90625L512.5625 461.40625Q512.5625 460.84375 512.21875 460.51562Q511.89062 460.17188 511.21875 460.17188Q510.64062 460.17188 510.25 460.46875Q509.85938 460.75 509.85938 461.17188L508.76562 461.17188Q508.76562 460.6875 509.09375 460.25Q509.4375 459.8125 510.01562 459.5625Q510.59375 459.29688 511.28125 459.29688Q512.3906 459.29688 513.0 459.84375Q513.625 460.39062 513.65625 461.34375L513.65625 464.26562Q513.65625 465.14062 513.875 465.65625L513.875 465.75L512.7344 465.75ZM510.9375 464.92188Q511.45312 464.92188 511.90625 464.65625Q512.3594 464.39062 512.5625 463.96875L512.5625 462.67188L511.71875 462.67188Q509.71875 462.67188 509.71875 463.84375Q509.71875 464.34375 510.0625 464.64062Q510.40625 464.92188 510.9375 464.92188ZM516.84375 459.40625L516.875 460.20312Q517.6094 459.29688 518.78125 459.29688Q520.7969 459.29688 520.8125 461.5625L520.8125 465.75L519.71875 465.75L519.71875 461.54688Q519.71875 460.875 519.40625 460.54688Q519.1094 460.21875 518.4531 460.21875Q517.9219 460.21875 517.5156 460.5Q517.125 460.78125 516.90625 461.23438L516.90625 465.75L515.8281 465.75L515.8281 459.40625L516.84375 459.40625ZM522.5625 462.53125Q522.5625 461.04688 523.25 460.17188Q523.9375 459.29688 525.0625 459.29688Q526.21875 459.29688 526.875 460.10938L526.9219 459.40625L527.9219 459.40625L527.9219 465.59375Q527.9219 466.82812 527.1875 467.53125Q526.4531 468.25 525.2344 468.25Q524.5469 468.25 523.8906 467.95312Q523.2344 467.65625 522.8906 467.15625L523.4531 466.5Q524.1406 467.35938 525.15625 467.35938Q525.9375 467.35938 526.375 466.90625Q526.8281 466.46875 526.8281 465.65625L526.8281 465.10938Q526.1719 465.875 525.0469 465.875Q523.9375 465.875 523.25 464.98438Q522.5625 464.07812 522.5625 462.53125ZM523.65625 462.65625Q523.65625 463.71875 524.09375 464.34375Q524.53125 464.95312 525.3281 464.95312Q526.34375 464.95312 526.8281 464.01562L526.8281 461.125Q526.3281 460.21875 525.3281 460.21875Q524.5469 460.21875 524.09375 460.82812Q523.65625 461.4375 523.65625 462.65625ZM532.4531 465.875Q531.15625 465.875 530.34375 465.03125Q529.5469 464.17188 529.5469 462.75L529.5469 462.5625Q529.5469 461.60938 529.90625 460.875Q530.2656 460.125 530.90625 459.71875Q531.5625 459.29688 532.3125 459.29688Q533.5469 459.29688 534.2344 460.10938Q534.9219 460.92188 534.9219 462.4375L534.9219 462.89062L530.625 462.89062Q530.65625 463.82812 531.1719 464.40625Q531.7031 464.98438 532.5156 464.98438Q533.0781 464.98438 533.46875 464.75Q533.875 464.51562 534.1875 464.125L534.84375 464.64062Q534.0469 465.875 532.4531 465.875ZM532.3125 460.1875Q531.65625 460.1875 531.2031 460.67188Q530.7656 461.14062 530.6719 462.0L533.84375 462.0L533.84375 461.92188Q533.7969 461.09375 533.3906 460.64062Q533.0 460.1875 532.3125 460.1875Z" fill-rule="nonzero"/><path fill="#273138" d="M600.4048 457.21875L603.20166 464.17188L605.9829 457.21875L607.45166 457.21875L607.45166 465.75L606.32666 465.75L606.32666 462.42188L606.43604 458.84375L603.62354 465.75L602.76416 465.75L599.9673 458.85938L600.07666 462.42188L600.07666 465.75L598.95166 465.75L598.95166 457.21875L600.4048 457.21875ZM612.70166 465.75Q612.6079 465.5625 612.5454 465.07812Q611.7954 465.875 610.74854 465.875Q609.81104 465.875 609.20166 465.34375Q608.6079 464.8125 608.6079 463.98438Q608.6079 463.0 609.3579 462.45312Q610.1079 461.90625 611.4829 461.90625L612.5298 461.90625L612.5298 461.40625Q612.5298 460.84375 612.18604 460.51562Q611.8579 460.17188 611.18604 460.17188Q610.6079 460.17188 610.2173 460.46875Q609.82666 460.75 609.82666 461.17188L608.7329 461.17188Q608.7329 460.6875 609.06104 460.25Q609.4048 459.8125 609.9829 459.5625Q610.56104 459.29688 611.24854 459.29688Q612.3579 459.29688 612.9673 459.84375Q613.5923 460.39062 613.62354 461.34375L613.62354 464.26562Q613.62354 465.14062 613.8423 465.65625L613.8423 465.75L612.70166 465.75ZM610.9048 464.92188Q611.4204 464.92188 611.87354 464.65625Q612.32666 464.39062 612.5298 463.96875L612.5298 462.67188L611.68604 462.67188Q609.68604 462.67188 609.68604 463.84375Q609.68604 464.34375 610.0298 464.64062Q610.37354 464.92188 610.9048 464.92188ZM618.8579 460.375Q618.6079 460.34375 618.32666 460.34375Q617.24854 460.34375 616.87354 461.25L616.87354 465.75L615.7954 465.75L615.7954 459.40625L616.8423 459.40625L616.8579 460.14062Q617.38916 459.29688 618.37354 459.29688Q618.68604 459.29688 618.8579 459.375L618.8579 460.375ZM621.56104 462.8125L620.87354 463.51562L620.87354 465.75L619.7954 465.75L619.7954 456.75L620.87354 456.75L620.87354 462.1875L621.45166 461.5L623.43604 459.40625L624.74854 459.40625L622.2798 462.0625L625.0454 465.75L623.76416 465.75L621.56104 462.8125ZM628.4204 465.875Q627.12354 465.875 626.31104 465.03125Q625.51416 464.17188 625.51416 462.75L625.51416 462.5625Q625.51416 461.60938 625.87354 460.875Q626.2329 460.125 626.87354 459.71875Q627.5298 459.29688 628.2798 459.29688Q629.51416 459.29688 630.20166 460.10938Q630.88916 460.92188 630.88916 462.4375L630.88916 462.89062L626.5923 462.89062Q626.62354 463.82812 627.13916 464.40625Q627.6704 464.98438 628.4829 464.98438Q629.0454 464.98438 629.43604 464.75Q629.8423 464.51562 630.1548 464.125L630.81104 464.64062Q630.01416 465.875 628.4204 465.875ZM628.2798 460.1875Q627.62354 460.1875 627.1704 460.67188Q626.7329 461.14062 626.63916 462.0L629.81104 462.0L629.81104 461.92188Q629.76416 461.09375 629.3579 460.64062Q628.9673 460.1875 628.2798 460.1875ZM634.8579 460.375Q634.6079 460.34375 634.32666 460.34375Q633.24854 460.34375 632.87354 461.25L632.87354 465.75L631.7954 465.75L631.7954 459.40625L632.8423 459.40625L632.8579 460.14062Q633.38916 459.29688 634.37354 459.29688Q634.68604 459.29688 634.8579 459.375L634.8579 460.375ZM639.4829 464.0625Q639.4829 463.625 639.13916 463.39062Q638.81104 463.14062 637.9829 462.96875Q637.1704 462.79688 636.68604 462.54688Q636.20166 462.29688 635.9673 461.96875Q635.74854 461.625 635.74854 461.15625Q635.74854 460.375 636.4048 459.84375Q637.06104 459.29688 638.0923 459.29688Q639.1704 459.29688 639.82666 459.85938Q640.49854 460.40625 640.49854 461.26562L639.4204 461.26562Q639.4204 460.82812 639.0298 460.51562Q638.6548 460.1875 638.0923 460.1875Q637.49854 460.1875 637.1548 460.45312Q636.82666 460.70312 636.82666 461.10938Q636.82666 461.5 637.13916 461.70312Q637.45166 461.90625 638.26416 462.09375Q639.07666 462.26562 639.57666 462.51562Q640.07666 462.76562 640.31104 463.125Q640.56104 463.48438 640.56104 463.98438Q640.56104 464.84375 639.87354 465.35938Q639.20166 465.875 638.12354 465.875Q637.3579 465.875 636.76416 465.60938Q636.18604 465.32812 635.8579 464.84375Q635.5298 464.35938 635.5298 463.79688L636.6079 463.79688Q636.63916 464.34375 637.0454 464.67188Q637.45166 464.98438 638.12354 464.98438Q638.7329 464.98438 639.1079 464.73438Q639.4829 464.48438 639.4829 464.0625Z" fill-rule="nonzero"/><path fill="#273138" d="M737.41895 465.75L737.41895 457.21875L739.8408 457.21875Q740.9502 457.21875 741.79395 457.71875Q742.6533 458.20312 743.1221 459.10938Q743.5908 460.01562 743.5908 461.20312L743.5908 461.73438Q743.5908 462.95312 743.1221 463.85938Q742.66895 464.76562 741.79395 465.25Q740.9346 465.73438 739.79395 465.75L737.41895 465.75ZM738.54395 458.14062L738.54395 464.82812L739.73145 464.82812Q741.0283 464.82812 741.7471 464.03125Q742.48145 463.21875 742.48145 461.71875L742.48145 461.21875Q742.48145 459.76562 741.79395 458.96875Q741.1221 458.15625 739.85645 458.14062L738.54395 458.14062ZM747.8877 465.875Q746.5908 465.875 745.7783 465.03125Q744.98145 464.17188 744.98145 462.75L744.98145 462.5625Q744.98145 461.60938 745.3408 460.875Q745.7002 460.125 746.3408 459.71875Q746.9971 459.29688 747.7471 459.29688Q748.98145 459.29688 749.66895 460.10938Q750.35645 460.92188 750.35645 462.4375L750.35645 462.89062L746.0596 462.89062Q746.0908 463.82812 746.60645 464.40625Q747.1377 464.98438 747.9502 464.98438Q748.5127 464.98438 748.9033 464.75Q749.3096 464.51562 749.6221 464.125L750.2783 464.64062Q749.48145 465.875 747.8877 465.875ZM747.7471 460.1875Q747.0908 460.1875 746.6377 460.67188Q746.2002 461.14062 746.10645 462.0L749.2783 462.0L749.2783 461.92188Q749.23145 461.09375 748.8252 460.64062Q748.4346 460.1875 747.7471 460.1875ZM756.60645 462.65625Q756.60645 464.09375 755.9502 464.98438Q755.29395 465.875 754.1533 465.875Q752.9971 465.875 752.3408 465.14062L752.3408 468.1875L751.2627 468.1875L751.2627 459.40625L752.2471 459.40625L752.29395 460.10938Q752.9658 459.29688 754.1377 459.29688Q755.2783 459.29688 755.9346 460.15625Q756.60645 461.01562 756.60645 462.54688L756.60645 462.65625ZM755.5283 462.53125Q755.5283 461.45312 755.0596 460.84375Q754.60645 460.21875 753.8096 460.21875Q752.8252 460.21875 752.3408 461.07812L752.3408 464.10938Q752.8252 464.98438 753.8252 464.98438Q754.60645 464.98438 755.0596 464.375Q755.5283 463.75 755.5283 462.53125ZM760.8877 465.875Q759.5908 465.875 758.7783 465.03125Q757.98145 464.17188 757.98145 462.75L757.98145 462.5625Q757.98145 461.60938 758.3408 460.875Q758.7002 460.125 759.3408 459.71875Q759.9971 459.29688 760.7471 459.29688Q761.98145 459.29688 762.66895 460.10938Q763.35645 460.92188 763.35645 462.4375L763.35645 462.89062L759.0596 462.89062Q759.0908 463.82812 759.60645 464.40625Q760.1377 464.98438 760.9502 464.98438Q761.5127 464.98438 761.9033 464.75Q762.3096 464.51562 762.6221 464.125L763.2783 464.64062Q762.48145 465.875 760.8877 465.875ZM760.7471 460.1875Q760.0908 460.1875 759.6377 460.67188Q759.2002 461.14062 759.10645 462.0L762.2783 462.0L762.2783 461.92188Q762.23145 461.09375 761.8252 460.64062Q761.4346 460.1875 760.7471 460.1875ZM765.2783 459.40625L765.3096 460.20312Q766.04395 459.29688 767.2158 459.29688Q769.23145 459.29688 769.2471 461.5625L769.2471 465.75L768.1533 465.75L768.1533 461.54688Q768.1533 460.875 767.8408 460.54688Q767.54395 460.21875 766.8877 460.21875Q766.35645 460.21875 765.9502 460.5Q765.5596 460.78125 765.3408 461.23438L765.3408 465.75L764.2627 465.75L764.2627 459.40625L765.2783 459.40625ZM770.9971 462.53125Q770.9971 461.0625 771.6846 460.1875Q772.3721 459.29688 773.4971 459.29688Q774.60645 459.29688 775.2627 460.04688L775.2627 456.75L776.3408 456.75L776.3408 465.75L775.3408 465.75L775.29395 465.0625Q774.6377 465.875 773.48145 465.875Q772.3877 465.875 771.6846 464.96875Q770.9971 464.0625 770.9971 462.60938L770.9971 462.53125ZM772.0752 462.65625Q772.0752 463.73438 772.5127 464.34375Q772.9658 464.95312 773.7471 464.95312Q774.7783 464.95312 775.2627 464.01562L775.2627 461.10938Q774.7783 460.21875 773.7627 460.21875Q772.9658 460.21875 772.5127 460.82812Q772.0752 461.4375 772.0752 462.65625ZM781.9502 464.0625Q781.9502 463.625 781.60645 463.39062Q781.2783 463.14062 780.4502 462.96875Q779.6377 462.79688 779.1533 462.54688Q778.66895 462.29688 778.4346 461.96875Q778.2158 461.625 778.2158 461.15625Q778.2158 460.375 778.8721 459.84375Q779.5283 459.29688 780.5596 459.29688Q781.6377 459.29688 782.29395 459.85938Q782.9658 460.40625 782.9658 461.26562L781.8877 461.26562Q781.8877 460.82812 781.4971 460.51562Q781.1221 460.1875 780.5596 460.1875Q779.9658 460.1875 779.6221 460.45312Q779.29395 460.70312 779.29395 461.10938Q779.29395 461.5 779.60645 461.70312Q779.91895 461.90625 780.73145 462.09375Q781.54395 462.26562 782.04395 462.51562Q782.54395 462.76562 782.7783 463.125Q783.0283 463.48438 783.0283 463.98438Q783.0283 464.84375 782.3408 465.35938Q781.66895 465.875 780.5908 465.875Q779.8252 465.875 779.23145 465.60938Q778.6533 465.32812 778.3252 464.84375Q777.9971 464.35938 777.9971 463.79688L779.0752 463.79688Q779.10645 464.34375 779.5127 464.67188Q779.91895 464.98438 780.5908 464.98438Q781.2002 464.98438 781.5752 464.73438Q781.9502 464.48438 781.9502 464.0625Z" fill-rule="nonzero"/><path fill="#273138" d="M29.953125 32.578125L29.65625 36.078125L28.578125 36.078125L28.59375 31.25L29.953125 31.25L29.953125 32.578125ZM32.59375 32.578125L32.296875 36.078125L31.21875 36.078125L31.21875 31.25L32.59375 31.25L32.59375 32.578125ZM36.90625 46.25L35.03125 46.25L35.03125 32.03125L36.90625 32.03125L36.90625 46.25ZM41.328125 35.6875L41.390625 37.015625Q42.59375 35.484375 44.546875 35.484375Q47.90625 35.484375 47.921875 39.265625L47.921875 46.25L46.125 46.25L46.125 39.25Q46.109375 38.109375 45.59375 37.5625Q45.09375 37.015625 44.0 37.015625Q43.125 37.015625 42.453125 37.484375Q41.796875 37.953125 41.421875 38.71875L41.421875 46.25L39.625 46.25L39.625 35.6875L41.328125 35.6875ZM64.96875 43.765625L67.0 35.6875L68.8125 35.6875L65.734375 46.25L64.265625 46.25L61.703125 38.234375L59.203125 46.25L57.734375 46.25L54.671875 35.6875L56.46875 35.6875L58.546875 43.59375L61.015625 35.6875L62.46875 35.6875L64.96875 43.765625ZM72.421875 36.96875Q73.625 35.484375 75.546875 35.484375Q78.90625 35.484375 78.921875 39.265625L78.921875 46.25L77.125 46.25L77.125 39.25Q77.109375 38.109375 76.59375 37.5625Q76.09375 37.015625 75.0 37.015625Q74.125 37.015625 73.453125 37.484375Q72.796875 37.953125 72.421875 38.71875L72.421875 46.25L70.625 46.25L70.625 31.25L72.421875 31.25L72.421875 36.96875ZM88.140625 46.25Q87.984375 45.9375 87.890625 45.140625Q86.625 46.453125 84.875 46.453125Q83.3125 46.453125 82.3125 45.5625Q81.3125 44.671875 81.3125 43.3125Q81.3125 41.671875 82.5625 40.765625Q83.828125 39.84375 86.09375 39.84375L87.859375 39.84375L87.859375 39.015625Q87.859375 38.0625 87.28125 37.5Q86.71875 36.9375 85.625 36.9375Q84.65625 36.9375 84.0 37.4375Q83.34375 37.921875 83.34375 38.609375L81.53125 38.609375Q81.53125 37.828125 82.09375 37.09375Q82.65625 36.34375 83.609375 35.921875Q84.578125 35.484375 85.734375 35.484375Q87.5625 35.484375 88.59375 36.40625Q89.625 37.3125 89.671875 38.921875L89.671875 43.78125Q89.671875 45.234375 90.03125 46.09375L90.03125 46.25L88.140625 46.25ZM85.140625 44.875Q86.0 44.875 86.75 44.4375Q87.515625 44.0 87.859375 43.296875L87.859375 41.125L86.4375 41.125Q83.125 41.125 83.125 43.0625Q83.125 43.921875 83.6875 44.40625Q84.25 44.875 85.140625 44.875ZM95.0625 33.125L95.0625 35.6875L97.046875 35.6875L97.046875 37.078125L95.0625 37.078125L95.0625 43.625Q95.0625 44.265625 95.328125 44.59375Q95.59375 44.90625 96.234375 44.90625Q96.546875 44.90625 97.09375 44.78125L97.09375 46.25Q96.375 46.453125 95.703125 46.453125Q94.5 46.453125 93.875 45.71875Q93.265625 44.984375 93.265625 43.625L93.265625 37.078125L91.34375 37.078125L91.34375 35.6875L93.265625 35.6875L93.265625 33.125L95.0625 33.125ZM105.5 46.25L105.5 37.078125L103.84375 37.078125L103.84375 35.6875L105.5 35.6875L105.5 34.59375Q105.5 32.90625 106.40625 31.984375Q107.328125 31.046875 108.984375 31.046875Q109.609375 31.046875 110.21875 31.203125L110.125 32.671875Q109.671875 32.59375 109.15625 32.59375Q108.265625 32.59375 107.78125 33.109375Q107.3125 33.609375 107.3125 34.5625L107.3125 35.6875L109.5625 35.6875L109.5625 37.078125L107.3125 37.078125L107.3125 46.25L105.5 46.25ZM111.140625 40.875Q111.140625 39.3125 111.75 38.078125Q112.359375 36.828125 113.4375 36.15625Q114.53125 35.484375 115.9375 35.484375Q118.09375 35.484375 119.421875 36.984375Q120.765625 38.46875 120.765625 40.953125L120.765625 41.078125Q120.765625 42.625 120.171875 43.859375Q119.578125 45.078125 118.46875 45.765625Q117.375 46.453125 115.953125 46.453125Q113.8125 46.453125 112.46875 44.953125Q111.140625 43.453125 111.140625 41.0L111.140625 40.875ZM112.953125 41.078125Q112.953125 42.84375 113.765625 43.90625Q114.59375 44.96875 115.953125 44.96875Q117.328125 44.96875 118.140625 43.890625Q118.953125 42.8125 118.953125 40.875Q118.953125 39.125 118.125 38.046875Q117.296875 36.96875 115.9375 36.96875Q114.59375 36.96875 113.765625 38.03125Q112.953125 39.09375 112.953125 41.078125ZM127.71875 37.296875Q127.3125 37.234375 126.84375 37.234375Q125.0625 37.234375 124.421875 38.75L124.421875 46.25L122.625 46.25L122.625 35.6875L124.375 35.6875L124.40625 36.90625Q125.296875 35.484375 126.921875 35.484375Q127.453125 35.484375 127.71875 35.625L127.71875 37.296875ZM131.3125 35.6875L131.35938 36.859375Q132.53125 35.484375 134.5 35.484375Q136.71875 35.484375 137.51562 37.1875Q138.04688 36.421875 138.89062 35.953125Q139.73438 35.484375 140.89062 35.484375Q144.35938 35.484375 144.42188 39.171875L144.42188 46.25L142.60938 46.25L142.60938 39.28125Q142.60938 38.140625 142.09375 37.578125Q141.57812 37.015625 140.35938 37.015625Q139.35938 37.015625 138.6875 37.625Q138.03125 38.21875 137.92188 39.234375L137.92188 46.25L136.10938 46.25L136.10938 39.328125Q136.10938 37.015625 133.84375 37.015625Q132.0625 37.015625 131.42188 38.53125L131.42188 46.25L129.60938 46.25L129.60938 35.6875L131.3125 35.6875ZM154.14062 46.25Q153.98438 45.9375 153.89062 45.140625Q152.625 46.453125 150.875 46.453125Q149.3125 46.453125 148.3125 45.5625Q147.3125 44.671875 147.3125 43.3125Q147.3125 41.671875 148.5625 40.765625Q149.82812 39.84375 152.09375 39.84375L153.85938 39.84375L153.85938 39.015625Q153.85938 38.0625 153.28125 37.5Q152.71875 36.9375 151.625 36.9375Q150.65625 36.9375 150.0 37.4375Q149.34375 37.921875 149.34375 38.609375L147.53125 38.609375Q147.53125 37.828125 148.09375 37.09375Q148.65625 36.34375 149.60938 35.921875Q150.57812 35.484375 151.73438 35.484375Q153.5625 35.484375 154.59375 36.40625Q155.625 37.3125 155.67188 38.921875L155.67188 43.78125Q155.67188 45.234375 156.03125 46.09375L156.03125 46.25L154.14062 46.25ZM151.14062 44.875Q152.0 44.875 152.75 44.4375Q153.51562 44.0 153.85938 43.296875L153.85938 41.125L152.4375 41.125Q149.125 41.125 149.125 43.0625Q149.125 43.921875 149.6875 44.40625Q150.25 44.875 151.14062 44.875ZM161.0625 33.125L161.0625 35.6875L163.04688 35.6875L163.04688 37.078125L161.0625 37.078125L161.0625 43.625Q161.0625 44.265625 161.32812 44.59375Q161.59375 44.90625 162.23438 44.90625Q162.54688 44.90625 163.09375 44.78125L163.09375 46.25Q162.375 46.453125 161.70312 46.453125Q160.5 46.453125 159.875 45.71875Q159.26562 44.984375 159.26562 43.625L159.26562 37.078125L157.34375 37.078125L157.34375 35.6875L159.26562 35.6875L159.26562 33.125L161.0625 33.125ZM179.96875 43.765625L182.0 35.6875L183.8125 35.6875L180.73438 46.25L179.26562 46.25L176.70312 38.234375L174.20312 46.25L172.73438 46.25L169.67188 35.6875L171.46875 35.6875L173.54688 43.59375L176.01562 35.6875L177.46875 35.6875L179.96875 43.765625ZM185.14062 40.875Q185.14062 39.3125 185.75 38.078125Q186.35938 36.828125 187.4375 36.15625Q188.53125 35.484375 189.9375 35.484375Q192.09375 35.484375 193.42188 36.984375Q194.76562 38.46875 194.76562 40.953125L194.76562 41.078125Q194.76562 42.625 194.17188 43.859375Q193.57812 45.078125 192.46875 45.765625Q191.375 46.453125 189.95312 46.453125Q187.8125 46.453125 186.46875 44.953125Q185.14062 43.453125 185.14062 41.0L185.14062 40.875ZM186.95312 41.078125Q186.95312 42.84375 187.76562 43.90625Q188.59375 44.96875 189.95312 44.96875Q191.32812 44.96875 192.14062 43.890625Q192.95312 42.8125 192.95312 40.875Q192.95312 39.125 192.125 38.046875Q191.29688 36.96875 189.9375 36.96875Q188.59375 36.96875 187.76562 38.03125Q186.95312 39.09375 186.95312 41.078125ZM203.14062 45.203125Q202.09375 46.453125 200.04688 46.453125Q198.35938 46.453125 197.46875 45.46875Q196.59375 44.484375 196.57812 42.5625L196.57812 35.6875L198.39062 35.6875L198.39062 42.515625Q198.39062 44.90625 200.34375 44.90625Q202.40625 44.90625 203.09375 43.375L203.09375 35.6875L204.90625 35.6875L204.90625 46.25L203.1875 46.25L203.14062 45.203125ZM209.57812 46.25L207.78125 46.25L207.78125 31.25L209.57812 31.25L209.57812 46.25ZM212.17188 40.875Q212.17188 38.453125 213.32812 36.96875Q214.48438 35.484375 216.34375 35.484375Q218.20312 35.484375 219.28125 36.75L219.28125 31.25L221.09375 31.25L221.09375 46.25L219.4375 46.25L219.34375 45.109375Q218.26562 46.453125 216.32812 46.453125Q214.5 46.453125 213.32812 44.953125Q212.17188 43.4375 212.17188 41.015625L212.17188 40.875ZM213.98438 41.078125Q213.98438 42.875 214.71875 43.890625Q215.46875 44.90625 216.78125 44.90625Q218.5 44.90625 219.28125 43.375L219.28125 38.515625Q218.48438 37.015625 216.79688 37.015625Q215.46875 37.015625 214.71875 38.046875Q213.98438 39.078125 213.98438 41.078125ZM232.07812 43.609375L234.53125 35.6875L236.46875 35.6875L232.21875 47.875Q231.23438 50.515625 229.09375 50.515625L228.75 50.484375L228.07812 50.359375L228.07812 48.890625L228.5625 48.9375Q229.48438 48.9375 229.98438 48.5625Q230.5 48.1875 230.82812 47.203125L231.23438 46.125L227.46875 35.6875L229.4375 35.6875L232.07812 43.609375ZM237.14062 40.875Q237.14062 39.3125 237.75 38.078125Q238.35938 36.828125 239.4375 36.15625Q240.53125 35.484375 241.9375 35.484375Q244.09375 35.484375 245.42188 36.984375Q246.76562 38.46875 246.76562 40.953125L246.76562 41.078125Q246.76562 42.625 246.17188 43.859375Q245.57812 45.078125 244.46875 45.765625Q243.375 46.453125 241.95312 46.453125Q239.8125 46.453125 238.46875 44.953125Q237.14062 43.453125 237.14062 41.0L237.14062 40.875ZM238.95312 41.078125Q238.95312 42.84375 239.76562 43.90625Q240.59375 44.96875 241.95312 44.96875Q243.32812 44.96875 244.14062 43.890625Q244.95312 42.8125 244.95312 40.875Q244.95312 39.125 244.125 38.046875Q243.29688 36.96875 241.9375 36.96875Q240.59375 36.96875 239.76562 38.03125Q238.95312 39.09375 238.95312 41.078125ZM255.14062 45.203125Q254.09375 46.453125 252.04688 46.453125Q250.35938 46.453125 249.46875 45.46875Q248.59375 44.484375 248.57812 42.5625L248.57812 35.6875L250.39062 35.6875L250.39062 42.515625Q250.39062 44.90625 252.34375 44.90625Q254.40625 44.90625 255.09375 43.375L255.09375 35.6875L256.90625 35.6875L256.90625 46.25L255.1875 46.25L255.14062 45.203125ZM266.57812 46.25L264.78125 46.25L264.78125 31.25L266.57812 31.25L266.57812 46.25ZM271.57812 46.25L269.78125 46.25L269.78125 35.6875L271.57812 35.6875L271.57812 46.25ZM269.625 32.875Q269.625 32.4375 269.89062 32.140625Q270.17188 31.828125 270.6875 31.828125Q271.21875 31.828125 271.48438 32.140625Q271.76562 32.4375 271.76562 32.875Q271.76562 33.3125 271.48438 33.609375Q271.21875 33.90625 270.6875 33.90625Q270.17188 33.90625 269.89062 33.609375Q269.625 33.3125 269.625 32.875ZM277.5625 41.359375L276.4375 42.53125L276.4375 46.25L274.625 46.25L274.625 31.25L276.4375 31.25L276.4375 40.328125L277.40625 39.15625L280.6875 35.6875L282.89062 35.6875L278.78125 40.09375L283.375 46.25L281.25 46.25L277.5625 41.359375ZM289.0 46.453125Q286.85938 46.453125 285.5 45.046875Q284.15625 43.625 284.15625 41.265625L284.15625 40.921875Q284.15625 39.359375 284.75 38.125Q285.35938 36.890625 286.4375 36.1875Q287.51562 35.484375 288.78125 35.484375Q290.84375 35.484375 291.98438 36.84375Q293.125 38.203125 293.125 40.734375L293.125 41.484375L285.96875 41.484375Q286.0 43.046875 286.875 44.015625Q287.75 44.96875 289.09375 44.96875Q290.0625 44.96875 290.71875 44.578125Q291.39062 44.1875 291.89062 43.546875L292.98438 44.40625Q291.65625 46.453125 289.0 46.453125ZM288.78125 36.96875Q287.6875 36.96875 286.9375 37.765625Q286.20312 38.5625 286.03125 40.0L291.3125 40.0L291.3125 39.859375Q291.23438 38.484375 290.5625 37.734375Q289.90625 36.96875 288.78125 36.96875ZM303.0625 33.125L303.0625 35.6875L305.04688 35.6875L305.04688 37.078125L303.0625 37.078125L303.0625 43.625Q303.0625 44.265625 303.32812 44.59375Q303.59375 44.90625 304.23438 44.90625Q304.54688 44.90625 305.09375 44.78125L305.09375 46.25Q304.375 46.453125 303.70312 46.453125Q302.5 46.453125 301.875 45.71875Q301.26562 44.984375 301.26562 43.625L301.26562 37.078125L299.34375 37.078125L299.34375 35.6875L301.26562 35.6875L301.26562 33.125L303.0625 33.125ZM309.42188 36.96875Q310.625 35.484375 312.54688 35.484375Q315.90625 35.484375 315.92188 39.265625L315.92188 46.25L314.125 46.25L314.125 39.25Q314.10938 38.109375 313.59375 37.5625Q313.09375 37.015625 312.0 37.015625Q311.125 37.015625 310.45312 37.484375Q309.79688 37.953125 309.42188 38.71875L309.42188 46.25L307.625 46.25L307.625 31.25L309.42188 31.25L309.42188 36.96875ZM323.0 46.453125Q320.85938 46.453125 319.5 45.046875Q318.15625 43.625 318.15625 41.265625L318.15625 40.921875Q318.15625 39.359375 318.75 38.125Q319.35938 36.890625 320.4375 36.1875Q321.51562 35.484375 322.78125 35.484375Q324.84375 35.484375 325.98438 36.84375Q327.125 38.203125 327.125 40.734375L327.125 41.484375L319.96875 41.484375Q320.0 43.046875 320.875 44.015625Q321.75 44.96875 323.09375 44.96875Q324.0625 44.96875 324.71875 44.578125Q325.39062 44.1875 325.89062 43.546875L326.98438 44.40625Q325.65625 46.453125 323.0 46.453125ZM322.78125 36.96875Q321.6875 36.96875 320.9375 37.765625Q320.20312 38.5625 320.03125 40.0L325.3125 40.0L325.3125 39.859375Q325.23438 38.484375 324.5625 37.734375Q323.90625 36.96875 322.78125 36.96875ZM335.5 46.25L335.5 37.078125L333.84375 37.078125L333.84375 35.6875L335.5 35.6875L335.5 34.59375Q335.5 32.90625 336.40625 31.984375Q337.32812 31.046875 338.98438 31.046875Q339.60938 31.046875 340.21875 31.203125L340.125 32.671875Q339.67188 32.59375 339.15625 32.59375Q338.26562 32.59375 337.78125 33.109375Q337.3125 33.609375 337.3125 34.5625L337.3125 35.6875L339.5625 35.6875L339.5625 37.078125L337.3125 37.078125L337.3125 46.25L335.5 46.25ZM346.0 46.453125Q343.85938 46.453125 342.5 45.046875Q341.15625 43.625 341.15625 41.265625L341.15625 40.921875Q341.15625 39.359375 341.75 38.125Q342.35938 36.890625 343.4375 36.1875Q344.51562 35.484375 345.78125 35.484375Q347.84375 35.484375 348.98438 36.84375Q350.125 38.203125 350.125 40.734375L350.125 41.484375L342.96875 41.484375Q343.0 43.046875 343.875 44.015625Q344.75 44.96875 346.09375 44.96875Q347.0625 44.96875 347.71875 44.578125Q348.39062 44.1875 348.89062 43.546875L349.98438 44.40625Q348.65625 46.453125 346.0 46.453125ZM345.78125 36.96875Q344.6875 36.96875 343.9375 37.765625Q343.20312 38.5625 343.03125 40.0L348.3125 40.0L348.3125 39.859375Q348.23438 38.484375 347.5625 37.734375Q346.90625 36.96875 345.78125 36.96875ZM357.0 46.453125Q354.85938 46.453125 353.5 45.046875Q352.15625 43.625 352.15625 41.265625L352.15625 40.921875Q352.15625 39.359375 352.75 38.125Q353.35938 36.890625 354.4375 36.1875Q355.51562 35.484375 356.78125 35.484375Q358.84375 35.484375 359.98438 36.84375Q361.125 38.203125 361.125 40.734375L361.125 41.484375L353.96875 41.484375Q354.0 43.046875 354.875 44.015625Q355.75 44.96875 357.09375 44.96875Q358.0625 44.96875 358.71875 44.578125Q359.39062 44.1875 359.89062 43.546875L360.98438 44.40625Q359.65625 46.453125 357.0 46.453125ZM356.78125 36.96875Q355.6875 36.96875 354.9375 37.765625Q354.20312 38.5625 354.03125 40.0L359.3125 40.0L359.3125 39.859375Q359.23438 38.484375 358.5625 37.734375Q357.90625 36.96875 356.78125 36.96875ZM363.17188 40.875Q363.17188 38.453125 364.32812 36.96875Q365.48438 35.484375 367.34375 35.484375Q369.20312 35.484375 370.28125 36.75L370.28125 31.25L372.09375 31.25L372.09375 46.25L370.4375 46.25L370.34375 45.109375Q369.26562 46.453125 367.32812 46.453125Q365.5 46.453125 364.32812 44.953125Q363.17188 43.4375 363.17188 41.015625L363.17188 40.875ZM364.98438 41.078125Q364.98438 42.875 365.71875 43.890625Q366.46875 44.90625 367.78125 44.90625Q369.5 44.90625 370.28125 43.375L370.28125 38.515625Q369.48438 37.015625 367.79688 37.015625Q366.46875 37.015625 365.71875 38.046875Q364.98438 39.078125 364.98438 41.078125ZM383.5625 41.078125Q383.5625 43.5 382.45312 44.984375Q381.34375 46.453125 379.46875 46.453125Q377.45312 46.453125 376.35938 45.03125L376.28125 46.25L374.625 46.25L374.625 31.25L376.42188 31.25L376.42188 36.84375Q377.51562 35.484375 379.4375 35.484375Q381.35938 35.484375 382.45312 36.9375Q383.5625 38.390625 383.5625 40.921875L383.5625 41.078125ZM381.75 40.875Q381.75 39.03125 381.03125 38.03125Q380.32812 37.015625 379.0 37.015625Q377.20312 37.015625 376.42188 38.6875L376.42188 43.25Q377.25 44.90625 379.01562 44.90625Q380.3125 44.90625 381.03125 43.90625Q381.75 42.90625 381.75 40.875ZM392.14062 46.25Q391.98438 45.9375 391.89062 45.140625Q390.625 46.453125 388.875 46.453125Q387.3125 46.453125 386.3125 45.5625Q385.3125 44.671875 385.3125 43.3125Q385.3125 41.671875 386.5625 40.765625Q387.82812 39.84375 390.09375 39.84375L391.85938 39.84375L391.85938 39.015625Q391.85938 38.0625 391.28125 37.5Q390.71875 36.9375 389.625 36.9375Q388.65625 36.9375 388.0 37.4375Q387.34375 37.921875 387.34375 38.609375L385.53125 38.609375Q385.53125 37.828125 386.09375 37.09375Q386.65625 36.34375 387.60938 35.921875Q388.57812 35.484375 389.73438 35.484375Q391.5625 35.484375 392.59375 36.40625Q393.625 37.3125 393.67188 38.921875L393.67188 43.78125Q393.67188 45.234375 394.03125 46.09375L394.03125 46.25L392.14062 46.25ZM389.14062 44.875Q390.0 44.875 390.75 44.4375Q391.51562 44.0 391.85938 43.296875L391.85938 41.125L390.4375 41.125Q387.125 41.125 387.125 43.0625Q387.125 43.921875 387.6875 44.40625Q388.25 44.875 389.14062 44.875ZM400.85938 44.96875Q401.82812 44.96875 402.54688 44.390625Q403.26562 43.796875 403.34375 42.921875L405.0625 42.921875Q405.0 43.828125 404.42188 44.65625Q403.85938 45.46875 402.89062 45.96875Q401.9375 46.453125 400.85938 46.453125Q398.70312 46.453125 397.42188 45.015625Q396.15625 43.5625 396.15625 41.0625L396.15625 40.765625Q396.15625 39.21875 396.71875 38.015625Q397.28125 36.8125 398.34375 36.15625Q399.40625 35.484375 400.84375 35.484375Q402.625 35.484375 403.79688 36.546875Q404.98438 37.609375 405.0625 39.3125L403.34375 39.3125Q403.26562 38.296875 402.5625 37.640625Q401.875 36.96875 400.84375 36.96875Q399.46875 36.96875 398.70312 37.96875Q397.95312 38.953125 397.95312 40.828125L397.95312 41.171875Q397.95312 43.0 398.70312 43.984375Q399.45312 44.96875 400.85938 44.96875ZM409.5625 41.359375L408.4375 42.53125L408.4375 46.25L406.625 46.25L406.625 31.25L408.4375 31.25L408.4375 40.328125L409.40625 39.15625L412.6875 35.6875L414.89062 35.6875L410.78125 40.09375L415.375 46.25L413.25 46.25L409.5625 41.359375ZM424.0625 33.125L424.0625 35.6875L426.04688 35.6875L426.04688 37.078125L424.0625 37.078125L424.0625 43.625Q424.0625 44.265625 424.32812 44.59375Q424.59375 44.90625 425.23438 44.90625Q425.54688 44.90625 426.09375 44.78125L426.09375 46.25Q425.375 46.453125 424.70312 46.453125Q423.5 46.453125 422.875 45.71875Q422.26562 44.984375 422.26562 43.625L422.26562 37.078125L420.34375 37.078125L420.34375 35.6875L422.26562 35.6875L422.26562 33.125L424.0625 33.125ZM428.14062 40.875Q428.14062 39.3125 428.75 38.078125Q429.35938 36.828125 430.4375 36.15625Q431.53125 35.484375 432.9375 35.484375Q435.09375 35.484375 436.42188 36.984375Q437.76562 38.46875 437.76562 40.953125L437.76562 41.078125Q437.76562 42.625 437.17188 43.859375Q436.57812 45.078125 435.46875 45.765625Q434.375 46.453125 432.95312 46.453125Q430.8125 46.453125 429.46875 44.953125Q428.14062 43.453125 428.14062 41.0L428.14062 40.875ZM429.95312 41.078125Q429.95312 42.84375 430.76562 43.90625Q431.59375 44.96875 432.95312 44.96875Q434.32812 44.96875 435.14062 43.890625Q435.95312 42.8125 435.95312 40.875Q435.95312 39.125 435.125 38.046875Q434.29688 36.96875 432.9375 36.96875Q431.59375 36.96875 430.76562 38.03125Q429.95312 39.09375 429.95312 41.078125ZM453.5625 41.078125Q453.5625 43.5 452.45312 44.984375Q451.34375 46.453125 449.46875 46.453125Q447.45312 46.453125 446.35938 45.03125L446.28125 46.25L444.625 46.25L444.625 31.25L446.42188 31.25L446.42188 36.84375Q447.51562 35.484375 449.4375 35.484375Q451.35938 35.484375 452.45312 36.9375Q453.5625 38.390625 453.5625 40.921875L453.5625 41.078125ZM451.75 40.875Q451.75 39.03125 451.03125 38.03125Q450.32812 37.015625 449.0 37.015625Q447.20312 37.015625 446.42188 38.6875L446.42188 43.25Q447.25 44.90625 449.01562 44.90625Q450.3125 44.90625 451.03125 43.90625Q451.75 42.90625 451.75 40.875ZM460.0 46.453125Q457.85938 46.453125 456.5 45.046875Q455.15625 43.625 455.15625 41.265625L455.15625 40.921875Q455.15625 39.359375 455.75 38.125Q456.35938 36.890625 457.4375 36.1875Q458.51562 35.484375 459.78125 35.484375Q461.84375 35.484375 462.98438 36.84375Q464.125 38.203125 464.125 40.734375L464.125 41.484375L456.96875 41.484375Q457.0 43.046875 457.875 44.015625Q458.75 44.96875 460.09375 44.96875Q461.0625 44.96875 461.71875 44.578125Q462.39062 44.1875 462.89062 43.546875L463.98438 44.40625Q462.65625 46.453125 460.0 46.453125ZM459.78125 36.96875Q458.6875 36.96875 457.9375 37.765625Q457.20312 38.5625 457.03125 40.0L462.3125 40.0L462.3125 39.859375Q462.23438 38.484375 461.5625 37.734375Q460.90625 36.96875 459.78125 36.96875ZM471.1875 40.875Q471.1875 38.40625 472.32812 36.953125Q473.46875 35.484375 475.35938 35.484375Q477.29688 35.484375 478.375 36.859375L478.46875 35.6875L480.10938 35.6875L480.10938 46.0Q480.10938 48.046875 478.89062 49.21875Q477.6875 50.40625 475.625 50.40625Q474.48438 50.40625 473.39062 49.921875Q472.29688 49.4375 471.71875 48.578125L472.65625 47.5Q473.82812 48.9375 475.5 48.9375Q476.82812 48.9375 477.5625 48.1875Q478.29688 47.453125 478.29688 46.109375L478.29688 45.1875Q477.21875 46.453125 475.34375 46.453125Q473.48438 46.453125 472.32812 44.953125Q471.1875 43.453125 471.1875 40.875ZM473.0 41.078125Q473.0 42.875 473.73438 43.890625Q474.46875 44.90625 475.78125 44.90625Q477.5 44.90625 478.29688 43.359375L478.29688 38.53125Q477.46875 37.015625 475.8125 37.015625Q474.48438 37.015625 473.73438 38.046875Q473.0 39.078125 473.0 41.078125ZM484.57812 46.25L482.78125 46.25L482.78125 35.6875L484.57812 35.6875L484.57812 46.25ZM482.625 32.875Q482.625 32.4375 482.89062 32.140625Q483.17188 31.828125 483.6875 31.828125Q484.21875 31.828125 484.48438 32.140625Q484.76562 32.4375 484.76562 32.875Q484.76562 33.3125 484.48438 33.609375Q484.21875 33.90625 483.6875 33.90625Q483.17188 33.90625 482.89062 33.609375Q482.625 33.3125 482.625 32.875ZM491.10938 43.796875L493.71875 35.6875L495.5625 35.6875L491.78125 46.25L490.40625 46.25L486.57812 35.6875L488.42188 35.6875L491.10938 43.796875ZM502.0 46.453125Q499.85938 46.453125 498.5 45.046875Q497.15625 43.625 497.15625 41.265625L497.15625 40.921875Q497.15625 39.359375 497.75 38.125Q498.35938 36.890625 499.4375 36.1875Q500.51562 35.484375 501.78125 35.484375Q503.84375 35.484375 504.98438 36.84375Q506.125 38.203125 506.125 40.734375L506.125 41.484375L498.96875 41.484375Q499.0 43.046875 499.875 44.015625Q500.75 44.96875 502.09375 44.96875Q503.0625 44.96875 503.71875 44.578125Q504.39062 44.1875 504.89062 43.546875L505.98438 44.40625Q504.65625 46.453125 502.0 46.453125ZM501.78125 36.96875Q500.6875 36.96875 499.9375 37.765625Q499.20312 38.5625 499.03125 40.0L504.3125 40.0L504.3125 39.859375Q504.23438 38.484375 503.5625 37.734375Q502.90625 36.96875 501.78125 36.96875ZM510.32812 35.6875L510.39062 37.015625Q511.59375 35.484375 513.5469 35.484375Q516.90625 35.484375 516.9219 39.265625L516.9219 46.25L515.125 46.25L515.125 39.25Q515.1094 38.109375 514.59375 37.5625Q514.09375 37.015625 513.0 37.015625Q512.125 37.015625 511.45312 37.484375Q510.79688 37.953125 510.42188 38.71875L510.42188 46.25L508.625 46.25L508.625 35.6875L510.32812 35.6875ZM526.5781 46.25L524.78125 46.25L524.78125 35.6875L526.5781 35.6875L526.5781 46.25ZM524.625 32.875Q524.625 32.4375 524.8906 32.140625Q525.1719 31.828125 525.6875 31.828125Q526.21875 31.828125 526.4844 32.140625Q526.7656 32.4375 526.7656 32.875Q526.7656 33.3125 526.4844 33.609375Q526.21875 33.90625 525.6875 33.90625Q525.1719 33.90625 524.8906 33.609375Q524.625 33.3125 524.625 32.875ZM531.3281 35.6875L531.3906 37.015625Q532.59375 35.484375 534.5469 35.484375Q537.90625 35.484375 537.9219 39.265625L537.9219 46.25L536.125 46.25L536.125 39.25Q536.1094 38.109375 535.59375 37.5625Q535.09375 37.015625 534.0 37.015625Q533.125 37.015625 532.4531 37.484375Q531.7969 37.953125 531.4219 38.71875L531.4219 46.25L529.625 46.25L529.625 35.6875L531.3281 35.6875ZM542.7344 42.25Q542.75 41.078125 543.0 40.40625Q543.25 39.734375 544.0 38.921875L545.28125 37.59375Q546.09375 36.671875 546.09375 35.609375Q546.09375 34.578125 545.5469 34.0Q545.0156 33.421875 544.0 33.421875Q543.0 33.421875 542.3906 33.953125Q541.7969 34.46875 541.7969 35.359375L539.9844 35.359375Q540.0 33.78125 541.1094 32.8125Q542.21875 31.828125 544.0 31.828125Q545.84375 31.828125 546.875 32.828125Q547.90625 33.8125 547.90625 35.546875Q547.90625 37.25 546.3281 38.921875L545.25 39.96875Q544.5469 40.765625 544.5469 42.25L542.7344 42.25ZM542.65625 45.34375Q542.65625 44.90625 542.9219 44.609375Q543.2031 44.3125 543.71875 44.3125Q544.25 44.3125 544.5156 44.609375Q544.7969 44.90625 544.7969 45.34375Q544.7969 45.78125 544.5156 46.078125Q544.25 46.359375 543.71875 46.359375Q543.2031 46.359375 542.9219 46.078125Q542.65625 45.78125 542.65625 45.34375ZM550.9531 32.578125L550.65625 36.078125L549.5781 36.078125L549.59375 31.25L550.9531 31.25L550.9531 32.578125ZM553.59375 32.578125L553.2969 36.078125L552.21875 36.078125L552.21875 31.25L553.59375 31.25L553.59375 32.578125Z" fill-rule="nonzero"/></svg>