<svg version="1.1" viewBox="0.0 0.0 882.0 545.0" fill="none" stroke="none" stroke-linecap="square" stroke-miterlimit="10" width="882" height="545" xmlns:xlink="http://www.w3.org/1999/xlink" xmlns="http://www.w3.org/2000/svg"><path fill="#ffffff" d="M0 0L882.0 0L882.0 545.0L0 545.0L0 0Z" fill-rule="nonzero"/><path stroke="#333333" stroke-width="1.0" stroke-linecap="butt" d="M103.5 417.5L854.5 417.5" fill-rule="nonzero"/><path stroke="#cccccc" stroke-width="1.0" stroke-linecap="butt" d="M103.5 332.5L854.5 332.5" fill-rule="nonzero"/><path stroke="#cccccc" stroke-width="1.0" stroke-linecap="butt" d="M103.5 247.5L854.5 247.5" fill-rule="nonzero"/><path stroke="#cccccc" stroke-width="1.0" stroke-linecap="butt" d="M103.5 162.5L854.5 162.5" fill-rule="nonzero"/><path stroke="#cccccc" stroke-width="1.0" stroke-linecap="butt" d="M103.5 76.5L854.5 76.5" fill-rule="nonzero"/><clipPath id="id_0"><path d="M103.25 76.916664L854.75 76.916664L854.75 417.75L103.25 417.75L103.25 76.916664Z" clip-rule="nonzero"/></clipPath><path stroke="#000000" stroke-width="0.0" stroke-linecap="butt" stroke-opacity="0.0" clip-path="url(#id_0)" d="M205.0 418.0L139.0 418.0L139.0 369.0C139.0 367.89542 139.89543 367.0 141.0 367.0L203.0 367.0C204.10457 367.0 205.0 367.89542 205.0 369.0Z" fill-rule="nonzero"/><path fill="#273138" clip-path="url(#id_0)" d="M205.0 418.0L139.0 418.0L139.0 369.0C139.0 367.89542 139.89543 367.0 141.0 367.0L203.0 367.0C204.10457 367.0 205.0 367.89542 205.0 369.0Z" fill-rule="nonzero"/><path stroke="#000000" stroke-width="0.0" stroke-linecap="butt" stroke-opacity="0.0" clip-path="url(#id_0)" d="M308.0 418.0L242.0 418.0L242.0 130.0C242.0 128.89543 242.89543 128.0 244.0 128.0L306.0 128.0C307.10458 128.0 308.0 128.89543 308.0 130.0Z" fill-rule="nonzero"/><path fill="#273138" clip-path="url(#id_0)" d="M308.0 418.0L242.0 418.0L242.0 130.0C242.0 128.89543 242.89543 128.0 244.0 128.0L306.0 128.0C307.10458 128.0 308.0 128.89543 308.0 130.0Z" fill-rule="nonzero"/><path stroke="#000000" stroke-width="0.0" stroke-linecap="butt" stroke-opacity="0.0" clip-path="url(#id_0)" d="M410.0 418.0L344.0 418.0L344.0 403.0C344.0 401.89542 344.89542 401.0 346.0 401.0L408.0 401.0C409.10458 401.0 410.0 401.89542 410.0 403.0Z" fill-rule="nonzero"/><path fill="#273138" clip-path="url(#id_0)" d="M410.0 418.0L344.0 418.0L344.0 403.0C344.0 401.89542 344.89542 401.0 346.0 401.0L408.0 401.0C409.10458 401.0 410.0 401.89542 410.0 403.0Z" fill-rule="nonzero"/><path stroke="#000000" stroke-width="0.0" stroke-linecap="butt" stroke-opacity="0.0" clip-path="url(#id_0)" d="M512.0 418.0L446.0 418.0L446.0 403.0C446.0 401.89542 446.89542 401.0 448.0 401.0L510.0 401.0C511.10458 401.0 512.0 401.89542 512.0 403.0Z" fill-rule="nonzero"/><path fill="#273138" clip-path="url(#id_0)" d="M512.0 418.0L446.0 418.0L446.0 403.0C446.0 401.89542 446.89542 401.0 448.0 401.0L510.0 401.0C511.10458 401.0 512.0 401.89542 512.0 403.0Z" fill-rule="nonzero"/><path stroke="#000000" stroke-width="0.0" stroke-linecap="butt" stroke-opacity="0.0" clip-path="url(#id_0)" d="M614.0 418.0L548.0 418.0L548.0 403.0C548.0 401.89542 548.89545 401.0 550.0 401.0L612.0 401.0C613.10455 401.0 614.0 401.89542 614.0 403.0Z" fill-rule="nonzero"/><path fill="#273138" clip-path="url(#id_0)" d="M614.0 418.0L548.0 418.0L548.0 403.0C548.0 401.89542 548.89545 401.0 550.0 401.0L612.0 401.0C613.10455 401.0 614.0 401.89542 614.0 403.0Z" fill-rule="nonzero"/><path stroke="#000000" stroke-width="0.0" stroke-linecap="butt" stroke-opacity="0.0" clip-path="url(#id_0)" d="M716.0 418.0L650.0 418.0L650.0 403.0C650.0 401.89542 650.89545 401.0 652.0 401.0L714.0 401.0C715.10455 401.0 716.0 401.89542 716.0 403.0Z" fill-rule="nonzero"/><path fill="#273138" clip-path="url(#id_0)" d="M716.0 418.0L650.0 418.0L650.0 403.0C650.0 401.89542 650.89545 401.0 652.0 401.0L714.0 401.0C715.10455 401.0 716.0 401.89542 716.0 403.0Z" fill-rule="nonzero"/><path stroke="#000000" stroke-width="0.0" stroke-linecap="butt" stroke-opacity="0.0" clip-path="url(#id_0)" d="M819.0 418.0L753.0 418.0L753.0 403.0C753.0 401.89542 753.89545 401.0 755.0 401.0L817.0 401.0C818.10455 401.0 819.0 401.89542 819.0 403.0Z" fill-rule="nonzero"/><path fill="#273138" clip-path="url(#id_0)" d="M819.0 418.0L753.0 418.0L753.0 403.0C753.0 401.89542 753.89545 401.0 755.0 401.0L817.0 401.0C818.10455 401.0 819.0 401.89542 819.0 403.0Z" fill-rule="nonzero"/><path fill="#273138" d="M401.17188 507.73438L401.17188 512.75L399.48438 512.75L399.48438 499.95312L404.20312 499.95312Q406.3125 499.95312 407.5 501.03125Q408.6875 502.09375 408.6875 503.85938Q408.6875 505.73438 407.51562 506.73438Q406.35938 507.73438 404.1875 507.73438L401.17188 507.73438ZM401.17188 506.35938L404.20312 506.35938Q405.5625 506.35938 406.28125 505.71875Q407.0 505.07812 407.0 503.875Q407.0 502.73438 406.28125 502.0625Q405.5625 501.375 404.29688 501.34375L401.17188 501.34375L401.17188 506.35938ZM412.0 512.75L410.375 512.75L410.375 499.25L412.0 499.25L412.0 512.75ZM420.10938 512.75Q419.96875 512.46875 419.875 511.75Q418.73438 512.9219 417.17188 512.9219Q415.76562 512.9219 414.85938 512.125Q413.95312 511.32812 413.95312 510.10938Q413.95312 508.625 415.07812 507.8125Q416.21875 506.98438 418.26562 506.98438L419.84375 506.98438L419.84375 506.23438Q419.84375 505.39062 419.32812 504.89062Q418.82812 504.375 417.82812 504.375Q416.96875 504.375 416.375 504.8125Q415.78125 505.25 415.78125 505.875L414.15625 505.875Q414.15625 505.17188 414.65625 504.51562Q415.15625 503.84375 416.01562 503.45312Q416.89062 503.0625 417.9375 503.0625Q419.57812 503.0625 420.5 503.89062Q421.4375 504.70312 421.46875 506.15625L421.46875 510.53125Q421.46875 511.82812 421.8125 512.6094L421.8125 512.75L420.10938 512.75ZM417.40625 511.51562Q418.17188 511.51562 418.85938 511.125Q419.54688 510.71875 419.84375 510.09375L419.84375 508.14062L418.57812 508.14062Q415.57812 508.14062 415.57812 509.89062Q415.57812 510.65625 416.09375 511.09375Q416.60938 511.51562 417.40625 511.51562ZM428.04688 511.59375Q428.92188 511.59375 429.5625 511.07812Q430.21875 510.54688 430.28125 509.75L431.82812 509.75Q431.78125 510.5625 431.26562 511.3125Q430.75 512.0469 429.875 512.4844Q429.01562 512.9219 428.04688 512.9219Q426.10938 512.9219 424.95312 511.625Q423.8125 510.32812 423.8125 508.07812L423.8125 507.8125Q423.8125 506.42188 424.3125 505.34375Q424.82812 504.26562 425.78125 503.67188Q426.73438 503.0625 428.03125 503.0625Q429.64062 503.0625 430.6875 504.03125Q431.75 504.98438 431.82812 506.51562L430.28125 506.51562Q430.21875 505.59375 429.57812 505.0Q428.95312 504.40625 428.03125 504.40625Q426.79688 504.40625 426.10938 505.29688Q425.4375 506.1875 425.4375 507.875L425.4375 508.17188Q425.4375 509.82812 426.10938 510.71875Q426.78125 511.59375 428.04688 511.59375ZM437.17188 512.9219Q435.25 512.9219 434.03125 511.65625Q432.8125 510.39062 432.8125 508.26562L432.8125 507.95312Q432.8125 506.54688 433.35938 505.4375Q433.90625 504.32812 434.875 503.70312Q435.84375 503.0625 436.96875 503.0625Q438.82812 503.0625 439.85938 504.28125Q440.89062 505.5 440.89062 507.78125L440.89062 508.45312L434.4375 508.45312Q434.48438 509.85938 435.26562 510.73438Q436.04688 511.59375 437.26562 511.59375Q438.125 511.59375 438.71875 511.25Q439.32812 510.89062 439.76562 510.3125L440.76562 511.09375Q439.5625 512.9219 437.17188 512.9219ZM436.96875 504.40625Q435.98438 504.40625 435.3125 505.125Q434.65625 505.82812 434.5 507.125L439.26562 507.125L439.26562 507.0Q439.1875 505.76562 438.59375 505.09375Q438.0 504.40625 436.96875 504.40625ZM444.76562 503.23438L444.79688 504.29688Q445.84375 503.0625 447.625 503.0625Q449.625 503.0625 450.34375 504.59375Q450.8125 503.90625 451.57812 503.48438Q452.34375 503.0625 453.375 503.0625Q456.5 503.0625 456.5625 506.375L456.5625 512.75L454.92188 512.75L454.92188 506.46875Q454.92188 505.45312 454.45312 504.95312Q454.0 504.4375 452.90625 504.4375Q452.0 504.4375 451.39062 504.98438Q450.79688 505.53125 450.70312 506.4375L450.70312 512.75L449.0625 512.75L449.0625 506.51562Q449.0625 504.4375 447.03125 504.4375Q445.4375 504.4375 444.84375 505.8125L444.84375 512.75L443.21875 512.75L443.21875 503.23438L444.76562 503.23438ZM463.17188 512.9219Q461.25 512.9219 460.03125 511.65625Q458.8125 510.39062 458.8125 508.26562L458.8125 507.95312Q458.8125 506.54688 459.35938 505.4375Q459.90625 504.32812 460.875 503.70312Q461.84375 503.0625 462.96875 503.0625Q464.82812 503.0625 465.85938 504.28125Q466.89062 505.5 466.89062 507.78125L466.89062 508.45312L460.4375 508.45312Q460.48438 509.85938 461.26562 510.73438Q462.04688 511.59375 463.26562 511.59375Q464.125 511.59375 464.71875 511.25Q465.32812 510.89062 465.76562 510.3125L466.76562 511.09375Q465.5625 512.9219 463.17188 512.9219ZM462.96875 504.40625Q461.98438 504.40625 461.3125 505.125Q460.65625 505.82812 460.5 507.125L465.26562 507.125L465.26562 507.0Q465.1875 505.76562 464.59375 505.09375Q464.0 504.40625 462.96875 504.40625ZM470.76562 503.23438L470.82812 504.4375Q471.90625 503.0625 473.67188 503.0625Q476.6875 503.0625 476.70312 506.46875L476.70312 512.75L475.07812 512.75L475.07812 506.45312Q475.07812 505.42188 474.60938 504.9375Q474.15625 504.4375 473.17188 504.4375Q472.39062 504.4375 471.78125 504.85938Q471.1875 505.28125 470.85938 505.96875L470.85938 512.75L469.23438 512.75L469.23438 503.23438L470.76562 503.23438ZM481.4375 500.9375L481.4375 503.23438L483.21875 503.23438L483.21875 504.5L481.4375 504.5L481.4375 510.39062Q481.4375 510.96875 481.67188 511.25Q481.90625 511.53125 482.48438 511.53125Q482.76562 511.53125 483.25 511.4375L483.25 512.75Q482.60938 512.9219 482.01562 512.9219Q480.92188 512.9219 480.35938 512.2656Q479.8125 511.60938 479.8125 510.39062L479.8125 504.5L478.07812 504.5L478.07812 503.23438L479.8125 503.23438L479.8125 500.9375L481.4375 500.9375ZM488.79688 507.90625Q488.79688 506.51562 489.34375 505.40625Q489.90625 504.28125 490.875 503.67188Q491.85938 503.0625 493.10938 503.0625Q495.0625 503.0625 496.25 504.40625Q497.45312 505.75 497.45312 507.98438L497.45312 508.09375Q497.45312 509.48438 496.92188 510.59375Q496.39062 511.6875 495.40625 512.3125Q494.42188 512.9219 493.14062 512.9219Q491.20312 512.9219 490.0 511.57812Q488.79688 510.23438 488.79688 508.01562L488.79688 507.90625ZM490.4375 508.09375Q490.4375 509.6875 491.17188 510.64062Q491.90625 511.59375 493.14062 511.59375Q494.375 511.59375 495.09375 510.625Q495.82812 509.65625 495.82812 507.90625Q495.82812 506.34375 495.07812 505.375Q494.34375 504.40625 493.10938 504.40625Q491.90625 504.40625 491.17188 505.35938Q490.4375 506.3125 490.4375 508.09375ZM500.03125 512.75L500.03125 504.5L498.53125 504.5L498.53125 503.23438L500.03125 503.23438L500.03125 502.26562Q500.03125 500.73438 500.84375 499.90625Q501.67188 499.0625 503.15625 499.0625Q503.71875 499.0625 504.28125 499.21875L504.1875 500.53125Q503.78125 500.45312 503.3125 500.45312Q502.51562 500.45312 502.07812 500.92188Q501.65625 501.375 501.65625 502.23438L501.65625 503.23438L503.6875 503.23438L503.6875 504.5L501.65625 504.5L501.65625 512.75L500.03125 512.75ZM508.82812 507.92188Q508.82812 505.73438 509.85938 504.40625Q510.90625 503.0625 512.59375 503.0625Q514.2656 503.0625 515.2344 504.20312L515.2344 499.25L516.8594 499.25L516.8594 512.75L515.3594 512.75L515.28125 511.73438Q514.3125 512.9219 512.5781 512.9219Q510.92188 512.9219 509.875 511.57812Q508.82812 510.21875 508.82812 508.03125L508.82812 507.92188ZM510.46875 508.09375Q510.46875 509.71875 511.125 510.64062Q511.79688 511.54688 512.96875 511.54688Q514.5156 511.54688 515.2344 510.15625L515.2344 505.78125Q514.5 504.4375 513.0 504.4375Q511.79688 504.4375 511.125 505.375Q510.46875 506.29688 510.46875 508.09375ZM523.1719 512.9219Q521.25 512.9219 520.03125 511.65625Q518.8125 510.39062 518.8125 508.26562L518.8125 507.95312Q518.8125 506.54688 519.3594 505.4375Q519.90625 504.32812 520.875 503.70312Q521.84375 503.0625 522.96875 503.0625Q524.8281 503.0625 525.8594 504.28125Q526.8906 505.5 526.8906 507.78125L526.8906 508.45312L520.4375 508.45312Q520.4844 509.85938 521.2656 510.73438Q522.0469 511.59375 523.2656 511.59375Q524.125 511.59375 524.71875 511.25Q525.3281 510.89062 525.7656 510.3125L526.7656 511.09375Q525.5625 512.9219 523.1719 512.9219ZM522.96875 504.40625Q521.9844 504.40625 521.3125 505.125Q520.65625 505.82812 520.5 507.125L525.2656 507.125L525.2656 507.0Q525.1875 505.76562 524.59375 505.09375Q524.0 504.40625 522.96875 504.40625ZM532.375 510.54688L534.71875 503.23438L536.3906 503.23438L532.96875 512.75L531.7344 512.75L528.2969 503.23438L529.9531 503.23438L532.375 510.54688ZM540.0 512.75L538.375 512.75L538.375 503.23438L540.0 503.23438L540.0 512.75ZM538.2344 500.71875Q538.2344 500.32812 538.46875 500.0625Q538.71875 499.78125 539.1875 499.78125Q539.6719 499.78125 539.9219 500.0625Q540.1719 500.32812 540.1719 500.71875Q540.1719 501.10938 539.9219 501.375Q539.6719 501.64062 539.1875 501.64062Q538.71875 501.64062 538.46875 501.375Q538.2344 501.10938 538.2344 500.71875ZM546.0469 511.59375Q546.9219 511.59375 547.5625 511.07812Q548.21875 510.54688 548.28125 509.75L549.8281 509.75Q549.78125 510.5625 549.2656 511.3125Q548.75 512.0469 547.875 512.4844Q547.0156 512.9219 546.0469 512.9219Q544.1094 512.9219 542.9531 511.625Q541.8125 510.32812 541.8125 508.07812L541.8125 507.8125Q541.8125 506.42188 542.3125 505.34375Q542.8281 504.26562 543.78125 503.67188Q544.7344 503.0625 546.03125 503.0625Q547.6406 503.0625 548.6875 504.03125Q549.75 504.98438 549.8281 506.51562L548.28125 506.51562Q548.21875 505.59375 547.5781 505.0Q546.9531 504.40625 546.03125 504.40625Q544.7969 504.40625 544.1094 505.29688Q543.4375 506.1875 543.4375 507.875L543.4375 508.17188Q543.4375 509.82812 544.1094 510.71875Q544.78125 511.59375 546.0469 511.59375ZM555.1719 512.9219Q553.25 512.9219 552.03125 511.65625Q550.8125 510.39062 550.8125 508.26562L550.8125 507.95312Q550.8125 506.54688 551.3594 505.4375Q551.90625 504.32812 552.875 503.70312Q553.84375 503.0625 554.96875 503.0625Q556.8281 503.0625 557.8594 504.28125Q558.8906 505.5 558.8906 507.78125L558.8906 508.45312L552.4375 508.45312Q552.4844 509.85938 553.2656 510.73438Q554.0469 511.59375 555.2656 511.59375Q556.125 511.59375 556.71875 511.25Q557.3281 510.89062 557.7656 510.3125L558.7656 511.09375Q557.5625 512.9219 555.1719 512.9219ZM554.96875 504.40625Q553.9844 504.40625 553.3125 505.125Q552.65625 505.82812 552.5 507.125L557.2656 507.125L557.2656 507.0Q557.1875 505.76562 556.59375 505.09375Q556.0 504.40625 554.96875 504.40625Z" fill-rule="nonzero"/><path fill="#273138" d="M44.25 337.2552L44.25 338.9583L34.390625 345.3958L44.25 345.3958L44.25 347.09894L31.453125 347.09894L31.453125 345.3958L41.359375 338.9427L31.453125 338.9427L31.453125 337.2552L44.25 337.2552ZM43.3125 328.47394Q44.421875 329.42706 44.421875 331.2708Q44.421875 332.78644 43.546875 333.5833Q42.65625 334.3802 40.921875 334.3802L34.734375 334.3802L34.734375 332.7552L40.890625 332.7552Q43.046875 332.7552 43.046875 331.0052Q43.046875 329.1458 41.65625 328.5208L34.734375 328.5208L34.734375 326.8958L44.25 326.8958L44.25 328.4427L43.3125 328.47394ZM34.734375 322.8177L35.796875 322.78644Q34.5625 321.73956 34.5625 319.9583Q34.5625 317.9583 36.09375 317.23956Q35.40625 316.7708 34.984375 316.0052Q34.5625 315.23956 34.5625 314.2083Q34.5625 311.0833 37.875 311.0208L44.25 311.0208L44.25 312.66144L37.96875 312.66144Q36.953125 312.66144 36.453125 313.1302Q35.9375 313.5833 35.9375 314.67706Q35.9375 315.5833 36.484375 316.1927Q37.03125 316.78644 37.9375 316.8802L44.25 316.8802L44.25 318.5208L38.015625 318.5208Q35.9375 318.5208 35.9375 320.55206Q35.9375 322.1458 37.3125 322.73956L44.25 322.73956L44.25 324.36456L34.734375 324.36456L34.734375 322.8177ZM39.59375 300.30206Q41.78125 300.30206 43.109375 301.30206Q44.421875 302.30206 44.421875 303.98956Q44.421875 305.80206 43.15625 306.78644L44.25 306.86456L44.25 308.34894L30.75 308.34894L30.75 306.72394L35.78125 306.72394Q34.5625 305.73956 34.5625 304.0208Q34.5625 302.28644 35.875 301.30206Q37.1875 300.30206 39.453125 300.30206L39.59375 300.30206ZM39.421875 301.92706Q37.75 301.92706 36.84375 302.5677Q35.9375 303.2083 35.9375 304.41144Q35.9375 306.0208 37.4375 306.72394L41.546875 306.72394Q43.046875 305.97394 43.046875 304.3958Q43.046875 303.22394 42.140625 302.5833Q41.234375 301.92706 39.421875 301.92706ZM44.421875 294.41144Q44.421875 296.3333 43.15625 297.55206Q41.890625 298.7708 39.765625 298.7708L39.453125 298.7708Q38.046875 298.7708 36.9375 298.22394Q35.828125 297.67706 35.203125 296.7083Q34.5625 295.73956 34.5625 294.61456Q34.5625 292.7552 35.78125 291.72394Q37.0 290.6927 39.28125 290.6927L39.953125 290.6927L39.953125 297.1458Q41.359375 297.09894 42.234375 296.3177Q43.09375 295.53644 43.09375 294.3177Q43.09375 293.4583 42.75 292.86456Q42.390625 292.2552 41.8125 291.8177L42.59375 290.8177Q44.421875 292.0208 44.421875 294.41144ZM35.90625 294.61456Q35.90625 295.59894 36.625 296.2708Q37.328125 296.92706 38.625 297.0833L38.625 292.3177L38.5 292.3177Q37.265625 292.3958 36.59375 292.98956Q35.90625 293.5833 35.90625 294.61456ZM36.203125 283.7552Q36.140625 284.1302 36.140625 284.55206Q36.140625 286.16144 37.5 286.72394L44.25 286.72394L44.25 288.34894L34.734375 288.34894L34.734375 286.7708L35.84375 286.73956Q34.5625 285.9427 34.5625 284.47394Q34.5625 284.0052 34.6875 283.7552L36.203125 283.7552ZM39.40625 278.78644Q38.015625 278.78644 36.90625 278.23956Q35.78125 277.67706 35.171875 276.7083Q34.5625 275.72394 34.5625 274.47394Q34.5625 272.5208 35.90625 271.3333Q37.25 270.1302 39.484375 270.1302L39.59375 270.1302Q40.984375 270.1302 42.09375 270.66144Q43.1875 271.1927 43.8125 272.17706Q44.421875 273.16144 44.421875 274.4427Q44.421875 276.3802 43.078125 277.5833Q41.734375 278.78644 39.515625 278.78644L39.40625 278.78644ZM39.59375 277.1458Q41.1875 277.1458 42.140625 276.41144Q43.09375 275.67706 43.09375 274.4427Q43.09375 273.2083 42.125 272.48956Q41.15625 271.7552 39.40625 271.7552Q37.84375 271.7552 36.875 272.5052Q35.90625 273.23956 35.90625 274.47394Q35.90625 275.67706 36.859375 276.41144Q37.8125 277.1458 39.59375 277.1458ZM44.25 267.55206L36.0 267.55206L36.0 269.05206L34.734375 269.05206L34.734375 267.55206L33.765625 267.55206Q32.234375 267.55206 31.40625 266.73956Q30.5625 265.91144 30.5625 264.42706Q30.5625 263.86456 30.71875 263.30206L32.03125 263.3958Q31.953125 263.80206 31.953125 264.2708Q31.953125 265.0677 32.421875 265.5052Q32.875 265.92706 33.734375 265.92706L34.734375 265.92706L34.734375 263.8958L36.0 263.8958L36.0 265.92706L44.25 265.92706L44.25 267.55206ZM40.90625 251.03645L40.90625 256.3958L44.25 257.59894L44.25 259.3333L31.453125 254.4427L31.453125 252.97395L44.25 248.08333L44.25 249.80208L40.90625 251.03645ZM39.515625 255.8802L39.515625 251.53645L33.53125 253.70833L39.515625 255.8802ZM34.734375 244.8177L35.9375 244.7552Q34.5625 243.67708 34.5625 241.91145Q34.5625 238.89581 37.96875 238.88019L44.25 238.88019L44.25 240.5052L37.953125 240.5052Q36.921875 240.5052 36.4375 240.97395Q35.9375 241.42708 35.9375 242.41145Q35.9375 243.1927 36.359375 243.80208Q36.78125 244.39583 37.46875 244.72395L44.25 244.72395L44.25 246.34895L34.734375 246.34895L34.734375 244.8177ZM41.734375 230.81769Q41.0625 230.81769 40.703125 231.31769Q40.34375 231.80206 40.078125 233.03644Q39.8125 234.27081 39.453125 235.00519Q39.078125 235.72394 38.5625 236.08331Q38.046875 236.42706 37.34375 236.42706Q36.1875 236.42706 35.375 235.44269Q34.5625 234.44269 34.5625 232.91144Q34.5625 231.28644 35.40625 230.28644Q36.234375 229.27081 37.53125 229.27081L37.53125 230.91144Q36.859375 230.91144 36.390625 231.48956Q35.90625 232.05206 35.90625 232.91144Q35.90625 233.80206 36.296875 234.30206Q36.671875 234.80206 37.296875 234.80206Q37.890625 234.80206 38.1875 234.33331Q38.484375 233.86456 38.765625 232.64581Q39.03125 231.42706 39.40625 230.67706Q39.78125 229.91144 40.3125 229.55206Q40.84375 229.19269 41.609375 229.19269Q42.890625 229.19269 43.65625 230.20831Q44.421875 231.22394 44.421875 232.84894Q44.421875 233.98956 44.015625 234.88019Q43.609375 235.75519 42.890625 236.25519Q42.171875 236.75519 41.328125 236.75519L41.328125 235.11456Q42.140625 235.08331 42.625 234.47394Q43.09375 233.84894 43.09375 232.84894Q43.09375 231.92706 42.71875 231.38019Q42.34375 230.81769 41.734375 230.81769ZM42.015625 218.92706L34.734375 217.09894L34.734375 215.47394L44.25 218.23956L44.25 219.56769L37.046875 221.88019L44.25 224.13019L44.25 225.44269L34.734375 228.20831L34.734375 226.58331L41.859375 224.70831L34.734375 222.50519L34.734375 221.19269L42.015625 218.92706ZM44.421875 209.41144Q44.421875 211.33331 43.15625 212.55206Q41.890625 213.77081 39.765625 213.77081L39.453125 213.77081Q38.046875 213.77081 36.9375 213.22394Q35.828125 212.67706 35.203125 211.70831Q34.5625 210.73956 34.5625 209.61456Q34.5625 207.75519 35.78125 206.72394Q37.0 205.69269 39.28125 205.69269L39.953125 205.69269L39.953125 212.14581Q41.359375 212.09894 42.234375 211.31769Q43.09375 210.53644 43.09375 209.31769Q43.09375 208.45831 42.75 207.86456Q42.390625 207.25519 41.8125 206.81769L42.59375 205.81769Q44.421875 207.02081 44.421875 209.41144ZM35.90625 209.61456Q35.90625 210.59894 36.625 211.27081Q37.328125 211.92706 38.625 212.08331L38.625 207.31769L38.5 207.31769Q37.265625 207.39581 36.59375 207.98956Q35.90625 208.58331 35.90625 209.61456ZM36.203125 198.75519Q36.140625 199.13019 36.140625 199.55206Q36.140625 201.16144 37.5 201.72394L44.25 201.72394L44.25 203.34894L34.734375 203.34894L34.734375 201.77081L35.84375 201.73956Q34.5625 200.94269 34.5625 199.47394Q34.5625 199.00519 34.6875 198.75519L36.203125 198.75519ZM41.734375 191.81769Q41.0625 191.81769 40.703125 192.31769Q40.34375 192.80206 40.078125 194.03644Q39.8125 195.27081 39.453125 196.00519Q39.078125 196.72394 38.5625 197.08331Q38.046875 197.42706 37.34375 197.42706Q36.1875 197.42706 35.375 196.44269Q34.5625 195.44269 34.5625 193.91144Q34.5625 192.28644 35.40625 191.28644Q36.234375 190.27081 37.53125 190.27081L37.53125 191.91144Q36.859375 191.91144 36.390625 192.48956Q35.90625 193.05206 35.90625 193.91144Q35.90625 194.80206 36.296875 195.30206Q36.671875 195.80206 37.296875 195.80206Q37.890625 195.80206 38.1875 195.33331Q38.484375 194.86456 38.765625 193.64581Q39.03125 192.42706 39.40625 191.67706Q39.78125 190.91144 40.3125 190.55206Q40.84375 190.19269 41.609375 190.19269Q42.890625 190.19269 43.65625 191.20831Q44.421875 192.22394 44.421875 193.84894Q44.421875 194.98956 44.015625 195.88019Q43.609375 196.75519 42.890625 197.25519Q42.171875 197.75519 41.328125 197.75519L41.328125 196.11456Q42.140625 196.08331 42.625 195.47394Q43.09375 194.84894 43.09375 193.84894Q43.09375 192.92706 42.71875 192.38019Q42.34375 191.81769 41.734375 191.81769Z" fill-rule="nonzero"/><path fill="#000000" d="M96.3125 418.60938Q96.3125 420.51562 95.65625 421.45312Q95.015625 422.375 93.625 422.375Q92.265625 422.375 91.609375 421.46875Q90.953125 420.5625 90.921875 418.75L90.921875 417.3125Q90.921875 415.42188 91.5625 414.51562Q92.21875 413.59375 93.609375 413.59375Q94.984375 413.59375 95.640625 414.48438Q96.296875 415.35938 96.3125 417.20312L96.3125 418.60938ZM95.21875 417.125Q95.21875 415.75 94.828125 415.125Q94.453125 414.48438 93.609375 414.48438Q92.78125 414.48438 92.390625 415.125Q92.015625 415.75 92.015625 417.04688L92.015625 418.78125Q92.015625 420.15625 92.40625 420.82812Q92.8125 421.48438 93.625 421.48438Q94.421875 421.48438 94.8125 420.85938Q95.203125 420.23438 95.21875 418.90625L95.21875 417.125Z" fill-rule="nonzero"/><path fill="#000000" d="M91.453125 332.7604L91.890625 328.5104L96.265625 328.5104L96.265625 329.5104L92.8125 329.5104L92.546875 331.83853Q93.1875 331.46353 93.984375 331.46353Q95.140625 331.46353 95.828125 332.24478Q96.515625 333.0104 96.515625 334.3229Q96.515625 335.6354 95.796875 336.40103Q95.09375 337.16666 93.8125 337.16666Q92.6875 337.16666 91.96875 336.54166Q91.25 335.90103 91.15625 334.79166L92.171875 334.79166Q92.28125 335.52603 92.703125 335.90103Q93.125 336.27603 93.8125 336.27603Q94.5625 336.27603 95.0 335.7604Q95.4375 335.24478 95.4375 334.33853Q95.4375 333.47916 94.96875 332.96353Q94.5 332.4479 93.71875 332.4479Q93.015625 332.4479 92.609375 332.74478L92.328125 332.97916L91.453125 332.7604Z" fill-rule="nonzero"/><path fill="#000000" d="M87.515625 251.83333L86.4375 251.83333L86.4375 244.61458L84.25 245.41145L84.25 244.42708L87.359375 243.2552L87.515625 243.2552L87.515625 251.83333ZM96.3125 248.1927Q96.3125 250.09895 95.65625 251.03645Q95.015625 251.95833 93.625 251.95833Q92.265625 251.95833 91.609375 251.05208Q90.953125 250.14583 90.921875 248.33333L90.921875 246.89583Q90.921875 245.0052 91.5625 244.09895Q92.21875 243.17708 93.609375 243.17708Q94.984375 243.17708 95.640625 244.0677Q96.296875 244.9427 96.3125 246.78645L96.3125 248.1927ZM95.21875 246.70833Q95.21875 245.33333 94.828125 244.70833Q94.453125 244.0677 93.609375 244.0677Q92.78125 244.0677 92.390625 244.70833Q92.015625 245.33333 92.015625 246.6302L92.015625 248.36458Q92.015625 249.73958 92.40625 250.41145Q92.8125 251.0677 93.625 251.0677Q94.421875 251.0677 94.8125 250.4427Q95.203125 249.8177 95.21875 248.48958L95.21875 246.70833Z" fill-rule="nonzero"/><path fill="#000000" d="M87.515625 166.625L86.4375 166.625L86.4375 159.40625L84.25 160.20312L84.25 159.21875L87.359375 158.04688L87.515625 158.04688L87.515625 166.625ZM91.453125 162.34375L91.890625 158.09375L96.265625 158.09375L96.265625 159.09375L92.8125 159.09375L92.546875 161.42188Q93.1875 161.04688 93.984375 161.04688Q95.140625 161.04688 95.828125 161.82812Q96.515625 162.59375 96.515625 163.90625Q96.515625 165.21875 95.796875 165.98438Q95.09375 166.75 93.8125 166.75Q92.6875 166.75 91.96875 166.125Q91.25 165.48438 91.15625 164.375L92.171875 164.375Q92.28125 165.10938 92.703125 165.48438Q93.125 165.85938 93.8125 165.85938Q94.5625 165.85938 95.0 165.34375Q95.4375 164.82812 95.4375 163.92188Q95.4375 163.0625 94.96875 162.54688Q94.5 162.03125 93.71875 162.03125Q93.015625 162.03125 92.609375 162.32812L92.328125 162.5625L91.453125 162.34375Z" fill-rule="nonzero"/><path fill="#000000" d="M89.546875 81.416664L83.953125 81.416664L83.953125 80.635414L86.90625 77.354164Q87.5625 76.604164 87.8125 76.15104Q88.0625 75.68229 88.0625 75.18229Q88.0625 74.510414 87.65625 74.08854Q87.265625 73.65104 86.578125 73.65104Q85.78125 73.65104 85.328125 74.11979Q84.875 74.572914 84.875 75.40104L83.796875 75.40104Q83.796875 74.21354 84.546875 73.49479Q85.3125 72.760414 86.578125 72.760414Q87.78125 72.760414 88.46875 73.385414Q89.15625 74.010414 89.15625 75.05729Q89.15625 76.30729 87.546875 78.05729L85.265625 80.52604L89.546875 80.52604L89.546875 81.416664ZM96.3125 77.77604Q96.3125 79.68229 95.65625 80.61979Q95.015625 81.541664 93.625 81.541664Q92.265625 81.541664 91.609375 80.635414Q90.953125 79.729164 90.921875 77.916664L90.921875 76.479164Q90.921875 74.58854 91.5625 73.68229Q92.21875 72.760414 93.609375 72.760414Q94.984375 72.760414 95.640625 73.65104Q96.296875 74.52604 96.3125 76.36979L96.3125 77.77604ZM95.21875 76.291664Q95.21875 74.916664 94.828125 74.291664Q94.453125 73.65104 93.609375 73.65104Q92.78125 73.65104 92.390625 74.291664Q92.015625 74.916664 92.015625 76.21354L92.015625 77.947914Q92.015625 79.322914 92.40625 79.99479Q92.8125 80.65104 93.625 80.65104Q94.421875 80.65104 94.8125 80.02604Q95.203125 79.40104 95.21875 78.072914L95.21875 76.291664Z" fill-rule="nonzero"/><path fill="#273138" d="M145.5778 431.8125L141.87468 431.8125L141.87468 434.82812L146.17155 434.82812L146.17155 435.75L140.74968 435.75L140.74968 427.21875L146.12468 427.21875L146.12468 428.14062L141.87468 428.14062L141.87468 430.89062L145.5778 430.89062L145.5778 431.8125ZM151.49968 435.75Q151.40593 435.5625 151.34343 435.07812Q150.59343 435.875 149.54655 435.875Q148.60905 435.875 147.99968 435.34375Q147.40593 434.8125 147.40593 433.98438Q147.40593 433.0 148.15593 432.45312Q148.90593 431.90625 150.28093 431.90625L151.3278 431.90625L151.3278 431.40625Q151.3278 430.84375 150.98405 430.51562Q150.65593 430.17188 149.98405 430.17188Q149.40593 430.17188 149.0153 430.46875Q148.62468 430.75 148.62468 431.17188L147.53093 431.17188Q147.53093 430.6875 147.85905 430.25Q148.2028 429.8125 148.78093 429.5625Q149.35905 429.29688 150.04655 429.29688Q151.15593 429.29688 151.7653 429.84375Q152.3903 430.39062 152.42155 431.34375L152.42155 434.26562Q152.42155 435.14062 152.6403 435.65625L152.6403 435.75L151.49968 435.75ZM149.7028 434.92188Q150.21843 434.92188 150.67155 434.65625Q151.12468 434.39062 151.3278 433.96875L151.3278 432.67188L150.48405 432.67188Q148.48405 432.67188 148.48405 433.84375Q148.48405 434.34375 148.8278 434.64062Q149.17155 434.92188 149.7028 434.92188ZM157.65593 430.375Q157.40593 430.34375 157.12468 430.34375Q156.04655 430.34375 155.67155 431.25L155.67155 435.75L154.59343 435.75L154.59343 429.40625L155.6403 429.40625L155.65593 430.14062Q156.18718 429.29688 157.17155 429.29688Q157.48405 429.29688 157.65593 429.375L157.65593 430.375ZM161.54655 432.28125Q161.54655 430.96875 161.8903 429.75Q162.24968 428.53125 162.9528 427.53125Q163.65593 426.53125 164.42155 426.125L164.6403 426.84375Q163.78093 427.5 163.23405 428.84375Q162.68718 430.1875 162.6403 431.85938L162.62468 432.35938Q162.62468 434.625 163.4528 436.28125Q163.9528 437.28125 164.6403 437.84375L164.42155 438.5Q163.6403 438.07812 162.92155 437.04688Q161.54655 435.0625 161.54655 432.28125ZM168.21843 435.875Q166.92155 435.875 166.10905 435.03125Q165.31218 434.17188 165.31218 432.75L165.31218 432.5625Q165.31218 431.60938 165.67155 430.875Q166.03093 430.125 166.67155 429.71875Q167.3278 429.29688 168.0778 429.29688Q169.31218 429.29688 169.99968 430.10938Q170.68718 430.92188 170.68718 432.4375L170.68718 432.89062L166.3903 432.89062Q166.42155 433.82812 166.93718 434.40625Q167.46843 434.98438 168.28093 434.98438Q168.84343 434.98438 169.23405 434.75Q169.6403 434.51562 169.9528 434.125L170.60905 434.64062Q169.81218 435.875 168.21843 435.875ZM168.0778 430.1875Q167.42155 430.1875 166.96843 430.67188Q166.53093 431.14062 166.43718 432.0L169.60905 432.0L169.60905 431.92188Q169.56218 431.09375 169.15593 430.64062Q168.7653 430.1875 168.0778 430.1875ZM175.49968 435.75Q175.40593 435.5625 175.34343 435.07812Q174.59343 435.875 173.54655 435.875Q172.60905 435.875 171.99968 435.34375Q171.40593 434.8125 171.40593 433.98438Q171.40593 433.0 172.15593 432.45312Q172.90593 431.90625 174.28093 431.90625L175.3278 431.90625L175.3278 431.40625Q175.3278 430.84375 174.98405 430.51562Q174.65593 430.17188 173.98405 430.17188Q173.40593 430.17188 173.0153 430.46875Q172.62468 430.75 172.62468 431.17188L171.53093 431.17188Q171.53093 430.6875 171.85905 430.25Q172.2028 429.8125 172.78093 429.5625Q173.35905 429.29688 174.04655 429.29688Q175.15593 429.29688 175.7653 429.84375Q176.3903 430.39062 176.42155 431.34375L176.42155 434.26562Q176.42155 435.14062 176.6403 435.65625L176.6403 435.75L175.49968 435.75ZM173.7028 434.92188Q174.21843 434.92188 174.67155 434.65625Q175.12468 434.39062 175.3278 433.96875L175.3278 432.67188L174.48405 432.67188Q172.48405 432.67188 172.48405 433.84375Q172.48405 434.34375 172.8278 434.64062Q173.17155 434.92188 173.7028 434.92188ZM181.65593 430.375Q181.40593 430.34375 181.12468 430.34375Q180.04655 430.34375 179.67155 431.25L179.67155 435.75L178.59343 435.75L178.59343 429.40625L179.6403 429.40625L179.65593 430.14062Q180.18718 429.29688 181.17155 429.29688Q181.48405 429.29688 181.65593 429.375L181.65593 430.375ZM185.65593 430.375Q185.40593 430.34375 185.12468 430.34375Q184.04655 430.34375 183.67155 431.25L183.67155 435.75L182.59343 435.75L182.59343 429.40625L183.6403 429.40625L183.65593 430.14062Q184.18718 429.29688 185.17155 429.29688Q185.48405 429.29688 185.65593 429.375L185.65593 430.375ZM187.7653 435.75L186.68718 435.75L186.68718 429.40625L187.7653 429.40625L187.7653 435.75ZM186.59343 427.73438Q186.59343 427.46875 186.74968 427.28125Q186.92155 427.09375 187.23405 427.09375Q187.54655 427.09375 187.7028 427.28125Q187.87468 427.46875 187.87468 427.73438Q187.87468 427.98438 187.7028 428.17188Q187.54655 428.34375 187.23405 428.34375Q186.92155 428.34375 186.74968 428.17188Q186.59343 427.98438 186.59343 427.73438ZM190.60905 429.40625L190.6403 430.20312Q191.37468 429.29688 192.54655 429.29688Q194.56218 429.29688 194.5778 431.5625L194.5778 435.75L193.48405 435.75L193.48405 431.54688Q193.48405 430.875 193.17155 430.54688Q192.87468 430.21875 192.21843 430.21875Q191.68718 430.21875 191.28093 430.5Q190.8903 430.78125 190.67155 431.23438L190.67155 435.75L189.59343 435.75L189.59343 429.40625L190.60905 429.40625ZM196.3278 432.53125Q196.3278 431.04688 197.0153 430.17188Q197.7028 429.29688 198.8278 429.29688Q199.98405 429.29688 200.6403 430.10938L200.68718 429.40625L201.68718 429.40625L201.68718 435.59375Q201.68718 436.82812 200.9528 437.53125Q200.21843 438.25 198.99968 438.25Q198.31218 438.25 197.65593 437.95312Q196.99968 437.65625 196.65593 437.15625L197.21843 436.5Q197.90593 437.35938 198.92155 437.35938Q199.7028 437.35938 200.1403 436.90625Q200.59343 436.46875 200.59343 435.65625L200.59343 435.10938Q199.93718 435.875 198.81218 435.875Q197.7028 435.875 197.0153 434.98438Q196.3278 434.07812 196.3278 432.53125ZM197.42155 432.65625Q197.42155 433.71875 197.85905 434.34375Q198.29655 434.95312 199.09343 434.95312Q200.10905 434.95312 200.59343 434.01562L200.59343 431.125Q200.09343 430.21875 199.09343 430.21875Q198.31218 430.21875 197.85905 430.82812Q197.42155 431.4375 197.42155 432.65625ZM203.54655 437.45312L202.93718 437.03125Q203.48405 436.26562 203.5153 435.4375L203.5153 434.46875L204.5778 434.46875L204.5778 435.3125Q204.5778 435.90625 204.28093 436.5Q203.98405 437.09375 203.54655 437.45312Z" fill-rule="nonzero"/><path fill="#273138" d="M142.21843 450.875Q140.92155 450.875 140.10905 450.03125Q139.31218 449.17188 139.31218 447.75L139.31218 447.5625Q139.31218 446.60938 139.67155 445.875Q140.03093 445.125 140.67155 444.71875Q141.3278 444.29688 142.0778 444.29688Q143.31218 444.29688 143.99968 445.10938Q144.68718 445.92188 144.68718 447.4375L144.68718 447.89062L140.3903 447.89062Q140.42155 448.82812 140.93718 449.40625Q141.46843 449.98438 142.28093 449.98438Q142.84343 449.98438 143.23405 449.75Q143.6403 449.51562 143.9528 449.125L144.60905 449.64062Q143.81218 450.875 142.21843 450.875ZM142.0778 445.1875Q141.42155 445.1875 140.96843 445.67188Q140.53093 446.14062 140.43718 447.0L143.60905 447.0L143.60905 446.92188Q143.56218 446.09375 143.15593 445.64062Q142.7653 445.1875 142.0778 445.1875ZM149.49968 450.75Q149.40593 450.5625 149.34343 450.07812Q148.59343 450.875 147.54655 450.875Q146.60905 450.875 145.99968 450.34375Q145.40593 449.8125 145.40593 448.98438Q145.40593 448.0 146.15593 447.45312Q146.90593 446.90625 148.28093 446.90625L149.3278 446.90625L149.3278 446.40625Q149.3278 445.84375 148.98405 445.51562Q148.65593 445.17188 147.98405 445.17188Q147.40593 445.17188 147.0153 445.46875Q146.62468 445.75 146.62468 446.17188L145.53093 446.17188Q145.53093 445.6875 145.85905 445.25Q146.2028 444.8125 146.78093 444.5625Q147.35905 444.29688 148.04655 444.29688Q149.15593 444.29688 149.7653 444.84375Q150.3903 445.39062 150.42155 446.34375L150.42155 449.26562Q150.42155 450.14062 150.6403 450.65625L150.6403 450.75L149.49968 450.75ZM147.7028 449.92188Q148.21843 449.92188 148.67155 449.65625Q149.12468 449.39062 149.3278 448.96875L149.3278 447.67188L148.48405 447.67188Q146.48405 447.67188 146.48405 448.84375Q146.48405 449.34375 146.8278 449.64062Q147.17155 449.92188 147.7028 449.92188ZM155.65593 445.375Q155.40593 445.34375 155.12468 445.34375Q154.04655 445.34375 153.67155 446.25L153.67155 450.75L152.59343 450.75L152.59343 444.40625L153.6403 444.40625L153.65593 445.14062Q154.18718 444.29688 155.17155 444.29688Q155.48405 444.29688 155.65593 444.375L155.65593 445.375ZM161.9528 447.65625Q161.9528 449.10938 161.28093 450.0Q160.62468 450.875 159.49968 450.875Q158.29655 450.875 157.6403 450.01562L157.5778 450.75L156.59343 450.75L156.59343 441.75L157.67155 441.75L157.67155 445.10938Q158.3278 444.29688 159.48405 444.29688Q160.6403 444.29688 161.29655 445.17188Q161.9528 446.03125 161.9528 447.5625L161.9528 447.65625ZM160.87468 447.53125Q160.87468 446.42188 160.43718 445.82812Q160.0153 445.21875 159.21843 445.21875Q158.1403 445.21875 157.67155 446.20312L157.67155 448.95312Q158.17155 449.95312 159.21843 449.95312Q159.99968 449.95312 160.43718 449.34375Q160.87468 448.73438 160.87468 447.53125ZM167.49968 450.125Q166.87468 450.875 165.6403 450.875Q164.62468 450.875 164.09343 450.28125Q163.56218 449.6875 163.56218 448.53125L163.56218 444.40625L164.6403 444.40625L164.6403 448.5Q164.6403 449.95312 165.81218 449.95312Q167.06218 449.95312 167.46843 449.01562L167.46843 444.40625L168.56218 444.40625L168.56218 450.75L167.53093 450.75L167.49968 450.125ZM170.3278 447.53125Q170.3278 446.0625 171.0153 445.1875Q171.7028 444.29688 172.8278 444.29688Q173.93718 444.29688 174.59343 445.04688L174.59343 441.75L175.67155 441.75L175.67155 450.75L174.67155 450.75L174.62468 450.0625Q173.96843 450.875 172.81218 450.875Q171.71843 450.875 171.0153 449.96875Q170.3278 449.0625 170.3278 447.60938L170.3278 447.53125ZM171.40593 447.65625Q171.40593 448.73438 171.84343 449.34375Q172.29655 449.95312 173.0778 449.95312Q174.10905 449.95312 174.59343 449.01562L174.59343 446.10938Q174.10905 445.21875 173.09343 445.21875Q172.29655 445.21875 171.84343 445.82812Q171.40593 446.4375 171.40593 447.65625ZM181.28093 449.0625Q181.28093 448.625 180.93718 448.39062Q180.60905 448.14062 179.78093 447.96875Q178.96843 447.79688 178.48405 447.54688Q177.99968 447.29688 177.7653 446.96875Q177.54655 446.625 177.54655 446.15625Q177.54655 445.375 178.2028 444.84375Q178.85905 444.29688 179.8903 444.29688Q180.96843 444.29688 181.62468 444.85938Q182.29655 445.40625 182.29655 446.26562L181.21843 446.26562Q181.21843 445.82812 180.8278 445.51562Q180.4528 445.1875 179.8903 445.1875Q179.29655 445.1875 178.9528 445.45312Q178.62468 445.70312 178.62468 446.10938Q178.62468 446.5 178.93718 446.70312Q179.24968 446.90625 180.06218 447.09375Q180.87468 447.26562 181.37468 447.51562Q181.87468 447.76562 182.10905 448.125Q182.35905 448.48438 182.35905 448.98438Q182.35905 449.84375 181.67155 450.35938Q180.99968 450.875 179.92155 450.875Q179.15593 450.875 178.56218 450.60938Q177.98405 450.32812 177.65593 449.84375Q177.3278 449.35938 177.3278 448.79688L178.40593 448.79688Q178.43718 449.34375 178.84343 449.67188Q179.24968 449.98438 179.92155 449.98438Q180.53093 449.98438 180.90593 449.73438Q181.28093 449.48438 181.28093 449.0625ZM189.21843 450.875Q187.92155 450.875 187.10905 450.03125Q186.31218 449.17188 186.31218 447.75L186.31218 447.5625Q186.31218 446.60938 186.67155 445.875Q187.03093 445.125 187.67155 444.71875Q188.3278 444.29688 189.0778 444.29688Q190.31218 444.29688 190.99968 445.10938Q191.68718 445.92188 191.68718 447.4375L191.68718 447.89062L187.3903 447.89062Q187.42155 448.82812 187.93718 449.40625Q188.46843 449.98438 189.28093 449.98438Q189.84343 449.98438 190.23405 449.75Q190.6403 449.51562 190.9528 449.125L191.60905 449.64062Q190.81218 450.875 189.21843 450.875ZM189.0778 445.1875Q188.42155 445.1875 187.96843 445.67188Q187.53093 446.14062 187.43718 447.0L190.60905 447.0L190.60905 446.92188Q190.56218 446.09375 190.15593 445.64062Q189.7653 445.1875 189.0778 445.1875ZM194.06218 442.875L194.06218 444.40625L195.23405 444.40625L195.23405 445.25L194.06218 445.25L194.06218 449.17188Q194.06218 449.5625 194.21843 449.75Q194.37468 449.9375 194.74968 449.9375Q194.93718 449.9375 195.2653 449.875L195.2653 450.75Q194.84343 450.875 194.43718 450.875Q193.71843 450.875 193.34343 450.4375Q192.96843 449.98438 192.96843 449.17188L192.96843 445.25L191.81218 445.25L191.81218 444.40625L192.96843 444.40625L192.96843 442.875L194.06218 442.875ZM199.12468 449.98438Q199.7028 449.98438 200.1403 449.64062Q200.5778 449.28125 200.62468 448.75L201.65593 448.75Q201.62468 449.29688 201.2653 449.79688Q200.92155 450.28125 200.34343 450.57812Q199.78093 450.875 199.12468 450.875Q197.8278 450.875 197.06218 450.01562Q196.31218 449.14062 196.31218 447.64062L196.31218 447.45312Q196.31218 446.53125 196.6403 445.8125Q196.98405 445.09375 197.60905 444.70312Q198.24968 444.29688 199.12468 444.29688Q200.18718 444.29688 200.8903 444.9375Q201.60905 445.5625 201.65593 446.59375L200.62468 446.59375Q200.5778 445.96875 200.15593 445.57812Q199.73405 445.1875 199.12468 445.1875Q198.29655 445.1875 197.84343 445.78125Q197.3903 446.375 197.3903 447.5L197.3903 447.70312Q197.3903 448.79688 197.84343 449.39062Q198.29655 449.98438 199.12468 449.98438ZM205.09343 447.34375Q205.09343 448.65625 204.74968 449.85938Q204.40593 451.04688 203.68718 452.0625Q202.98405 453.07812 202.21843 453.5L201.98405 452.84375Q202.8903 452.15625 203.43718 450.70312Q203.98405 449.23438 203.99968 447.46875L203.99968 447.28125Q203.99968 446.04688 203.73405 444.98438Q203.48405 443.92188 203.0153 443.09375Q202.56218 442.25 201.98405 441.78125L202.21843 441.125Q202.98405 441.54688 203.68718 442.54688Q204.3903 443.54688 204.73405 444.76562Q205.09343 445.96875 205.09343 447.34375Z" fill-rule="nonzero"/><path fill="#273138" d="M263.33832 433.0625L263.5102 434.1875L263.74457 433.17188L265.43207 427.21875L266.3852 427.21875L268.02582 433.17188L268.2602 434.20312L268.4477 433.04688L269.77582 427.21875L270.90082 427.21875L268.83832 435.75L267.80707 435.75L266.04144 429.53125L265.91644 428.875L265.77582 429.53125L263.96332 435.75L262.93207 435.75L260.86957 427.21875L261.99457 427.21875L263.33832 433.0625ZM275.40082 430.375Q275.15082 430.34375 274.86957 430.34375Q273.79144 430.34375 273.41644 431.25L273.41644 435.75L272.33832 435.75L272.33832 429.40625L273.3852 429.40625L273.40082 430.14062Q273.93207 429.29688 274.91644 429.29688Q275.22894 429.29688 275.40082 429.375L275.40082 430.375ZM277.5102 435.75L276.43207 435.75L276.43207 429.40625L277.5102 429.40625L277.5102 435.75ZM276.33832 427.73438Q276.33832 427.46875 276.49457 427.28125Q276.66644 427.09375 276.97894 427.09375Q277.29144 427.09375 277.4477 427.28125Q277.61957 427.46875 277.61957 427.73438Q277.61957 427.98438 277.4477 428.17188Q277.29144 428.34375 276.97894 428.34375Q276.66644 428.34375 276.49457 428.17188Q276.33832 427.98438 276.33832 427.73438ZM283.02582 434.0625Q283.02582 433.625 282.68207 433.39062Q282.35394 433.14062 281.52582 432.96875Q280.71332 432.79688 280.22894 432.54688Q279.74457 432.29688 279.5102 431.96875Q279.29144 431.625 279.29144 431.15625Q279.29144 430.375 279.9477 429.84375Q280.60394 429.29688 281.6352 429.29688Q282.71332 429.29688 283.36957 429.85938Q284.04144 430.40625 284.04144 431.26562L282.96332 431.26562Q282.96332 430.82812 282.5727 430.51562Q282.1977 430.1875 281.6352 430.1875Q281.04144 430.1875 280.6977 430.45312Q280.36957 430.70312 280.36957 431.10938Q280.36957 431.5 280.68207 431.70312Q280.99457 431.90625 281.80707 432.09375Q282.61957 432.26562 283.11957 432.51562Q283.61957 432.76562 283.85394 433.125Q284.10394 433.48438 284.10394 433.98438Q284.10394 434.84375 283.41644 435.35938Q282.74457 435.875 281.66644 435.875Q280.90082 435.875 280.30707 435.60938Q279.72894 435.32812 279.40082 434.84375Q279.0727 434.35938 279.0727 433.79688L280.15082 433.79688Q280.18207 434.34375 280.58832 434.67188Q280.99457 434.98438 281.66644 434.98438Q282.27582 434.98438 282.65082 434.73438Q283.02582 434.48438 283.02582 434.0625ZM286.80707 427.875L286.80707 429.40625L287.97894 429.40625L287.97894 430.25L286.80707 430.25L286.80707 434.17188Q286.80707 434.5625 286.96332 434.75Q287.11957 434.9375 287.49457 434.9375Q287.68207 434.9375 288.0102 434.875L288.0102 435.75Q287.58832 435.875 287.18207 435.875Q286.46332 435.875 286.08832 435.4375Q285.71332 434.98438 285.71332 434.17188L285.71332 430.25L284.55707 430.25L284.55707 429.40625L285.71332 429.40625L285.71332 427.875L286.80707 427.875Z" fill-rule="nonzero"/><path fill="#273138" d="M364.08322 433.0625L364.2551 434.1875L364.48947 433.17188L366.17697 427.21875L367.1301 427.21875L368.77072 433.17188L369.0051 434.20312L369.1926 433.04688L370.52072 427.21875L371.64572 427.21875L369.58322 435.75L368.55197 435.75L366.78635 429.53125L366.66135 428.875L366.52072 429.53125L364.70822 435.75L363.67697 435.75L361.61447 427.21875L362.73947 427.21875L364.08322 433.0625ZM376.98947 435.75Q376.89572 435.5625 376.83322 435.07812Q376.08322 435.875 375.03635 435.875Q374.09885 435.875 373.48947 435.34375Q372.89572 434.8125 372.89572 433.98438Q372.89572 433.0 373.64572 432.45312Q374.39572 431.90625 375.77072 431.90625L376.8176 431.90625L376.8176 431.40625Q376.8176 430.84375 376.47385 430.51562Q376.14572 430.17188 375.47385 430.17188Q374.89572 430.17188 374.5051 430.46875Q374.11447 430.75 374.11447 431.17188L373.02072 431.17188Q373.02072 430.6875 373.34885 430.25Q373.6926 429.8125 374.27072 429.5625Q374.84885 429.29688 375.53635 429.29688Q376.64572 429.29688 377.2551 429.84375Q377.8801 430.39062 377.91135 431.34375L377.91135 434.26562Q377.91135 435.14062 378.1301 435.65625L378.1301 435.75L376.98947 435.75ZM375.1926 434.92188Q375.70822 434.92188 376.16135 434.65625Q376.61447 434.39062 376.8176 433.96875L376.8176 432.67188L375.97385 432.67188Q373.97385 432.67188 373.97385 433.84375Q373.97385 434.34375 374.3176 434.64062Q374.66135 434.92188 375.1926 434.92188ZM381.2551 435.75L380.17697 435.75L380.17697 429.40625L381.2551 429.40625L381.2551 435.75ZM380.08322 427.73438Q380.08322 427.46875 380.23947 427.28125Q380.41135 427.09375 380.72385 427.09375Q381.03635 427.09375 381.1926 427.28125Q381.36447 427.46875 381.36447 427.73438Q381.36447 427.98438 381.1926 428.17188Q381.03635 428.34375 380.72385 428.34375Q380.41135 428.34375 380.23947 428.17188Q380.08322 427.98438 380.08322 427.73438ZM386.77072 434.0625Q386.77072 433.625 386.42697 433.39062Q386.09885 433.14062 385.27072 432.96875Q384.45822 432.79688 383.97385 432.54688Q383.48947 432.29688 383.2551 431.96875Q383.03635 431.625 383.03635 431.15625Q383.03635 430.375 383.6926 429.84375Q384.34885 429.29688 385.3801 429.29688Q386.45822 429.29688 387.11447 429.85938Q387.78635 430.40625 387.78635 431.26562L386.70822 431.26562Q386.70822 430.82812 386.3176 430.51562Q385.9426 430.1875 385.3801 430.1875Q384.78635 430.1875 384.4426 430.45312Q384.11447 430.70312 384.11447 431.10938Q384.11447 431.5 384.42697 431.70312Q384.73947 431.90625 385.55197 432.09375Q386.36447 432.26562 386.86447 432.51562Q387.36447 432.76562 387.59885 433.125Q387.84885 433.48438 387.84885 433.98438Q387.84885 434.84375 387.16135 435.35938Q386.48947 435.875 385.41135 435.875Q384.64572 435.875 384.05197 435.60938Q383.47385 435.32812 383.14572 434.84375Q382.8176 434.35938 382.8176 433.79688L383.89572 433.79688Q383.92697 434.34375 384.33322 434.67188Q384.73947 434.98438 385.41135 434.98438Q386.02072 434.98438 386.39572 434.73438Q386.77072 434.48438 386.77072 434.0625ZM390.55197 427.875L390.55197 429.40625L391.72385 429.40625L391.72385 430.25L390.55197 430.25L390.55197 434.17188Q390.55197 434.5625 390.70822 434.75Q390.86447 434.9375 391.23947 434.9375Q391.42697 434.9375 391.7551 434.875L391.7551 435.75Q391.33322 435.875 390.92697 435.875Q390.20822 435.875 389.83322 435.4375Q389.45822 434.98438 389.45822 434.17188L389.45822 430.25L388.30197 430.25L388.30197 429.40625L389.45822 429.40625L389.45822 427.875L390.55197 427.875Z" fill-rule="nonzero"/><path fill="#273138" d="M462.79688 434.625Q462.35938 435.25 461.57812 435.5625Q460.79688 435.875 459.76562 435.875Q458.73438 435.875 457.92188 435.39062Q457.10938 434.89062 456.67188 433.98438Q456.23438 433.07812 456.21875 431.89062L456.21875 431.15625Q456.21875 429.21875 457.10938 428.15625Q458.01562 427.09375 459.64062 427.09375Q460.98438 427.09375 461.79688 427.78125Q462.60938 428.46875 462.79688 429.71875L461.67188 429.71875Q461.34375 428.03125 459.65625 428.03125Q458.51562 428.03125 457.9375 428.82812Q457.35938 429.60938 457.34375 431.125L457.34375 431.8125Q457.34375 433.25 458.0 434.10938Q458.65625 434.95312 459.78125 434.95312Q460.40625 434.95312 460.875 434.8125Q461.35938 434.67188 461.67188 434.32812L461.67188 432.42188L459.70312 432.42188L459.70312 431.5L462.79688 431.5L462.79688 434.625ZM468.23438 435.75Q468.14062 435.5625 468.07812 435.07812Q467.32812 435.875 466.28125 435.875Q465.34375 435.875 464.73438 435.34375Q464.14062 434.8125 464.14062 433.98438Q464.14062 433.0 464.89062 432.45312Q465.64062 431.90625 467.01562 431.90625L468.0625 431.90625L468.0625 431.40625Q468.0625 430.84375 467.71875 430.51562Q467.39062 430.17188 466.71875 430.17188Q466.14062 430.17188 465.75 430.46875Q465.35938 430.75 465.35938 431.17188L464.26562 431.17188Q464.26562 430.6875 464.59375 430.25Q464.9375 429.8125 465.51562 429.5625Q466.09375 429.29688 466.78125 429.29688Q467.89062 429.29688 468.5 429.84375Q469.125 430.39062 469.15625 431.34375L469.15625 434.26562Q469.15625 435.14062 469.375 435.65625L469.375 435.75L468.23438 435.75ZM466.4375 434.92188Q466.95312 434.92188 467.40625 434.65625Q467.85938 434.39062 468.0625 433.96875L468.0625 432.67188L467.21875 432.67188Q465.21875 432.67188 465.21875 433.84375Q465.21875 434.34375 465.5625 434.64062Q465.90625 434.92188 466.4375 434.92188ZM474.39062 430.375Q474.14062 430.34375 473.85938 430.34375Q472.78125 430.34375 472.40625 431.25L472.40625 435.75L471.32812 435.75L471.32812 429.40625L472.375 429.40625L472.39062 430.14062Q472.92188 429.29688 473.90625 429.29688Q474.21875 429.29688 474.39062 429.375L474.39062 430.375ZM476.34375 429.40625L476.375 430.10938Q477.0625 429.29688 478.25 429.29688Q479.57812 429.29688 480.0625 430.3125Q480.375 429.85938 480.875 429.57812Q481.39062 429.29688 482.07812 429.29688Q484.17188 429.29688 484.20312 431.5L484.20312 435.75L483.125 435.75L483.125 431.5625Q483.125 430.89062 482.8125 430.5625Q482.5 430.21875 481.76562 430.21875Q481.15625 430.21875 480.75 430.57812Q480.35938 430.9375 480.29688 431.54688L480.29688 435.75L479.21875 435.75L479.21875 431.59375Q479.21875 430.21875 477.85938 430.21875Q476.79688 430.21875 476.40625 431.125L476.40625 435.75L475.3125 435.75L475.3125 429.40625L476.34375 429.40625ZM488.95312 435.875Q487.65625 435.875 486.84375 435.03125Q486.04688 434.17188 486.04688 432.75L486.04688 432.5625Q486.04688 431.60938 486.40625 430.875Q486.76562 430.125 487.40625 429.71875Q488.0625 429.29688 488.8125 429.29688Q490.04688 429.29688 490.73438 430.10938Q491.42188 430.92188 491.42188 432.4375L491.42188 432.89062L487.125 432.89062Q487.15625 433.82812 487.67188 434.40625Q488.20312 434.98438 489.01562 434.98438Q489.57812 434.98438 489.96875 434.75Q490.375 434.51562 490.6875 434.125L491.34375 434.64062Q490.54688 435.875 488.95312 435.875ZM488.8125 430.1875Q488.15625 430.1875 487.70312 430.67188Q487.26562 431.14062 487.17188 432.0L490.34375 432.0L490.34375 431.92188Q490.29688 431.09375 489.89062 430.64062Q489.5 430.1875 488.8125 430.1875ZM493.34375 429.40625L493.375 430.20312Q494.10938 429.29688 495.28125 429.29688Q497.29688 429.29688 497.3125 431.5625L497.3125 435.75L496.21875 435.75L496.21875 431.54688Q496.21875 430.875 495.90625 430.54688Q495.60938 430.21875 494.95312 430.21875Q494.42188 430.21875 494.01562 430.5Q493.625 430.78125 493.40625 431.23438L493.40625 435.75L492.32812 435.75L492.32812 429.40625L493.34375 429.40625ZM500.79688 427.875L500.79688 429.40625L501.96875 429.40625L501.96875 430.25L500.79688 430.25L500.79688 434.17188Q500.79688 434.5625 500.95312 434.75Q501.10938 434.9375 501.48438 434.9375Q501.67188 434.9375 502.0 434.875L502.0 435.75Q501.57812 435.875 501.17188 435.875Q500.45312 435.875 500.07812 435.4375Q499.70312 434.98438 499.70312 434.17188L499.70312 430.25L498.54688 430.25L498.54688 429.40625L499.70312 429.40625L499.70312 427.875L500.79688 427.875Z" fill-rule="nonzero"/><path fill="#273138" d="M567.29175 435.75L566.16675 435.75L561.8699 429.17188L561.8699 435.75L560.72925 435.75L560.72925 427.21875L561.8699 427.21875L566.16675 433.82812L566.16675 427.21875L567.29175 427.21875L567.29175 435.75ZM572.198 435.875Q570.9011 435.875 570.0886 435.03125Q569.29175 434.17188 569.29175 432.75L569.29175 432.5625Q569.29175 431.60938 569.6511 430.875Q570.0105 430.125 570.6511 429.71875Q571.3074 429.29688 572.0574 429.29688Q573.29175 429.29688 573.97925 430.10938Q574.66675 430.92188 574.66675 432.4375L574.66675 432.89062L570.3699 432.89062Q570.4011 433.82812 570.91675 434.40625Q571.448 434.98438 572.2605 434.98438Q572.823 434.98438 573.2136 434.75Q573.6199 434.51562 573.9324 434.125L574.5886 434.64062Q573.79175 435.875 572.198 435.875ZM572.0574 430.1875Q571.4011 430.1875 570.948 430.67188Q570.5105 431.14062 570.41675 432.0L573.5886 432.0L573.5886 431.92188Q573.54175 431.09375 573.1355 430.64062Q572.7449 430.1875 572.0574 430.1875ZM578.10425 434.98438Q578.6824 434.98438 579.1199 434.64062Q579.5574 434.28125 579.60425 433.75L580.6355 433.75Q580.60425 434.29688 580.2449 434.79688Q579.9011 435.28125 579.323 435.57812Q578.7605 435.875 578.10425 435.875Q576.8074 435.875 576.04175 435.01562Q575.29175 434.14062 575.29175 432.64062L575.29175 432.45312Q575.29175 431.53125 575.6199 430.8125Q575.9636 430.09375 576.5886 429.70312Q577.22925 429.29688 578.10425 429.29688Q579.16675 429.29688 579.8699 429.9375Q580.5886 430.5625 580.6355 431.59375L579.60425 431.59375Q579.5574 430.96875 579.1355 430.57812Q578.7136 430.1875 578.10425 430.1875Q577.2761 430.1875 576.823 430.78125Q576.3699 431.375 576.3699 432.5L576.3699 432.70312Q576.3699 433.79688 576.823 434.39062Q577.2761 434.98438 578.10425 434.98438ZM582.7449 435.75L581.66675 435.75L581.66675 426.75L582.7449 426.75L582.7449 435.75ZM588.47925 435.75Q588.3855 435.5625 588.323 435.07812Q587.573 435.875 586.5261 435.875Q585.5886 435.875 584.97925 435.34375Q584.3855 434.8125 584.3855 433.98438Q584.3855 433.0 585.1355 432.45312Q585.8855 431.90625 587.2605 431.90625L588.3074 431.90625L588.3074 431.40625Q588.3074 430.84375 587.9636 430.51562Q587.6355 430.17188 586.9636 430.17188Q586.3855 430.17188 585.9949 430.46875Q585.60425 430.75 585.60425 431.17188L584.5105 431.17188Q584.5105 430.6875 584.8386 430.25Q585.1824 429.8125 585.7605 429.5625Q586.3386 429.29688 587.0261 429.29688Q588.1355 429.29688 588.7449 429.84375Q589.3699 430.39062 589.4011 431.34375L589.4011 434.26562Q589.4011 435.14062 589.6199 435.65625L589.6199 435.75L588.47925 435.75ZM586.6824 434.92188Q587.198 434.92188 587.6511 434.65625Q588.10425 434.39062 588.3074 433.96875L588.3074 432.67188L587.4636 432.67188Q585.4636 432.67188 585.4636 433.84375Q585.4636 434.34375 585.8074 434.64062Q586.1511 434.92188 586.6824 434.92188ZM594.10425 434.98438Q594.6824 434.98438 595.1199 434.64062Q595.5574 434.28125 595.60425 433.75L596.6355 433.75Q596.60425 434.29688 596.2449 434.79688Q595.9011 435.28125 595.323 435.57812Q594.7605 435.875 594.10425 435.875Q592.8074 435.875 592.04175 435.01562Q591.29175 434.14062 591.29175 432.64062L591.29175 432.45312Q591.29175 431.53125 591.6199 430.8125Q591.9636 430.09375 592.5886 429.70312Q593.22925 429.29688 594.10425 429.29688Q595.16675 429.29688 595.8699 429.9375Q596.5886 430.5625 596.6355 431.59375L595.60425 431.59375Q595.5574 430.96875 595.1355 430.57812Q594.7136 430.1875 594.10425 430.1875Q593.2761 430.1875 592.823 430.78125Q592.3699 431.375 592.3699 432.5L592.3699 432.70312Q592.3699 433.79688 592.823 434.39062Q593.2761 434.98438 594.10425 434.98438ZM600.198 435.875Q598.9011 435.875 598.0886 435.03125Q597.29175 434.17188 597.29175 432.75L597.29175 432.5625Q597.29175 431.60938 597.6511 430.875Q598.0105 430.125 598.6511 429.71875Q599.3074 429.29688 600.0574 429.29688Q601.29175 429.29688 601.97925 430.10938Q602.66675 430.92188 602.66675 432.4375L602.66675 432.89062L598.3699 432.89062Q598.4011 433.82812 598.91675 434.40625Q599.448 434.98438 600.2605 434.98438Q600.823 434.98438 601.2136 434.75Q601.6199 434.51562 601.9324 434.125L602.5886 434.64062Q601.79175 435.875 600.198 435.875ZM600.0574 430.1875Q599.4011 430.1875 598.948 430.67188Q598.5105 431.14062 598.41675 432.0L601.5886 432.0L601.5886 431.92188Q601.54175 431.09375 601.1355 430.64062Q600.7449 430.1875 600.0574 430.1875Z" fill-rule="nonzero"/><path fill="#273138" d="M647.75543 433.04688Q647.5992 434.39062 646.75543 435.14062Q645.9117 435.875 644.52106 435.875Q643.00543 435.875 642.0992 434.79688Q641.19293 433.70312 641.19293 431.875L641.19293 431.0625Q641.19293 429.875 641.6148 428.96875Q642.0367 428.0625 642.81793 427.57812Q643.5992 427.09375 644.6148 427.09375Q645.9742 427.09375 646.7867 427.85938Q647.6148 428.625 647.75543 429.95312L646.63043 429.95312Q646.4742 428.9375 645.9898 428.48438Q645.50543 428.03125 644.6148 428.03125Q643.5367 428.03125 642.9273 428.82812Q642.31793 429.625 642.31793 431.09375L642.31793 431.92188Q642.31793 433.3125 642.89606 434.14062Q643.4742 434.95312 644.52106 434.95312Q645.45856 434.95312 645.95856 434.53125Q646.45856 434.09375 646.63043 433.04688L647.75543 433.04688ZM650.4898 435.75L649.4117 435.75L649.4117 426.75L650.4898 426.75L650.4898 435.75ZM653.4898 435.75L652.4117 435.75L652.4117 429.40625L653.4898 429.40625L653.4898 435.75ZM652.31793 427.73438Q652.31793 427.46875 652.4742 427.28125Q652.64606 427.09375 652.95856 427.09375Q653.27106 427.09375 653.4273 427.28125Q653.5992 427.46875 653.5992 427.73438Q653.5992 427.98438 653.4273 428.17188Q653.27106 428.34375 652.95856 428.34375Q652.64606 428.34375 652.4742 428.17188Q652.31793 427.98438 652.31793 427.73438ZM660.6617 432.65625Q660.6617 434.09375 660.00543 434.98438Q659.3492 435.875 658.20856 435.875Q657.0523 435.875 656.39606 435.14062L656.39606 438.1875L655.31793 438.1875L655.31793 429.40625L656.3023 429.40625L656.3492 430.10938Q657.02106 429.29688 658.19293 429.29688Q659.33356 429.29688 659.9898 430.15625Q660.6617 431.01562 660.6617 432.54688L660.6617 432.65625ZM659.58356 432.53125Q659.58356 431.45312 659.1148 430.84375Q658.6617 430.21875 657.8648 430.21875Q656.88043 430.21875 656.39606 431.07812L656.39606 434.10938Q656.88043 434.98438 657.88043 434.98438Q658.6617 434.98438 659.1148 434.375Q659.58356 433.75 659.58356 432.53125ZM669.2242 435.75Q669.13043 435.5625 669.06793 435.07812Q668.31793 435.875 667.27106 435.875Q666.33356 435.875 665.7242 435.34375Q665.13043 434.8125 665.13043 433.98438Q665.13043 433.0 665.88043 432.45312Q666.63043 431.90625 668.00543 431.90625L669.0523 431.90625L669.0523 431.40625Q669.0523 430.84375 668.70856 430.51562Q668.38043 430.17188 667.70856 430.17188Q667.13043 430.17188 666.7398 430.46875Q666.3492 430.75 666.3492 431.17188L665.25543 431.17188Q665.25543 430.6875 665.58356 430.25Q665.9273 429.8125 666.50543 429.5625Q667.08356 429.29688 667.77106 429.29688Q668.88043 429.29688 669.4898 429.84375Q670.1148 430.39062 670.14606 431.34375L670.14606 434.26562Q670.14606 435.14062 670.3648 435.65625L670.3648 435.75L669.2242 435.75ZM667.4273 434.92188Q667.94293 434.92188 668.39606 434.65625Q668.8492 434.39062 669.0523 433.96875L669.0523 432.67188L668.20856 432.67188Q666.20856 432.67188 666.20856 433.84375Q666.20856 434.34375 666.5523 434.64062Q666.89606 434.92188 667.4273 434.92188ZM673.7867 427.875L673.7867 429.40625L674.95856 429.40625L674.95856 430.25L673.7867 430.25L673.7867 434.17188Q673.7867 434.5625 673.94293 434.75Q674.0992 434.9375 674.4742 434.9375Q674.6617 434.9375 674.9898 434.875L674.9898 435.75Q674.56793 435.875 674.1617 435.875Q673.44293 435.875 673.06793 435.4375Q672.69293 434.98438 672.69293 434.17188L672.69293 430.25L671.5367 430.25L671.5367 429.40625L672.69293 429.40625L672.69293 427.875L673.7867 427.875ZM677.7867 427.875L677.7867 429.40625L678.95856 429.40625L678.95856 430.25L677.7867 430.25L677.7867 434.17188Q677.7867 434.5625 677.94293 434.75Q678.0992 434.9375 678.4742 434.9375Q678.6617 434.9375 678.9898 434.875L678.9898 435.75Q678.56793 435.875 678.1617 435.875Q677.44293 435.875 677.06793 435.4375Q676.69293 434.98438 676.69293 434.17188L676.69293 430.25L675.5367 430.25L675.5367 429.40625L676.69293 429.40625L676.69293 427.875L677.7867 427.875ZM684.2242 435.75Q684.13043 435.5625 684.06793 435.07812Q683.31793 435.875 682.27106 435.875Q681.33356 435.875 680.7242 435.34375Q680.13043 434.8125 680.13043 433.98438Q680.13043 433.0 680.88043 432.45312Q681.63043 431.90625 683.00543 431.90625L684.0523 431.90625L684.0523 431.40625Q684.0523 430.84375 683.70856 430.51562Q683.38043 430.17188 682.70856 430.17188Q682.13043 430.17188 681.7398 430.46875Q681.3492 430.75 681.3492 431.17188L680.25543 431.17188Q680.25543 430.6875 680.58356 430.25Q680.9273 429.8125 681.50543 429.5625Q682.08356 429.29688 682.77106 429.29688Q683.88043 429.29688 684.4898 429.84375Q685.1148 430.39062 685.14606 431.34375L685.14606 434.26562Q685.14606 435.14062 685.3648 435.65625L685.3648 435.75L684.2242 435.75ZM682.4273 434.92188Q682.94293 434.92188 683.39606 434.65625Q683.8492 434.39062 684.0523 433.96875L684.0523 432.67188L683.20856 432.67188Q681.20856 432.67188 681.20856 433.84375Q681.20856 434.34375 681.5523 434.64062Q681.89606 434.92188 682.4273 434.92188ZM689.8492 434.98438Q690.4273 434.98438 690.8648 434.64062Q691.3023 434.28125 691.3492 433.75L692.38043 433.75Q692.3492 434.29688 691.9898 434.79688Q691.64606 435.28125 691.06793 435.57812Q690.50543 435.875 689.8492 435.875Q688.5523 435.875 687.7867 435.01562Q687.0367 434.14062 687.0367 432.64062L687.0367 432.45312Q687.0367 431.53125 687.3648 430.8125Q687.70856 430.09375 688.33356 429.70312Q688.9742 429.29688 689.8492 429.29688Q690.9117 429.29688 691.6148 429.9375Q692.33356 430.5625 692.38043 431.59375L691.3492 431.59375Q691.3023 430.96875 690.88043 430.57812Q690.45856 430.1875 689.8492 430.1875Q689.02106 430.1875 688.56793 430.78125Q688.1148 431.375 688.1148 432.5L688.1148 432.70312Q688.1148 433.79688 688.56793 434.39062Q689.02106 434.98438 689.8492 434.98438ZM694.39606 430.17188Q695.1148 429.29688 696.27106 429.29688Q698.2867 429.29688 698.3023 431.5625L698.3023 435.75L697.20856 435.75L697.20856 431.54688Q697.20856 430.875 696.89606 430.54688Q696.5992 430.21875 695.94293 430.21875Q695.4117 430.21875 695.00543 430.5Q694.6148 430.78125 694.39606 431.23438L694.39606 435.75L693.31793 435.75L693.31793 426.75L694.39606 426.75L694.39606 430.17188ZM702.94293 435.875Q701.64606 435.875 700.83356 435.03125Q700.0367 434.17188 700.0367 432.75L700.0367 432.5625Q700.0367 431.60938 700.39606 430.875Q700.75543 430.125 701.39606 429.71875Q702.0523 429.29688 702.8023 429.29688Q704.0367 429.29688 704.7242 430.10938Q705.4117 430.92188 705.4117 432.4375L705.4117 432.89062L701.1148 432.89062Q701.14606 433.82812 701.6617 434.40625Q702.19293 434.98438 703.00543 434.98438Q703.56793 434.98438 703.95856 434.75Q704.3648 434.51562 704.6773 434.125L705.33356 434.64062Q704.5367 435.875 702.94293 435.875ZM702.8023 430.1875Q702.14606 430.1875 701.69293 430.67188Q701.25543 431.14062 701.1617 432.0L704.33356 432.0L704.33356 431.92188Q704.2867 431.09375 703.88043 430.64062Q703.4898 430.1875 702.8023 430.1875ZM706.0523 432.53125Q706.0523 431.0625 706.7398 430.1875Q707.4273 429.29688 708.5523 429.29688Q709.6617 429.29688 710.31793 430.04688L710.31793 426.75L711.39606 426.75L711.39606 435.75L710.39606 435.75L710.3492 435.0625Q709.69293 435.875 708.5367 435.875Q707.44293 435.875 706.7398 434.96875Q706.0523 434.0625 706.0523 432.60938L706.0523 432.53125ZM707.13043 432.65625Q707.13043 433.73438 707.56793 434.34375Q708.02106 434.95312 708.8023 434.95312Q709.83356 434.95312 710.31793 434.01562L710.31793 431.10938Q709.83356 430.21875 708.81793 430.21875Q708.02106 430.21875 707.56793 430.82812Q707.13043 431.4375 707.13043 432.65625ZM717.7867 427.875L717.7867 429.40625L718.95856 429.40625L718.95856 430.25L717.7867 430.25L717.7867 434.17188Q717.7867 434.5625 717.94293 434.75Q718.0992 434.9375 718.4742 434.9375Q718.6617 434.9375 718.9898 434.875L718.9898 435.75Q718.56793 435.875 718.1617 435.875Q717.44293 435.875 717.06793 435.4375Q716.69293 434.98438 716.69293 434.17188L716.69293 430.25L715.5367 430.25L715.5367 429.40625L716.69293 429.40625L716.69293 427.875L717.7867 427.875ZM720.02106 432.51562Q720.02106 431.59375 720.38043 430.84375Q720.75543 430.09375 721.4117 429.70312Q722.06793 429.29688 722.89606 429.29688Q724.19293 429.29688 724.9898 430.1875Q725.8023 431.07812 725.8023 432.57812L725.8023 432.65625Q725.8023 433.57812 725.44293 434.3125Q725.08356 435.04688 724.4273 435.46875Q723.77106 435.875 722.9117 435.875Q721.63043 435.875 720.81793 434.98438Q720.02106 434.07812 720.02106 432.59375L720.02106 432.51562ZM721.1148 432.65625Q721.1148 433.70312 721.5992 434.34375Q722.0992 434.98438 722.9117 434.98438Q723.7398 434.98438 724.2242 434.34375Q724.70856 433.6875 724.70856 432.51562Q724.70856 431.48438 724.20856 430.84375Q723.7242 430.1875 722.89606 430.1875Q722.0992 430.1875 721.5992 430.82812Q721.1148 431.45312 721.1148 432.65625Z" fill-rule="nonzero"/><path fill="#273138" d="M646.7867 442.875L646.7867 444.40625L647.95856 444.40625L647.95856 445.25L646.7867 445.25L646.7867 449.17188Q646.7867 449.5625 646.94293 449.75Q647.0992 449.9375 647.4742 449.9375Q647.6617 449.9375 647.9898 449.875L647.9898 450.75Q647.56793 450.875 647.1617 450.875Q646.44293 450.875 646.06793 450.4375Q645.69293 449.98438 645.69293 449.17188L645.69293 445.25L644.5367 445.25L644.5367 444.40625L645.69293 444.40625L645.69293 442.875L646.7867 442.875ZM650.39606 445.17188Q651.1148 444.29688 652.27106 444.29688Q654.2867 444.29688 654.3023 446.5625L654.3023 450.75L653.20856 450.75L653.20856 446.54688Q653.20856 445.875 652.89606 445.54688Q652.5992 445.21875 651.94293 445.21875Q651.4117 445.21875 651.00543 445.5Q650.6148 445.78125 650.39606 446.23438L650.39606 450.75L649.31793 450.75L649.31793 441.75L650.39606 441.75L650.39606 445.17188ZM658.94293 450.875Q657.64606 450.875 656.83356 450.03125Q656.0367 449.17188 656.0367 447.75L656.0367 447.5625Q656.0367 446.60938 656.39606 445.875Q656.75543 445.125 657.39606 444.71875Q658.0523 444.29688 658.8023 444.29688Q660.0367 444.29688 660.7242 445.10938Q661.4117 445.92188 661.4117 447.4375L661.4117 447.89062L657.1148 447.89062Q657.14606 448.82812 657.6617 449.40625Q658.19293 449.98438 659.00543 449.98438Q659.56793 449.98438 659.95856 449.75Q660.3648 449.51562 660.6773 449.125L661.33356 449.64062Q660.5367 450.875 658.94293 450.875ZM658.8023 445.1875Q658.14606 445.1875 657.69293 445.67188Q657.25543 446.14062 657.1617 447.0L660.33356 447.0L660.33356 446.92188Q660.2867 446.09375 659.88043 445.64062Q659.4898 445.1875 658.8023 445.1875ZM669.00543 449.0625Q669.00543 448.625 668.6617 448.39062Q668.33356 448.14062 667.50543 447.96875Q666.69293 447.79688 666.20856 447.54688Q665.7242 447.29688 665.4898 446.96875Q665.27106 446.625 665.27106 446.15625Q665.27106 445.375 665.9273 444.84375Q666.58356 444.29688 667.6148 444.29688Q668.69293 444.29688 669.3492 444.85938Q670.02106 445.40625 670.02106 446.26562L668.94293 446.26562Q668.94293 445.82812 668.5523 445.51562Q668.1773 445.1875 667.6148 445.1875Q667.02106 445.1875 666.6773 445.45312Q666.3492 445.70312 666.3492 446.10938Q666.3492 446.5 666.6617 446.70312Q666.9742 446.90625 667.7867 447.09375Q668.5992 447.26562 669.0992 447.51562Q669.5992 447.76562 669.83356 448.125Q670.08356 448.48438 670.08356 448.98438Q670.08356 449.84375 669.39606 450.35938Q668.7242 450.875 667.64606 450.875Q666.88043 450.875 666.2867 450.60938Q665.70856 450.32812 665.38043 449.84375Q665.0523 449.35938 665.0523 448.79688L666.13043 448.79688Q666.1617 449.34375 666.56793 449.67188Q666.9742 449.98438 667.64606 449.98438Q668.25543 449.98438 668.63043 449.73438Q669.00543 449.48438 669.00543 449.0625ZM672.39606 445.17188Q673.1148 444.29688 674.27106 444.29688Q676.2867 444.29688 676.3023 446.5625L676.3023 450.75L675.20856 450.75L675.20856 446.54688Q675.20856 445.875 674.89606 445.54688Q674.5992 445.21875 673.94293 445.21875Q673.4117 445.21875 673.00543 445.5Q672.6148 445.78125 672.39606 446.23438L672.39606 450.75L671.31793 450.75L671.31793 441.75L672.39606 441.75L672.39606 445.17188ZM679.4898 450.75L678.4117 450.75L678.4117 444.40625L679.4898 444.40625L679.4898 450.75ZM678.31793 442.73438Q678.31793 442.46875 678.4742 442.28125Q678.64606 442.09375 678.95856 442.09375Q679.27106 442.09375 679.4273 442.28125Q679.5992 442.46875 679.5992 442.73438Q679.5992 442.98438 679.4273 443.17188Q679.27106 443.34375 678.95856 443.34375Q678.64606 443.34375 678.4742 443.17188Q678.31793 442.98438 678.31793 442.73438ZM684.38043 445.375Q684.13043 445.34375 683.8492 445.34375Q682.77106 445.34375 682.39606 446.25L682.39606 450.75L681.31793 450.75L681.31793 444.40625L682.3648 444.40625L682.38043 445.14062Q682.9117 444.29688 683.89606 444.29688Q684.20856 444.29688 684.38043 444.375L684.38043 445.375ZM686.7867 442.875L686.7867 444.40625L687.95856 444.40625L687.95856 445.25L686.7867 445.25L686.7867 449.17188Q686.7867 449.5625 686.94293 449.75Q687.0992 449.9375 687.4742 449.9375Q687.6617 449.9375 687.9898 449.875L687.9898 450.75Q687.56793 450.875 687.1617 450.875Q686.44293 450.875 686.06793 450.4375Q685.69293 449.98438 685.69293 449.17188L685.69293 445.25L684.5367 445.25L684.5367 444.40625L685.69293 444.40625L685.69293 442.875L686.7867 442.875ZM692.02106 447.51562Q692.02106 446.59375 692.38043 445.84375Q692.75543 445.09375 693.4117 444.70312Q694.06793 444.29688 694.89606 444.29688Q696.19293 444.29688 696.9898 445.1875Q697.8023 446.07812 697.8023 447.57812L697.8023 447.65625Q697.8023 448.57812 697.44293 449.3125Q697.08356 450.04688 696.4273 450.46875Q695.77106 450.875 694.9117 450.875Q693.63043 450.875 692.81793 449.98438Q692.02106 449.07812 692.02106 447.59375L692.02106 447.51562ZM693.1148 447.65625Q693.1148 448.70312 693.5992 449.34375Q694.0992 449.98438 694.9117 449.98438Q695.7398 449.98438 696.2242 449.34375Q696.70856 448.6875 696.70856 447.51562Q696.70856 446.48438 696.20856 445.84375Q695.7242 445.1875 694.89606 445.1875Q694.0992 445.1875 693.5992 445.82812Q693.1148 446.45312 693.1148 447.65625ZM702.38043 445.375Q702.13043 445.34375 701.8492 445.34375Q700.77106 445.34375 700.39606 446.25L700.39606 450.75L699.31793 450.75L699.31793 444.40625L700.3648 444.40625L700.38043 445.14062Q700.9117 444.29688 701.89606 444.29688Q702.20856 444.29688 702.38043 444.375L702.38043 445.375ZM707.7867 442.875L707.7867 444.40625L708.95856 444.40625L708.95856 445.25L707.7867 445.25L707.7867 449.17188Q707.7867 449.5625 707.94293 449.75Q708.0992 449.9375 708.4742 449.9375Q708.6617 449.9375 708.9898 449.875L708.9898 450.75Q708.56793 450.875 708.1617 450.875Q707.44293 450.875 707.06793 450.4375Q706.69293 449.98438 706.69293 449.17188L706.69293 445.25L705.5367 445.25L705.5367 444.40625L706.69293 444.40625L706.69293 442.875L707.7867 442.875ZM711.39606 445.17188Q712.1148 444.29688 713.27106 444.29688Q715.2867 444.29688 715.3023 446.5625L715.3023 450.75L714.20856 450.75L714.20856 446.54688Q714.20856 445.875 713.89606 445.54688Q713.5992 445.21875 712.94293 445.21875Q712.4117 445.21875 712.00543 445.5Q711.6148 445.78125 711.39606 446.23438L711.39606 450.75L710.31793 450.75L710.31793 441.75L711.39606 441.75L711.39606 445.17188ZM719.94293 450.875Q718.64606 450.875 717.83356 450.03125Q717.0367 449.17188 717.0367 447.75L717.0367 447.5625Q717.0367 446.60938 717.39606 445.875Q717.75543 445.125 718.39606 444.71875Q719.0523 444.29688 719.8023 444.29688Q721.0367 444.29688 721.7242 445.10938Q722.4117 445.92188 722.4117 447.4375L722.4117 447.89062L718.1148 447.89062Q718.14606 448.82812 718.6617 449.40625Q719.19293 449.98438 720.00543 449.98438Q720.56793 449.98438 720.95856 449.75Q721.3648 449.51562 721.6773 449.125L722.33356 449.64062Q721.5367 450.875 719.94293 450.875ZM719.8023 445.1875Q719.14606 445.1875 718.69293 445.67188Q718.25543 446.14062 718.1617 447.0L721.33356 447.0L721.33356 446.92188Q721.2867 446.09375 720.88043 445.64062Q720.4898 445.1875 719.8023 445.1875Z" fill-rule="nonzero"/><path fill="#273138" d="M672.6617 462.65625Q672.6617 464.09375 672.00543 464.98438Q671.3492 465.875 670.20856 465.875Q669.0523 465.875 668.39606 465.14062L668.39606 468.1875L667.31793 468.1875L667.31793 459.40625L668.3023 459.40625L668.3492 460.10938Q669.02106 459.29688 670.19293 459.29688Q671.33356 459.29688 671.9898 460.15625Q672.6617 461.01562 672.6617 462.54688L672.6617 462.65625ZM671.58356 462.53125Q671.58356 461.45312 671.1148 460.84375Q670.6617 460.21875 669.8648 460.21875Q668.88043 460.21875 668.39606 461.07812L668.39606 464.10938Q668.88043 464.98438 669.88043 464.98438Q670.6617 464.98438 671.1148 464.375Q671.58356 463.75 671.58356 462.53125ZM675.39606 460.17188Q676.1148 459.29688 677.27106 459.29688Q679.2867 459.29688 679.3023 461.5625L679.3023 465.75L678.20856 465.75L678.20856 461.54688Q678.20856 460.875 677.89606 460.54688Q677.5992 460.21875 676.94293 460.21875Q676.4117 460.21875 676.00543 460.5Q675.6148 460.78125 675.39606 461.23438L675.39606 465.75L674.31793 465.75L674.31793 456.75L675.39606 456.75L675.39606 460.17188ZM681.02106 462.51562Q681.02106 461.59375 681.38043 460.84375Q681.75543 460.09375 682.4117 459.70312Q683.06793 459.29688 683.89606 459.29688Q685.19293 459.29688 685.9898 460.1875Q686.8023 461.07812 686.8023 462.57812L686.8023 462.65625Q686.8023 463.57812 686.44293 464.3125Q686.08356 465.04688 685.4273 465.46875Q684.77106 465.875 683.9117 465.875Q682.63043 465.875 681.81793 464.98438Q681.02106 464.07812 681.02106 462.59375L681.02106 462.51562ZM682.1148 462.65625Q682.1148 463.70312 682.5992 464.34375Q683.0992 464.98438 683.9117 464.98438Q684.7398 464.98438 685.2242 464.34375Q685.70856 463.6875 685.70856 462.51562Q685.70856 461.48438 685.20856 460.84375Q684.7242 460.1875 683.89606 460.1875Q683.0992 460.1875 682.5992 460.82812Q682.1148 461.45312 682.1148 462.65625ZM689.33356 459.40625L689.3648 460.20312Q690.0992 459.29688 691.27106 459.29688Q693.2867 459.29688 693.3023 461.5625L693.3023 465.75L692.20856 465.75L692.20856 461.54688Q692.20856 460.875 691.89606 460.54688Q691.5992 460.21875 690.94293 460.21875Q690.4117 460.21875 690.00543 460.5Q689.6148 460.78125 689.39606 461.23438L689.39606 465.75L688.31793 465.75L688.31793 459.40625L689.33356 459.40625ZM697.94293 465.875Q696.64606 465.875 695.83356 465.03125Q695.0367 464.17188 695.0367 462.75L695.0367 462.5625Q695.0367 461.60938 695.39606 460.875Q695.75543 460.125 696.39606 459.71875Q697.0523 459.29688 697.8023 459.29688Q699.0367 459.29688 699.7242 460.10938Q700.4117 460.92188 700.4117 462.4375L700.4117 462.89062L696.1148 462.89062Q696.14606 463.82812 696.6617 464.40625Q697.19293 464.98438 698.00543 464.98438Q698.56793 464.98438 698.95856 464.75Q699.3648 464.51562 699.6773 464.125L700.33356 464.64062Q699.5367 465.875 697.94293 465.875ZM697.8023 460.1875Q697.14606 460.1875 696.69293 460.67188Q696.25543 461.14062 696.1617 462.0L699.33356 462.0L699.33356 461.92188Q699.2867 461.09375 698.88043 460.64062Q698.4898 460.1875 697.8023 460.1875Z" fill-rule="nonzero"/><path fill="#273138" d="M774.4378 431.98438L770.84406 431.98438L770.84406 435.75L769.71906 435.75L769.71906 427.21875L775.0159 427.21875L775.0159 428.14062L770.84406 428.14062L770.84406 431.0625L774.4378 431.0625L774.4378 431.98438ZM777.7347 435.75L776.65656 435.75L776.65656 429.40625L777.7347 429.40625L777.7347 435.75ZM776.5628 427.73438Q776.5628 427.46875 776.71906 427.28125Q776.8909 427.09375 777.2034 427.09375Q777.5159 427.09375 777.6722 427.28125Q777.84406 427.46875 777.84406 427.73438Q777.84406 427.98438 777.6722 428.17188Q777.5159 428.34375 777.2034 428.34375Q776.8909 428.34375 776.71906 428.17188Q776.5628 427.98438 776.5628 427.73438ZM780.5784 429.40625L780.6097 430.20312Q781.34406 429.29688 782.5159 429.29688Q784.53156 429.29688 784.5472 431.5625L784.5472 435.75L783.4534 435.75L783.4534 431.54688Q783.4534 430.875 783.1409 430.54688Q782.84406 430.21875 782.1878 430.21875Q781.65656 430.21875 781.2503 430.5Q780.8597 430.78125 780.6409 431.23438L780.6409 435.75L779.5628 435.75L779.5628 429.40625L780.5784 429.40625ZM786.2972 432.53125Q786.2972 431.04688 786.9847 430.17188Q787.6722 429.29688 788.7972 429.29688Q789.9534 429.29688 790.6097 430.10938L790.65656 429.40625L791.65656 429.40625L791.65656 435.59375Q791.65656 436.82812 790.9222 437.53125Q790.1878 438.25 788.96906 438.25Q788.28156 438.25 787.6253 437.95312Q786.96906 437.65625 786.6253 437.15625L787.1878 436.5Q787.8753 437.35938 788.8909 437.35938Q789.6722 437.35938 790.1097 436.90625Q790.5628 436.46875 790.5628 435.65625L790.5628 435.10938Q789.90656 435.875 788.78156 435.875Q787.6722 435.875 786.9847 434.98438Q786.2972 434.07812 786.2972 432.53125ZM787.3909 432.65625Q787.3909 433.71875 787.8284 434.34375Q788.2659 434.95312 789.0628 434.95312Q790.0784 434.95312 790.5628 434.01562L790.5628 431.125Q790.0628 430.21875 789.0628 430.21875Q788.28156 430.21875 787.8284 430.82812Q787.3909 431.4375 787.3909 432.65625ZM796.1878 435.875Q794.8909 435.875 794.0784 435.03125Q793.28156 434.17188 793.28156 432.75L793.28156 432.5625Q793.28156 431.60938 793.6409 430.875Q794.0003 430.125 794.6409 429.71875Q795.2972 429.29688 796.0472 429.29688Q797.28156 429.29688 797.96906 430.10938Q798.65656 430.92188 798.65656 432.4375L798.65656 432.89062L794.3597 432.89062Q794.3909 433.82812 794.90656 434.40625Q795.4378 434.98438 796.2503 434.98438Q796.8128 434.98438 797.2034 434.75Q797.6097 434.51562 797.9222 434.125L798.5784 434.64062Q797.78156 435.875 796.1878 435.875ZM796.0472 430.1875Q795.3909 430.1875 794.9378 430.67188Q794.5003 431.14062 794.40656 432.0L797.5784 432.0L797.5784 431.92188Q797.53156 431.09375 797.1253 430.64062Q796.7347 430.1875 796.0472 430.1875ZM802.6253 430.375Q802.3753 430.34375 802.09406 430.34375Q801.0159 430.34375 800.6409 431.25L800.6409 435.75L799.5628 435.75L799.5628 429.40625L800.6097 429.40625L800.6253 430.14062Q801.15656 429.29688 802.1409 429.29688Q802.4534 429.29688 802.6253 429.375L802.6253 430.375Z" fill-rule="nonzero"/><path fill="#273138" d="M29.953125 32.578125L29.65625 36.078125L28.578125 36.078125L28.59375 31.25L29.953125 31.25L29.953125 32.578125ZM32.59375 32.578125L32.296875 36.078125L31.21875 36.078125L31.21875 31.25L32.59375 31.25L32.59375 32.578125ZM37.96875 41.765625L38.234375 43.640625L38.640625 41.953125L41.453125 32.03125L43.03125 32.03125L45.78125 41.953125L46.171875 43.671875L46.46875 41.75L48.6875 32.03125L50.5625 32.03125L47.125 46.25L45.40625 46.25L42.484375 35.890625L42.25 34.796875L42.03125 35.890625L39.0 46.25L37.28125 46.25L33.84375 32.03125L35.71875 32.03125L37.96875 41.765625ZM54.421875 36.96875Q55.625 35.484375 57.546875 35.484375Q60.90625 35.484375 60.921875 39.265625L60.921875 46.25L59.125 46.25L59.125 39.25Q59.109375 38.109375 58.59375 37.5625Q58.09375 37.015625 57.0 37.015625Q56.125 37.015625 55.453125 37.484375Q54.796875 37.953125 54.421875 38.71875L54.421875 46.25L52.625 46.25L52.625 31.25L54.421875 31.25L54.421875 36.96875ZM68.0 46.453125Q65.859375 46.453125 64.5 45.046875Q63.15625 43.625 63.15625 41.265625L63.15625 40.921875Q63.15625 39.359375 63.75 38.125Q64.359375 36.890625 65.4375 36.1875Q66.515625 35.484375 67.78125 35.484375Q69.84375 35.484375 70.984375 36.84375Q72.125 38.203125 72.125 40.734375L72.125 41.484375L64.96875 41.484375Q65.0 43.046875 65.875 44.015625Q66.75 44.96875 68.09375 44.96875Q69.0625 44.96875 69.71875 44.578125Q70.390625 44.1875 70.890625 43.546875L71.984375 44.40625Q70.65625 46.453125 68.0 46.453125ZM67.78125 36.96875Q66.6875 36.96875 65.9375 37.765625Q65.203125 38.5625 65.03125 40.0L70.3125 40.0L70.3125 39.859375Q70.234375 38.484375 69.5625 37.734375Q68.90625 36.96875 67.78125 36.96875ZM79.71875 37.296875Q79.3125 37.234375 78.84375 37.234375Q77.0625 37.234375 76.421875 38.75L76.421875 46.25L74.625 46.25L74.625 35.6875L76.375 35.6875L76.40625 36.90625Q77.296875 35.484375 78.921875 35.484375Q79.453125 35.484375 79.71875 35.625L79.71875 37.296875ZM86.0 46.453125Q83.859375 46.453125 82.5 45.046875Q81.15625 43.625 81.15625 41.265625L81.15625 40.921875Q81.15625 39.359375 81.75 38.125Q82.359375 36.890625 83.4375 36.1875Q84.515625 35.484375 85.78125 35.484375Q87.84375 35.484375 88.984375 36.84375Q90.125 38.203125 90.125 40.734375L90.125 41.484375L82.96875 41.484375Q83.0 43.046875 83.875 44.015625Q84.75 44.96875 86.09375 44.96875Q87.0625 44.96875 87.71875 44.578125Q88.390625 44.1875 88.890625 43.546875L89.984375 44.40625Q88.65625 46.453125 86.0 46.453125ZM85.78125 36.96875Q84.6875 36.96875 83.9375 37.765625Q83.203125 38.5625 83.03125 40.0L88.3125 40.0L88.3125 39.859375Q88.234375 38.484375 87.5625 37.734375Q86.90625 36.96875 85.78125 36.96875ZM106.96875 43.765625L109.0 35.6875L110.8125 35.6875L107.734375 46.25L106.265625 46.25L103.703125 38.234375L101.203125 46.25L99.734375 46.25L96.671875 35.6875L98.46875 35.6875L100.546875 43.59375L103.015625 35.6875L104.46875 35.6875L106.96875 43.765625ZM112.140625 40.875Q112.140625 39.3125 112.75 38.078125Q113.359375 36.828125 114.4375 36.15625Q115.53125 35.484375 116.9375 35.484375Q119.09375 35.484375 120.421875 36.984375Q121.765625 38.46875 121.765625 40.953125L121.765625 41.078125Q121.765625 42.625 121.171875 43.859375Q120.578125 45.078125 119.46875 45.765625Q118.375 46.453125 116.953125 46.453125Q114.8125 46.453125 113.46875 44.953125Q112.140625 43.453125 112.140625 41.0L112.140625 40.875ZM113.953125 41.078125Q113.953125 42.84375 114.765625 43.90625Q115.59375 44.96875 116.953125 44.96875Q118.328125 44.96875 119.140625 43.890625Q119.953125 42.8125 119.953125 40.875Q119.953125 39.125 119.125 38.046875Q118.296875 36.96875 116.9375 36.96875Q115.59375 36.96875 114.765625 38.03125Q113.953125 39.09375 113.953125 41.078125ZM130.14062 45.203125Q129.09375 46.453125 127.046875 46.453125Q125.359375 46.453125 124.46875 45.46875Q123.59375 44.484375 123.578125 42.5625L123.578125 35.6875L125.390625 35.6875L125.390625 42.515625Q125.390625 44.90625 127.34375 44.90625Q129.40625 44.90625 130.09375 43.375L130.09375 35.6875L131.90625 35.6875L131.90625 46.25L130.1875 46.25L130.14062 45.203125ZM136.57812 46.25L134.78125 46.25L134.78125 31.25L136.57812 31.25L136.57812 46.25ZM139.17188 40.875Q139.17188 38.453125 140.32812 36.96875Q141.48438 35.484375 143.34375 35.484375Q145.20312 35.484375 146.28125 36.75L146.28125 31.25L148.09375 31.25L148.09375 46.25L146.4375 46.25L146.34375 45.109375Q145.26562 46.453125 143.32812 46.453125Q141.5 46.453125 140.32812 44.953125Q139.17188 43.4375 139.17188 41.015625L139.17188 40.875ZM140.98438 41.078125Q140.98438 42.875 141.71875 43.890625Q142.46875 44.90625 143.78125 44.90625Q145.5 44.90625 146.28125 43.375L146.28125 38.515625Q145.48438 37.015625 143.79688 37.015625Q142.46875 37.015625 141.71875 38.046875Q140.98438 39.078125 140.98438 41.078125ZM159.07812 43.609375L161.53125 35.6875L163.46875 35.6875L159.21875 47.875Q158.23438 50.515625 156.09375 50.515625L155.75 50.484375L155.07812 50.359375L155.07812 48.890625L155.5625 48.9375Q156.48438 48.9375 156.98438 48.5625Q157.5 48.1875 157.82812 47.203125L158.23438 46.125L154.46875 35.6875L156.4375 35.6875L159.07812 43.609375ZM164.14062 40.875Q164.14062 39.3125 164.75 38.078125Q165.35938 36.828125 166.4375 36.15625Q167.53125 35.484375 168.9375 35.484375Q171.09375 35.484375 172.42188 36.984375Q173.76562 38.46875 173.76562 40.953125L173.76562 41.078125Q173.76562 42.625 173.17188 43.859375Q172.57812 45.078125 171.46875 45.765625Q170.375 46.453125 168.95312 46.453125Q166.8125 46.453125 165.46875 44.953125Q164.14062 43.453125 164.14062 41.0L164.14062 40.875ZM165.95312 41.078125Q165.95312 42.84375 166.76562 43.90625Q167.59375 44.96875 168.95312 44.96875Q170.32812 44.96875 171.14062 43.890625Q171.95312 42.8125 171.95312 40.875Q171.95312 39.125 171.125 38.046875Q170.29688 36.96875 168.9375 36.96875Q167.59375 36.96875 166.76562 38.03125Q165.95312 39.09375 165.95312 41.078125ZM182.14062 45.203125Q181.09375 46.453125 179.04688 46.453125Q177.35938 46.453125 176.46875 45.46875Q175.59375 44.484375 175.57812 42.5625L175.57812 35.6875L177.39062 35.6875L177.39062 42.515625Q177.39062 44.90625 179.34375 44.90625Q181.40625 44.90625 182.09375 43.375L182.09375 35.6875L183.90625 35.6875L183.90625 46.25L182.1875 46.25L182.14062 45.203125ZM193.57812 46.25L191.78125 46.25L191.78125 31.25L193.57812 31.25L193.57812 46.25ZM198.57812 46.25L196.78125 46.25L196.78125 35.6875L198.57812 35.6875L198.57812 46.25ZM196.625 32.875Q196.625 32.4375 196.89062 32.140625Q197.17188 31.828125 197.6875 31.828125Q198.21875 31.828125 198.48438 32.140625Q198.76562 32.4375 198.76562 32.875Q198.76562 33.3125 198.48438 33.609375Q198.21875 33.90625 197.6875 33.90625Q197.17188 33.90625 196.89062 33.609375Q196.625 33.3125 196.625 32.875ZM204.5625 41.359375L203.4375 42.53125L203.4375 46.25L201.625 46.25L201.625 31.25L203.4375 31.25L203.4375 40.328125L204.40625 39.15625L207.6875 35.6875L209.89062 35.6875L205.78125 40.09375L210.375 46.25L208.25 46.25L204.5625 41.359375ZM216.0 46.453125Q213.85938 46.453125 212.5 45.046875Q211.15625 43.625 211.15625 41.265625L211.15625 40.921875Q211.15625 39.359375 211.75 38.125Q212.35938 36.890625 213.4375 36.1875Q214.51562 35.484375 215.78125 35.484375Q217.84375 35.484375 218.98438 36.84375Q220.125 38.203125 220.125 40.734375L220.125 41.484375L212.96875 41.484375Q213.0 43.046875 213.875 44.015625Q214.75 44.96875 216.09375 44.96875Q217.0625 44.96875 217.71875 44.578125Q218.39062 44.1875 218.89062 43.546875L219.98438 44.40625Q218.65625 46.453125 216.0 46.453125ZM215.78125 36.96875Q214.6875 36.96875 213.9375 37.765625Q213.20312 38.5625 213.03125 40.0L218.3125 40.0L218.3125 39.859375Q218.23438 38.484375 217.5625 37.734375Q216.90625 36.96875 215.78125 36.96875ZM230.0625 33.125L230.0625 35.6875L232.04688 35.6875L232.04688 37.078125L230.0625 37.078125L230.0625 43.625Q230.0625 44.265625 230.32812 44.59375Q230.59375 44.90625 231.23438 44.90625Q231.54688 44.90625 232.09375 44.78125L232.09375 46.25Q231.375 46.453125 230.70312 46.453125Q229.5 46.453125 228.875 45.71875Q228.26562 44.984375 228.26562 43.625L228.26562 37.078125L226.34375 37.078125L226.34375 35.6875L228.26562 35.6875L228.26562 33.125L230.0625 33.125ZM236.42188 36.96875Q237.625 35.484375 239.54688 35.484375Q242.90625 35.484375 242.92188 39.265625L242.92188 46.25L241.125 46.25L241.125 39.25Q241.10938 38.109375 240.59375 37.5625Q240.09375 37.015625 239.0 37.015625Q238.125 37.015625 237.45312 37.484375Q236.79688 37.953125 236.42188 38.71875L236.42188 46.25L234.625 46.25L234.625 31.25L236.42188 31.25L236.42188 36.96875ZM250.0 46.453125Q247.85938 46.453125 246.5 45.046875Q245.15625 43.625 245.15625 41.265625L245.15625 40.921875Q245.15625 39.359375 245.75 38.125Q246.35938 36.890625 247.4375 36.1875Q248.51562 35.484375 249.78125 35.484375Q251.84375 35.484375 252.98438 36.84375Q254.125 38.203125 254.125 40.734375L254.125 41.484375L246.96875 41.484375Q247.0 43.046875 247.875 44.015625Q248.75 44.96875 250.09375 44.96875Q251.0625 44.96875 251.71875 44.578125Q252.39062 44.1875 252.89062 43.546875L253.98438 44.40625Q252.65625 46.453125 250.0 46.453125ZM249.78125 36.96875Q248.6875 36.96875 247.9375 37.765625Q247.20312 38.5625 247.03125 40.0L252.3125 40.0L252.3125 39.859375Q252.23438 38.484375 251.5625 37.734375Q250.90625 36.96875 249.78125 36.96875ZM261.17188 40.875Q261.17188 38.453125 262.32812 36.96875Q263.48438 35.484375 265.34375 35.484375Q267.20312 35.484375 268.28125 36.75L268.28125 31.25L270.09375 31.25L270.09375 46.25L268.4375 46.25L268.34375 45.109375Q267.26562 46.453125 265.32812 46.453125Q263.5 46.453125 262.32812 44.953125Q261.17188 43.4375 261.17188 41.015625L261.17188 40.875ZM262.98438 41.078125Q262.98438 42.875 263.71875 43.890625Q264.46875 44.90625 265.78125 44.90625Q267.5 44.90625 268.28125 43.375L268.28125 38.515625Q267.48438 37.015625 265.79688 37.015625Q264.46875 37.015625 263.71875 38.046875Q262.98438 39.078125 262.98438 41.078125ZM277.0 46.453125Q274.85938 46.453125 273.5 45.046875Q272.15625 43.625 272.15625 41.265625L272.15625 40.921875Q272.15625 39.359375 272.75 38.125Q273.35938 36.890625 274.4375 36.1875Q275.51562 35.484375 276.78125 35.484375Q278.84375 35.484375 279.98438 36.84375Q281.125 38.203125 281.125 40.734375L281.125 41.484375L273.96875 41.484375Q274.0 43.046875 274.875 44.015625Q275.75 44.96875 277.09375 44.96875Q278.0625 44.96875 278.71875 44.578125Q279.39062 44.1875 279.89062 43.546875L280.98438 44.40625Q279.65625 46.453125 277.0 46.453125ZM276.78125 36.96875Q275.6875 36.96875 274.9375 37.765625Q274.20312 38.5625 274.03125 40.0L279.3125 40.0L279.3125 39.859375Q279.23438 38.484375 278.5625 37.734375Q277.90625 36.96875 276.78125 36.96875ZM287.10938 43.796875L289.71875 35.6875L291.5625 35.6875L287.78125 46.25L286.40625 46.25L282.57812 35.6875L284.42188 35.6875L287.10938 43.796875ZM295.57812 46.25L293.78125 46.25L293.78125 35.6875L295.57812 35.6875L295.57812 46.25ZM293.625 32.875Q293.625 32.4375 293.89062 32.140625Q294.17188 31.828125 294.6875 31.828125Q295.21875 31.828125 295.48438 32.140625Q295.76562 32.4375 295.76562 32.875Q295.76562 33.3125 295.48438 33.609375Q295.21875 33.90625 294.6875 33.90625Q294.17188 33.90625 293.89062 33.609375Q293.625 33.3125 293.625 32.875ZM302.85938 44.96875Q303.82812 44.96875 304.54688 44.390625Q305.26562 43.796875 305.34375 42.921875L307.0625 42.921875Q307.0 43.828125 306.42188 44.65625Q305.85938 45.46875 304.89062 45.96875Q303.9375 46.453125 302.85938 46.453125Q300.70312 46.453125 299.42188 45.015625Q298.15625 43.5625 298.15625 41.0625L298.15625 40.765625Q298.15625 39.21875 298.71875 38.015625Q299.28125 36.8125 300.34375 36.15625Q301.40625 35.484375 302.84375 35.484375Q304.625 35.484375 305.79688 36.546875Q306.98438 37.609375 307.0625 39.3125L305.34375 39.3125Q305.26562 38.296875 304.5625 37.640625Q303.875 36.96875 302.84375 36.96875Q301.46875 36.96875 300.70312 37.96875Q299.95312 38.953125 299.95312 40.828125L299.95312 41.171875Q299.95312 43.0 300.70312 43.984375Q301.45312 44.96875 302.85938 44.96875ZM313.0 46.453125Q310.85938 46.453125 309.5 45.046875Q308.15625 43.625 308.15625 41.265625L308.15625 40.921875Q308.15625 39.359375 308.75 38.125Q309.35938 36.890625 310.4375 36.1875Q311.51562 35.484375 312.78125 35.484375Q314.84375 35.484375 315.98438 36.84375Q317.125 38.203125 317.125 40.734375L317.125 41.484375L309.96875 41.484375Q310.0 43.046875 310.875 44.015625Q311.75 44.96875 313.09375 44.96875Q314.0625 44.96875 314.71875 44.578125Q315.39062 44.1875 315.89062 43.546875L316.98438 44.40625Q315.65625 46.453125 313.0 46.453125ZM312.78125 36.96875Q311.6875 36.96875 310.9375 37.765625Q310.20312 38.5625 310.03125 40.0L315.3125 40.0L315.3125 39.859375Q315.23438 38.484375 314.5625 37.734375Q313.90625 36.96875 312.78125 36.96875ZM327.0625 33.125L327.0625 35.6875L329.04688 35.6875L329.04688 37.078125L327.0625 37.078125L327.0625 43.625Q327.0625 44.265625 327.32812 44.59375Q327.59375 44.90625 328.23438 44.90625Q328.54688 44.90625 329.09375 44.78125L329.09375 46.25Q328.375 46.453125 327.70312 46.453125Q326.5 46.453125 325.875 45.71875Q325.26562 44.984375 325.26562 43.625L325.26562 37.078125L323.34375 37.078125L323.34375 35.6875L325.26562 35.6875L325.26562 33.125L327.0625 33.125ZM331.14062 40.875Q331.14062 39.3125 331.75 38.078125Q332.35938 36.828125 333.4375 36.15625Q334.53125 35.484375 335.9375 35.484375Q338.09375 35.484375 339.42188 36.984375Q340.76562 38.46875 340.76562 40.953125L340.76562 41.078125Q340.76562 42.625 340.17188 43.859375Q339.57812 45.078125 338.46875 45.765625Q337.375 46.453125 335.95312 46.453125Q333.8125 46.453125 332.46875 44.953125Q331.14062 43.453125 331.14062 41.0L331.14062 40.875ZM332.95312 41.078125Q332.95312 42.84375 333.76562 43.90625Q334.59375 44.96875 335.95312 44.96875Q337.32812 44.96875 338.14062 43.890625Q338.95312 42.8125 338.95312 40.875Q338.95312 39.125 338.125 38.046875Q337.29688 36.96875 335.9375 36.96875Q334.59375 36.96875 333.76562 38.03125Q332.95312 39.09375 332.95312 41.078125ZM356.5625 41.078125Q356.5625 43.5 355.45312 44.984375Q354.34375 46.453125 352.46875 46.453125Q350.45312 46.453125 349.35938 45.03125L349.28125 46.25L347.625 46.25L347.625 31.25L349.42188 31.25L349.42188 36.84375Q350.51562 35.484375 352.4375 35.484375Q354.35938 35.484375 355.45312 36.9375Q356.5625 38.390625 356.5625 40.921875L356.5625 41.078125ZM354.75 40.875Q354.75 39.03125 354.03125 38.03125Q353.32812 37.015625 352.0 37.015625Q350.20312 37.015625 349.42188 38.6875L349.42188 43.25Q350.25 44.90625 352.01562 44.90625Q353.3125 44.90625 354.03125 43.90625Q354.75 42.90625 354.75 40.875ZM363.0 46.453125Q360.85938 46.453125 359.5 45.046875Q358.15625 43.625 358.15625 41.265625L358.15625 40.921875Q358.15625 39.359375 358.75 38.125Q359.35938 36.890625 360.4375 36.1875Q361.51562 35.484375 362.78125 35.484375Q364.84375 35.484375 365.98438 36.84375Q367.125 38.203125 367.125 40.734375L367.125 41.484375L359.96875 41.484375Q360.0 43.046875 360.875 44.015625Q361.75 44.96875 363.09375 44.96875Q364.0625 44.96875 364.71875 44.578125Q365.39062 44.1875 365.89062 43.546875L366.98438 44.40625Q365.65625 46.453125 363.0 46.453125ZM362.78125 36.96875Q361.6875 36.96875 360.9375 37.765625Q360.20312 38.5625 360.03125 40.0L365.3125 40.0L365.3125 39.859375Q365.23438 38.484375 364.5625 37.734375Q363.90625 36.96875 362.78125 36.96875ZM383.54688 41.078125Q383.54688 43.5 382.4375 44.984375Q381.34375 46.453125 379.45312 46.453125Q377.53125 46.453125 376.42188 45.21875L376.42188 50.3125L374.625 50.3125L374.625 35.6875L376.26562 35.6875L376.35938 36.859375Q377.45312 35.484375 379.42188 35.484375Q381.32812 35.484375 382.4375 36.921875Q383.54688 38.359375 383.54688 40.921875L383.54688 41.078125ZM381.73438 40.875Q381.73438 39.09375 380.96875 38.0625Q380.21875 37.015625 378.89062 37.015625Q377.25 37.015625 376.42188 38.46875L376.42188 43.53125Q377.23438 44.96875 378.90625 44.96875Q380.20312 44.96875 380.96875 43.9375Q381.73438 42.90625 381.73438 40.875ZM387.57812 46.25L385.78125 46.25L385.78125 31.25L387.57812 31.25L387.57812 46.25ZM397.14062 46.25Q396.98438 45.9375 396.89062 45.140625Q395.625 46.453125 393.875 46.453125Q392.3125 46.453125 391.3125 45.5625Q390.3125 44.671875 390.3125 43.3125Q390.3125 41.671875 391.5625 40.765625Q392.82812 39.84375 395.09375 39.84375L396.85938 39.84375L396.85938 39.015625Q396.85938 38.0625 396.28125 37.5Q395.71875 36.9375 394.625 36.9375Q393.65625 36.9375 393.0 37.4375Q392.34375 37.921875 392.34375 38.609375L390.53125 38.609375Q390.53125 37.828125 391.09375 37.09375Q391.65625 36.34375 392.60938 35.921875Q393.57812 35.484375 394.73438 35.484375Q396.5625 35.484375 397.59375 36.40625Q398.625 37.3125 398.67188 38.921875L398.67188 43.78125Q398.67188 45.234375 399.03125 46.09375L399.03125 46.25L397.14062 46.25ZM394.14062 44.875Q395.0 44.875 395.75 44.4375Q396.51562 44.0 396.85938 43.296875L396.85938 41.125L395.4375 41.125Q392.125 41.125 392.125 43.0625Q392.125 43.921875 392.6875 44.40625Q393.25 44.875 394.14062 44.875ZM405.85938 44.96875Q406.82812 44.96875 407.54688 44.390625Q408.26562 43.796875 408.34375 42.921875L410.0625 42.921875Q410.0 43.828125 409.42188 44.65625Q408.85938 45.46875 407.89062 45.96875Q406.9375 46.453125 405.85938 46.453125Q403.70312 46.453125 402.42188 45.015625Q401.15625 43.5625 401.15625 41.0625L401.15625 40.765625Q401.15625 39.21875 401.71875 38.015625Q402.28125 36.8125 403.34375 36.15625Q404.40625 35.484375 405.84375 35.484375Q407.625 35.484375 408.79688 36.546875Q409.98438 37.609375 410.0625 39.3125L408.34375 39.3125Q408.26562 38.296875 407.5625 37.640625Q406.875 36.96875 405.84375 36.96875Q404.46875 36.96875 403.70312 37.96875Q402.95312 38.953125 402.95312 40.828125L402.95312 41.171875Q402.95312 43.0 403.70312 43.984375Q404.45312 44.96875 405.85938 44.96875ZM416.0 46.453125Q413.85938 46.453125 412.5 45.046875Q411.15625 43.625 411.15625 41.265625L411.15625 40.921875Q411.15625 39.359375 411.75 38.125Q412.35938 36.890625 413.4375 36.1875Q414.51562 35.484375 415.78125 35.484375Q417.84375 35.484375 418.98438 36.84375Q420.125 38.203125 420.125 40.734375L420.125 41.484375L412.96875 41.484375Q413.0 43.046875 413.875 44.015625Q414.75 44.96875 416.09375 44.96875Q417.0625 44.96875 417.71875 44.578125Q418.39062 44.1875 418.89062 43.546875L419.98438 44.40625Q418.65625 46.453125 416.0 46.453125ZM415.78125 36.96875Q414.6875 36.96875 413.9375 37.765625Q413.20312 38.5625 413.03125 40.0L418.3125 40.0L418.3125 39.859375Q418.23438 38.484375 417.5625 37.734375Q416.90625 36.96875 415.78125 36.96875ZM422.17188 40.875Q422.17188 38.453125 423.32812 36.96875Q424.48438 35.484375 426.34375 35.484375Q428.20312 35.484375 429.28125 36.75L429.28125 31.25L431.09375 31.25L431.09375 46.25L429.4375 46.25L429.34375 45.109375Q428.26562 46.453125 426.32812 46.453125Q424.5 46.453125 423.32812 44.953125Q422.17188 43.4375 422.17188 41.015625L422.17188 40.875ZM423.98438 41.078125Q423.98438 42.875 424.71875 43.890625Q425.46875 44.90625 426.78125 44.90625Q428.5 44.90625 429.28125 43.375L429.28125 38.515625Q428.48438 37.015625 426.79688 37.015625Q425.46875 37.015625 424.71875 38.046875Q423.98438 39.078125 423.98438 41.078125ZM435.73438 42.25Q435.75 41.078125 436.0 40.40625Q436.25 39.734375 437.0 38.921875L438.28125 37.59375Q439.09375 36.671875 439.09375 35.609375Q439.09375 34.578125 438.54688 34.0Q438.01562 33.421875 437.0 33.421875Q436.0 33.421875 435.39062 33.953125Q434.79688 34.46875 434.79688 35.359375L432.98438 35.359375Q433.0 33.78125 434.10938 32.8125Q435.21875 31.828125 437.0 31.828125Q438.84375 31.828125 439.875 32.828125Q440.90625 33.8125 440.90625 35.546875Q440.90625 37.25 439.32812 38.921875L438.25 39.96875Q437.54688 40.765625 437.54688 42.25L435.73438 42.25ZM435.65625 45.34375Q435.65625 44.90625 435.92188 44.609375Q436.20312 44.3125 436.71875 44.3125Q437.25 44.3125 437.51562 44.609375Q437.79688 44.90625 437.79688 45.34375Q437.79688 45.78125 437.51562 46.078125Q437.25 46.359375 436.71875 46.359375Q436.20312 46.359375 435.92188 46.078125Q435.65625 45.78125 435.65625 45.34375ZM443.95312 32.578125L443.65625 36.078125L442.57812 36.078125L442.59375 31.25L443.95312 31.25L443.95312 32.578125ZM446.59375 32.578125L446.29688 36.078125L445.21875 36.078125L445.21875 31.25L446.59375 31.25L446.59375 32.578125Z" fill-rule="nonzero"/></svg>